<svg width="1491" height="707" viewBox="0 0 1491 707" fill="none" xmlns="http://www.w3.org/2000/svg">
<g clip-path="url(#clip0_35_531)">
<path d="M560.298 238.067C547.411 237.529 266.578 267.115 192.476 269.804C159.184 271.149 -41.9093 297.238 -62.5824 296.7C-72.2478 296.431 -63.1194 203.372 -62.5824 195.841C-56.6758 191 56.624 118.382 62.7991 113.541C74.8808 121.34 100.924 130.216 113.811 138.553C133.142 151.194 164.823 133.443 170.192 132.099C183.885 133.712 188.449 137.478 196.504 138.553C210.196 140.436 240.535 109.506 248.589 106.279C261.476 101.975 280.002 132.905 304.702 131.023C342.827 123.492 380.146 165.718 417.733 166.525C418.807 167.332 466.329 149.312 484.854 149.043C498.547 148.774 565.131 193.69 580.166 191.807C580.434 229.73 560.298 199.607 560.298 238.067Z" fill="#F09E7A"/>
<path d="M136.9 466.411C105.219 479.321 87.768 512.941 54.4761 522.892C28.1648 530.961 6.41769 550.595 -22.0415 553.822V215.475C16.62 203.372 52.5967 184.545 89.3789 168.408C101.461 163.298 111.663 161.684 122.134 171.097C124.013 172.98 126.698 174.594 129.383 174.863C149.519 177.552 163.48 192.076 179.052 202.834C185.764 207.406 190.597 210.634 198.383 207.406C211.27 202.296 224.426 197.455 237.85 193.152C243.22 191.269 249.663 187.504 254.496 194.496C262.282 206.062 274.632 213.861 280.539 227.04C283.492 233.764 288.056 236.185 296.648 233.226C304.434 230.268 313.025 225.426 322.154 231.881C347.391 249.095 375.045 255.012 405.115 246.943C409.947 245.598 415.049 246.136 420.15 245.598C428.473 244.791 440.823 242.64 443.239 249.633C445.924 257.701 434.111 263.349 428.204 269.266C427.936 269.535 427.13 269.804 426.593 270.073C380.951 295.893 335.309 321.444 289.667 347.533C264.698 361.787 242.683 379.538 221.741 398.634C188.449 415.041 162.675 440.861 136.9 466.411Z" fill="#2C2E45"/>
<path d="M1507.51 225.695C1497.3 225.157 1469.38 230.268 1462.4 225.695C1442.8 213.054 1445.22 190.462 1422.13 189.117C1364.4 185.89 1306.41 182.124 1248.42 184.814C1222.38 186.159 1201.17 176.476 1181.03 163.297C1168.95 155.498 1167.61 165.718 1153.65 166.256C1137.54 167.063 1116.33 182.931 1099.95 182.393C1092.43 182.124 1028.53 161.146 1028.8 153.615C1033.36 148.774 1113.64 106.279 1118.47 101.169C1127.87 108.968 1148.28 117.844 1158.48 126.181C1173.51 138.822 1198.48 121.071 1202.51 119.727C1213.25 121.34 1216.74 125.106 1223.18 126.181C1233.92 128.064 1236.61 118.651 1243.05 115.423C1253.25 111.12 1288.69 120.533 1308.02 118.651C1337.82 111.12 1393.4 111.389 1408.17 125.375C1408.97 126.181 1437.97 111.658 1452.47 111.12C1463.21 110.851 1495.69 98.21 1507.24 96.0583C1507.24 134.519 1507.51 187.504 1507.51 225.695Z" fill="#F09E7A"/>
<path d="M1453.54 706.052C1448.71 693.68 1438.24 685.342 1429.65 676.735C1411.12 657.908 1392.33 639.888 1375.95 619.448C1363.06 603.31 1344.27 596.586 1327.62 586.904C1318.76 581.794 1312.32 576.146 1307.22 568.077C1293.79 548.174 1280.91 528.002 1267.75 508.1C1266.14 505.679 1264.26 503.527 1265.6 500.569C1267.75 495.997 1271.24 498.955 1274.19 499.224C1280.37 499.493 1287.08 501.376 1292.45 499.493C1327.89 487.659 1348.03 506.755 1365.75 533.65C1395.82 579.373 1423.47 626.44 1456.23 670.549C1464.55 681.576 1470.19 694.217 1477.17 706.32H1453.54V706.052Z" fill="#2C2E45"/>
<path d="M760.586 577.759C746.088 567.001 739.376 553.553 731.59 541.181C724.073 528.809 717.361 515.361 712.528 502.183C704.205 479.321 685.679 472.597 667.154 466.949C633.325 456.46 609.967 434.943 593.321 405.089C572.38 367.704 552.512 329.513 532.107 291.859C529.691 287.555 527.275 283.521 529.959 279.487C538.014 266.308 548.753 255.012 555.197 240.488C557.345 235.916 563.251 234.84 567.01 241.564C581.24 266.577 594.127 292.934 610.773 316.334C620.707 330.319 637.084 340.002 650.777 351.298C664.469 362.594 678.699 373.621 692.392 385.186C698.567 390.297 701.251 398.096 703.668 405.627C714.676 440.86 729.711 474.48 741.524 509.175C748.773 530.692 760.855 551.133 760.586 577.759Z" fill="#2C2E45"/>
<path d="M831.734 191.538C825.291 184.007 816.431 180.78 807.302 178.359C783.676 171.635 760.586 163.566 741.255 147.698C756.022 135.057 774.547 134.25 789.582 126.181C794.684 116.23 814.551 106.279 814.551 106.279C821.8 114.616 894.291 146.353 909.326 156.304C909.326 156.036 838.715 180.242 831.734 191.538Z" fill="#F09E7A"/>
<path d="M1472.87 600.352C1435.82 553.822 1398.77 507.293 1361.45 461.032C1382.66 467.756 1400.65 480.128 1419.17 491.424C1447.1 508.369 1455.69 536.071 1464.28 564.58C1467.77 576.146 1472.87 586.904 1477.17 598.2C1475.82 599.007 1474.21 599.545 1472.87 600.352Z" fill="#2C2E45"/>
<path d="M479.216 310.416C508.749 310.954 509.018 311.223 518.415 338.926C522.979 352.643 528.08 366.359 532.913 380.076C533.987 383.304 536.403 386.531 533.181 389.221C529.422 392.717 525.932 389.759 522.979 387.069C510.092 376.311 500.963 362.325 490.761 349.146C484.586 341.346 478.142 333.547 471.967 325.747C469.014 321.982 462.839 319.023 466.06 313.375C468.745 307.996 474.92 311.223 479.216 310.416Z" fill="#2C2E45"/>
<path d="M1245.73 566.194C1238.22 564.849 1231.77 564.042 1227.48 558.932C1217.01 546.56 1199.29 545.484 1188.82 533.65C1184.79 529.078 1174.05 524.506 1184.25 516.437C1193.11 509.444 1202.24 495.19 1215.66 507.293C1232.58 522.623 1246 540.374 1245.73 566.194Z" fill="#2C2E45"/>
<path d="M634.936 206.33C626.345 199.069 612.652 199.875 608.625 186.966C602.718 167.063 594.127 147.698 594.395 126.181C614.531 149.581 625.539 177.283 634.936 206.33Z" fill="#2C2E45"/>
<path d="M131.799 470.446L201.605 400.517C201.605 400.517 306.313 330.589 331.282 320.637C356.251 310.686 430.889 255.819 440.823 245.867C450.757 235.916 528.349 125.913 530.496 115.961C533.45 103.051 568.352 62.708 568.352 62.708L580.434 191C580.434 191 560.566 181.049 555.465 181.049C548.485 181.049 520.562 266.039 515.461 270.88C510.36 275.99 400.819 298.314 395.718 305.845C390.617 313.375 370.749 348.34 360.815 355.871C350.881 363.401 320.811 375.773 310.877 375.773C300.943 375.773 231.138 425.799 226.037 425.799C221.472 425.53 131.799 470.446 131.799 470.446Z" fill="#703351"/>
<path d="M983.427 110.582C1004.64 98.4787 1008.93 96.0581 1028.8 86.1067C1028.8 86.1067 1063.7 111.12 1073.91 119.726C1078.47 125.912 1104.78 146.891 1108 154.153C1107.73 161.683 1138.07 151.732 1154.18 150.925C1167.87 150.387 1179.69 155.229 1191.77 163.297C1211.91 176.476 1222.38 186.158 1248.42 184.814C1306.41 181.855 1330.84 175.669 1371.12 166.256C1394.21 167.6 1434.75 188.31 1454.35 201.22C1461.6 205.792 1540.8 177.821 1551 178.359C1551 240.488 1507.51 349.684 1507.51 411.813C1501.06 413.696 1492.2 407.241 1487.91 418.537C1486.3 422.84 1479.32 419.613 1475.56 418.268C1456.76 412.889 1439.85 416.385 1425.62 428.757C1414.07 438.978 1404.95 436.288 1395.82 426.337C1390.98 420.957 1385.88 420.688 1378.37 420.957C1330.58 422.033 1290.84 445.97 1249.49 465.335C1241.17 469.101 1233.92 472.328 1226.94 463.722C1222.91 458.611 1218.35 459.687 1213.52 462.915C1193.11 476.362 1169.75 483.086 1148.01 493.845C1139.15 498.148 1134.58 496.265 1136.73 485.776C1138.07 478.783 1138.88 470.176 1143.44 465.066C1154.45 452.963 1148.01 448.122 1137.27 442.474C1113.64 430.102 1089.75 417.461 1066.66 403.744C1044.37 390.296 1029.07 368.78 1009.47 352.105C978.057 325.209 948.256 296.431 917.112 268.997C888.116 243.446 858.582 218.971 831.466 191.269C838.446 179.972 849.186 170.828 859.119 164.642C860.462 163.566 861.536 162.49 862.878 161.414V161.683C878.987 152.001 890.532 138.553 903.956 125.912C906.641 125.374 913.085 126.45 913.89 125.912C917.38 124.299 929.999 116.23 933.758 115.961C944.229 121.071 967.318 126.181 983.427 110.582Z" fill="#2C2E45"/>
<path d="M1145.59 452.695C1150.96 448.66 1201.97 444.626 1226.14 433.868C1280.91 409.393 1333.53 379.807 1333.53 379.807C1361.72 379.807 1417.56 381.152 1427.5 379.807C1450.05 376.58 1524.15 347.801 1532.21 345.112C1540.26 342.422 1534.89 437.902 1534.89 437.902L1432.87 441.936C1432.87 441.936 1384.54 448.66 1381.86 448.66C1379.17 448.66 1309.37 452.695 1306.68 452.695C1304 452.695 1226.14 484.969 1226.14 484.969L1191.5 490.348L1148.28 507.831C1148.28 507.831 1118.74 521.278 1118.74 517.244C1118.74 513.21 1145.59 452.695 1145.59 452.695Z" fill="#703351"/>
<path d="M634.936 206.33C625.539 177.283 614.531 149.581 594.395 126.181C594.395 147.698 602.718 167.063 608.625 186.966C612.652 200.144 626.345 199.069 634.936 206.33ZM1245.73 566.194C1246 540.374 1232.31 522.623 1215.66 507.562C1202.24 495.459 1193.38 509.713 1184.25 516.706C1174.05 524.506 1184.79 529.078 1188.82 533.919C1199.29 545.753 1217.01 546.829 1227.48 559.201C1231.77 564.043 1238.22 564.849 1245.73 566.194ZM479.216 310.417C474.92 311.224 468.745 308.265 465.792 313.644C462.839 319.561 468.745 322.52 471.699 326.016C477.874 333.816 484.317 341.616 490.492 349.415C500.695 362.325 509.823 376.58 522.71 387.338C525.664 389.759 529.154 392.986 532.913 389.49C535.866 386.8 533.718 383.304 532.644 380.345C527.811 366.629 522.71 352.912 518.146 339.195C509.018 311.224 508.749 310.955 479.216 310.417ZM1472.87 600.352C1474.48 599.545 1475.82 598.738 1477.44 597.931C1473.14 586.635 1468.04 575.877 1464.55 564.311C1455.96 536.071 1447.37 508.1 1419.44 491.155C1400.65 479.859 1382.66 467.487 1361.72 460.763C1398.5 507.562 1435.55 553.822 1472.87 600.352ZM760.586 577.759C760.855 551.402 748.773 530.692 741.524 509.444C729.711 474.749 714.676 440.861 703.668 405.896C701.251 398.365 698.567 390.566 692.392 385.455C678.699 373.89 664.469 362.863 650.777 351.567C637.084 340.271 620.707 330.588 610.773 316.603C594.127 293.203 581.24 267.115 567.01 241.833C563.251 235.109 557.345 236.185 555.197 240.757C548.753 255.012 538.014 266.577 529.959 279.756C527.543 284.059 529.959 288.093 532.107 292.128C552.78 329.781 572.648 367.704 593.321 405.358C609.967 435.212 633.325 456.729 667.154 467.218C685.679 472.866 704.205 479.59 712.528 502.452C717.36 515.361 723.804 529.078 731.59 541.45C739.107 553.553 746.088 566.732 760.586 577.759ZM1507.51 411.813C1507.51 504.334 1507.24 596.855 1508.04 689.107C1508.04 703.362 1505.09 708.741 1490.86 706.052C1486.56 705.245 1482 706.052 1477.44 706.052C1470.45 694.217 1464.55 681.308 1456.49 670.28C1423.74 626.44 1396.35 579.104 1366.01 533.381C1348.3 506.486 1328.16 487.39 1292.72 499.224C1287.08 501.107 1280.37 499.224 1274.46 498.955C1271.51 498.686 1268.02 495.728 1265.87 500.3C1264.53 503.258 1266.41 505.679 1268.02 507.831C1281.17 527.733 1294.33 547.905 1307.49 567.808C1312.86 575.608 1319.3 581.525 1327.89 586.635C1344.54 596.317 1363.06 603.041 1376.22 619.179C1392.59 639.619 1411.39 657.908 1429.91 676.466C1438.51 685.073 1449.24 693.411 1453.81 705.783C967.049 705.783 480.022 705.783 -6.738 706.052C-19.6252 706.052 -22.31 702.824 -22.0415 690.452C-21.2361 644.729 -21.773 599.276 -21.773 553.553C6.68614 550.326 28.1648 530.692 54.7446 522.623C88.0365 512.403 105.756 479.052 137.169 466.142C167.239 453.77 193.013 433.868 221.204 417.999C228.721 416.923 234.36 412.351 240.803 408.855C268.457 394.6 293.157 374.159 324.57 367.435C346.585 362.594 360.547 348.608 372.36 330.857C385.784 309.879 393.838 296.162 422.835 295.086C448.877 288.362 474.383 279.756 500.426 272.763C508.212 270.611 512.239 267.384 515.461 259.315C524.59 236.454 535.329 214.13 545.531 191.807C548.485 185.083 551.706 177.821 561.372 181.586C579.897 188.31 579.092 177.821 577.212 164.911C572.648 133.981 561.909 103.858 567.815 71.8523C568.084 70.2385 565.936 68.0869 565.131 66.2042C571.037 62.1698 571.574 50.6047 582.313 53.0253C594.395 55.4459 606.477 58.1355 616.411 66.2042C655.072 98.21 697.761 123.761 741.792 147.698C761.123 163.566 784.213 171.635 807.839 178.359C816.968 181.049 825.827 184.007 832.271 191.538C859.388 218.971 888.921 243.715 917.917 269.266C949.061 296.7 978.863 325.478 1010.28 352.374C1029.87 369.049 1045.18 390.566 1067.46 404.013C1090.55 417.73 1114.18 430.371 1138.07 442.743C1141.56 444.626 1154.18 450.005 1154.18 450.005C1146.13 461.032 1122.23 504.872 1127.33 502.72C1149.08 492.231 1193.65 476.094 1214.05 462.915C1218.89 459.687 1223.18 458.612 1227.48 463.722C1234.46 472.328 1241.71 469.101 1250.03 465.336C1291.38 445.971 1331.11 422.034 1378.9 420.958C1386.42 420.689 1391.52 420.958 1396.35 426.337C1405.48 436.288 1414.61 438.978 1426.16 428.757C1440.38 416.117 1457.57 412.62 1476.09 418.268C1480.12 419.344 1486.83 422.84 1488.44 418.537C1492.47 407.241 1501.06 413.696 1507.51 411.813Z" fill="#161926"/>
</g>
<defs>
<clipPath id="clip0_35_531">
<rect width="1491" height="707" fill="white"/>
</clipPath>
</defs>
</svg>
