<svg width="1492" height="675" viewBox="0 0 1492 675" fill="none" xmlns="http://www.w3.org/2000/svg">
<g clip-path="url(#clip0_46_323)">
<path d="M562.842 220.42C549.882 219.879 267.462 249.631 192.943 252.336C159.463 253.688 -42.7675 279.924 -63.5575 279.383C-73.2775 279.113 -64.0975 185.528 -63.5575 177.955C-57.6175 173.086 56.3225 100.058 62.5325 95.1891C74.6825 103.033 100.873 111.959 113.833 120.343C133.273 133.056 165.132 115.204 170.532 113.852C184.302 115.475 188.893 119.261 196.993 120.343C210.763 122.237 241.273 91.1319 249.373 87.8862C262.333 83.5586 280.963 114.663 305.803 112.77C344.143 105.197 381.672 147.661 419.472 148.473C420.552 149.284 468.342 131.162 486.972 130.892C500.742 130.621 567.702 175.791 582.822 173.898C583.092 212.035 562.842 181.741 562.842 220.42Z" fill="#F09E7A"/>
<path d="M137.052 450.053C105.192 463.036 87.6424 496.846 54.1624 506.853C27.7024 514.968 5.83241 534.712 -22.7876 537.958V197.699C16.0924 185.528 52.2724 166.594 89.2624 150.366C101.412 145.227 111.672 143.604 122.202 153.07C124.092 154.964 126.792 156.587 129.492 156.857C149.742 159.562 163.782 174.168 179.442 184.987C186.192 189.585 191.052 192.83 198.882 189.585C211.842 184.446 225.072 179.577 238.572 175.25C243.972 173.356 250.452 169.57 255.312 176.602C263.142 188.232 275.562 196.076 281.502 209.33C284.472 216.091 289.062 218.526 297.702 215.55C305.532 212.575 314.172 207.707 323.352 214.198C348.732 231.509 376.542 237.459 406.782 229.345C411.642 227.992 416.772 228.533 421.902 227.992C430.272 227.181 442.692 225.017 445.122 232.05C447.822 240.164 435.942 245.844 430.002 251.794C429.732 252.065 428.922 252.335 428.382 252.606C382.482 278.571 336.582 304.267 290.682 330.503C265.572 344.838 243.432 362.69 222.372 381.893C188.892 398.392 162.972 424.358 137.052 450.053Z" fill="#2C2E45"/>
<path d="M1515.4 207.977C1505.14 207.436 1477.06 212.575 1470.04 207.977C1450.33 195.265 1452.76 172.545 1429.54 171.192C1371.49 167.946 1313.17 164.16 1254.85 166.865C1228.66 168.217 1207.33 158.48 1187.08 145.226C1174.93 137.383 1173.58 147.661 1159.54 148.202C1143.34 149.013 1122.01 164.971 1105.54 164.43C1097.98 164.16 1033.72 143.063 1033.99 135.489C1038.58 130.621 1119.31 87.8855 1124.17 82.7465C1133.62 90.5903 1154.14 99.516 1164.4 107.901C1179.52 120.613 1204.63 102.762 1208.68 101.409C1219.48 103.032 1222.99 106.819 1229.47 107.901C1240.27 109.794 1242.97 100.327 1249.45 97.0817C1259.71 92.7541 1295.35 102.221 1314.79 100.327C1344.76 92.7541 1400.65 93.0246 1415.5 107.089C1416.31 107.901 1445.47 93.295 1460.05 92.7541C1470.85 92.4836 1503.52 79.7712 1515.13 77.6074C1515.13 116.286 1515.4 169.569 1515.4 207.977Z" fill="#F09E7A"/>
<path d="M1461.13 691.048C1456.27 678.606 1445.74 670.221 1437.1 661.566C1418.47 642.632 1399.57 624.511 1383.1 603.954C1370.14 587.726 1351.24 580.964 1334.5 571.227C1325.59 566.088 1319.11 560.408 1313.98 552.293C1300.48 532.278 1287.52 511.993 1274.29 491.977C1272.67 489.543 1270.78 487.379 1272.13 484.404C1274.29 479.806 1277.8 482.781 1280.77 483.052C1286.98 483.322 1293.73 485.215 1299.13 483.322C1334.77 471.421 1355.02 490.625 1372.84 517.673C1403.08 563.653 1430.89 610.987 1463.83 655.345C1472.2 666.434 1477.87 679.147 1484.89 691.318H1461.13V691.048Z" fill="#2C2E45"/>
<path d="M764.263 562.031C749.683 551.212 742.933 537.688 735.103 525.246C727.543 512.804 720.793 499.28 715.933 486.027C707.563 463.037 688.933 456.275 670.303 450.595C636.283 440.046 612.793 418.408 596.053 388.385C574.993 350.789 555.013 312.381 534.493 274.515C532.063 270.187 529.633 266.13 532.333 262.073C540.433 248.82 551.233 237.46 557.713 222.854C559.873 218.256 565.813 217.174 569.593 223.936C583.903 249.09 596.863 275.597 613.603 299.128C623.593 313.193 640.063 322.93 653.833 334.29C667.603 345.65 681.913 356.74 695.683 368.37C701.893 373.509 704.593 381.353 707.023 388.926C718.093 424.359 733.213 458.168 745.093 493.06C752.383 514.698 764.533 535.254 764.263 562.031Z" fill="#2C2E45"/>
<path d="M835.813 173.627C829.333 166.053 820.423 162.808 811.243 160.373C787.483 153.611 764.263 145.497 744.823 129.539C759.673 116.827 778.303 116.015 793.423 107.901C798.553 97.8934 818.533 87.8857 818.533 87.8857C825.823 96.2705 898.723 128.187 913.843 138.194C913.843 137.924 842.833 162.267 835.813 173.627Z" fill="#F09E7A"/>
<path d="M1480.57 584.75C1443.31 537.958 1406.05 491.165 1368.52 444.644C1389.85 451.405 1407.94 463.847 1426.57 475.207C1454.65 492.247 1463.29 520.106 1471.93 548.777C1475.44 560.407 1480.57 571.226 1484.89 582.586C1483.54 583.398 1481.92 583.939 1480.57 584.75Z" fill="#2C2E45"/>
<path d="M481.303 293.178C511.003 293.719 511.273 293.989 520.723 321.848C525.313 335.642 530.443 349.437 535.303 363.231C536.383 366.477 538.813 369.722 535.573 372.427C531.793 375.943 528.283 372.968 525.313 370.263C512.353 359.444 503.173 345.379 492.913 332.126C486.703 324.282 480.223 316.439 474.013 308.595C471.043 304.808 464.833 301.833 468.073 296.153C470.773 290.743 476.983 293.989 481.303 293.178Z" fill="#2C2E45"/>
<path d="M1252.15 550.4C1244.59 549.047 1238.11 548.236 1233.79 543.097C1223.26 530.655 1205.44 529.573 1194.91 517.672C1190.86 513.074 1180.06 508.476 1190.32 500.362C1199.23 493.329 1208.41 478.994 1221.91 491.165C1238.92 506.583 1252.42 524.434 1252.15 550.4Z" fill="#2C2E45"/>
<path d="M637.902 188.503C629.262 181.2 615.492 182.012 611.442 169.029C605.502 149.014 596.862 129.539 597.132 107.901C617.382 131.433 628.452 159.292 637.902 188.503Z" fill="#2C2E45"/>
<path d="M131.923 454.11L202.123 383.787C202.123 383.787 307.423 313.463 332.533 303.455C357.643 293.447 432.703 238.27 442.693 228.263C452.683 218.255 530.713 107.63 532.873 97.6227C535.843 84.6398 570.943 44.0684 570.943 44.0684L583.093 173.086C583.093 173.086 563.113 163.078 557.983 163.078C550.963 163.078 522.883 248.548 517.753 253.417C512.623 258.556 402.463 281.006 397.333 288.579C392.203 296.152 372.223 331.314 362.233 338.887C352.243 346.461 322.003 358.903 312.013 358.903C302.023 358.903 231.823 409.211 226.693 409.211C222.103 408.941 131.923 454.11 131.923 454.11Z" fill="#703351"/>
<path d="M988.363 92.2139C1009.69 80.0425 1014.01 77.6082 1033.99 67.6006C1033.99 67.6006 1069.09 92.7549 1079.35 101.41C1083.94 107.631 1110.4 128.728 1113.64 136.031C1113.37 143.604 1143.88 133.597 1160.08 132.785C1173.85 132.244 1185.73 137.113 1197.88 145.227C1218.13 158.481 1228.66 168.218 1254.85 166.865C1313.17 163.89 1337.74 157.669 1378.24 148.202C1401.46 149.555 1442.23 170.382 1461.94 183.364C1469.23 187.962 1548.88 159.833 1559.14 160.374C1559.14 222.854 1515.4 332.667 1515.4 395.147C1508.92 397.041 1500.01 390.549 1495.69 401.909C1494.07 406.237 1487.05 402.991 1483.27 401.639C1464.37 396.229 1447.36 399.745 1433.05 412.187C1421.44 422.465 1412.26 419.761 1403.08 409.753C1398.22 404.343 1393.09 404.073 1385.53 404.343C1337.47 405.425 1297.51 429.498 1255.93 448.972C1247.56 452.759 1240.27 456.004 1233.25 447.349C1229.2 442.21 1224.61 443.292 1219.75 446.538C1199.23 460.062 1175.74 466.823 1153.87 477.642C1144.96 481.97 1140.37 480.077 1142.53 469.528C1143.88 462.496 1144.69 453.841 1149.28 448.702C1160.35 436.53 1153.87 431.662 1143.07 425.982C1119.31 413.54 1095.28 400.827 1072.06 387.033C1049.65 373.509 1034.26 351.871 1014.55 335.102C982.962 308.054 952.992 279.113 921.672 251.524C892.512 225.829 862.812 201.216 835.542 173.357C842.562 161.997 853.362 152.801 863.352 146.58C864.702 145.498 865.783 144.416 867.133 143.334V143.604C883.333 133.867 894.942 120.343 908.442 107.631C911.142 107.09 917.623 108.172 918.433 107.631C921.943 106.008 934.633 97.8939 938.413 97.6235C948.943 102.763 972.163 107.902 988.363 92.2139Z" fill="#2C2E45"/>
<path d="M1151.44 436.259C1156.84 432.202 1208.14 428.145 1232.44 417.326C1287.52 392.713 1340.44 362.96 1340.44 362.96C1368.79 362.96 1424.95 364.313 1434.94 362.96C1457.62 359.714 1532.14 330.774 1540.24 328.069C1548.34 325.364 1542.94 421.383 1542.94 421.383L1440.34 425.44C1440.34 425.44 1391.74 432.202 1389.04 432.202C1386.34 432.202 1316.14 436.259 1313.44 436.259C1310.74 436.259 1232.44 468.716 1232.44 468.716L1197.61 474.126L1154.14 491.707C1154.14 491.707 1124.44 505.231 1124.44 501.174C1124.44 497.116 1151.44 436.259 1151.44 436.259Z" fill="#703351"/>
<path d="M637.903 188.503C628.453 159.292 617.383 131.433 597.133 107.901C597.133 129.539 605.503 149.014 611.443 169.029C615.493 182.282 629.263 181.2 637.903 188.503ZM1252.15 550.4C1252.42 524.435 1238.65 506.583 1221.91 491.436C1208.41 479.265 1199.5 493.6 1190.32 500.633C1180.06 508.476 1190.86 513.074 1194.91 517.943C1205.44 529.844 1223.26 530.926 1233.79 543.368C1238.11 548.236 1244.59 549.048 1252.15 550.4ZM481.303 293.177C476.983 293.989 470.773 291.014 467.803 296.423C464.833 302.374 470.773 305.349 473.743 308.865C479.953 316.709 486.433 324.553 492.643 332.396C502.903 345.379 512.083 359.714 525.043 370.534C528.013 372.968 531.523 376.214 535.303 372.697C538.273 369.993 536.113 366.476 535.033 363.501C530.173 349.707 525.043 335.913 520.453 322.118C511.273 293.989 511.003 293.718 481.303 293.177ZM1480.57 584.751C1482.19 583.939 1483.54 583.128 1485.16 582.316C1480.84 570.956 1475.71 560.137 1472.2 548.507C1463.56 520.107 1454.92 491.977 1426.84 474.937C1407.94 463.577 1389.85 451.135 1368.79 444.374C1405.78 491.436 1443.04 537.958 1480.57 584.751ZM764.263 562.031C764.533 535.524 752.383 514.697 745.093 493.33C733.213 458.438 718.093 424.358 707.023 389.196C704.593 381.623 701.893 373.779 695.683 368.64C681.913 357.01 667.603 345.92 653.833 334.56C640.063 323.2 623.593 313.463 613.603 299.398C596.863 275.867 583.903 249.631 569.593 224.206C565.813 217.444 559.873 218.526 557.713 223.124C551.233 237.459 540.433 249.09 532.333 262.343C529.903 266.671 532.333 270.728 534.493 274.785C555.283 312.652 575.263 350.789 596.053 388.655C612.793 418.678 636.283 440.316 670.303 450.865C688.933 456.545 707.563 463.307 715.933 486.297C720.793 499.28 727.273 513.075 735.103 525.516C742.663 537.688 749.683 550.941 764.263 562.031ZM1515.4 395.147C1515.4 488.191 1515.13 581.234 1515.94 674.008C1515.94 688.343 1512.97 693.753 1498.66 691.048C1494.34 690.236 1489.75 691.048 1485.16 691.048C1478.14 679.147 1472.2 666.164 1464.1 655.074C1431.16 610.987 1403.62 563.383 1373.11 517.402C1355.29 490.355 1335.04 471.151 1299.4 483.052C1293.73 484.945 1286.98 483.052 1281.04 482.781C1278.07 482.511 1274.56 479.535 1272.4 484.134C1271.05 487.109 1272.94 489.543 1274.56 491.707C1287.79 511.722 1301.02 532.008 1314.25 552.023C1319.65 559.867 1326.13 565.817 1334.77 570.956C1351.51 580.694 1370.14 587.455 1383.37 603.684C1399.84 624.24 1418.74 642.633 1437.37 661.295C1446.01 669.951 1456.81 678.335 1461.4 690.777C971.892 690.777 482.113 690.777 -7.3974 691.048C-20.3574 691.048 -23.0574 687.802 -22.7874 675.36C-21.9774 629.379 -22.5174 583.669 -22.5174 537.688C6.1026 534.442 27.7026 514.697 54.4326 506.583C87.9126 496.305 105.733 462.766 137.323 449.783C167.563 437.341 193.483 417.326 221.833 401.368C229.393 400.286 235.063 395.688 241.543 392.172C269.353 377.836 294.193 357.28 325.783 350.518C347.923 345.65 361.963 331.585 373.843 313.734C387.343 292.636 395.443 278.842 424.603 277.76C450.793 270.998 476.443 262.343 502.633 255.311C510.463 253.147 514.513 249.901 517.753 241.787C526.933 218.796 537.733 196.347 547.993 173.897C550.963 167.135 554.203 159.833 563.923 163.619C582.553 170.381 581.743 159.833 579.853 146.85C575.263 115.745 564.463 85.4516 570.403 53.265C570.673 51.6421 568.513 49.4783 567.703 47.585C573.643 43.5278 574.183 31.8973 584.983 34.3316C597.133 36.7659 609.283 39.4707 619.273 47.585C658.153 79.7716 701.083 105.467 745.363 129.539C764.803 145.497 788.023 153.612 811.783 160.374C820.963 163.078 829.873 166.054 836.353 173.627C863.623 201.215 893.323 226.099 922.483 251.795C953.803 279.383 983.773 308.324 1015.36 335.372C1035.07 352.141 1050.46 373.779 1072.87 387.303C1096.09 401.097 1119.85 413.81 1143.88 426.252C1147.39 428.145 1160.08 433.555 1160.08 433.555C1151.98 444.644 1127.95 488.732 1133.08 486.568C1154.95 476.019 1199.77 459.791 1220.29 446.537C1225.15 443.292 1229.47 442.21 1233.79 447.349C1240.81 456.004 1248.1 452.758 1256.47 448.972C1298.05 429.497 1338.01 405.425 1386.07 404.343C1393.63 404.073 1398.76 404.343 1403.62 409.753C1412.8 419.76 1421.98 422.465 1433.59 412.187C1447.9 399.475 1465.18 395.958 1483.81 401.638C1487.86 402.72 1494.61 406.236 1496.23 401.909C1500.28 390.549 1508.92 397.04 1515.4 395.147Z" fill="#161926"/>
</g>
<defs>
<clipPath id="clip0_46_323">
<rect width="1492" height="675" fill="white"/>
</clipPath>
</defs>
</svg>
