<svg width="93" height="90" viewBox="0 0 93 90" fill="none" xmlns="http://www.w3.org/2000/svg">
<path d="M15.0545 86.7366C15.0545 86.9935 15.4176 87.2654 15.6143 87.5223C16.28 87.4769 16.5523 87.0992 16.5372 86.7366C16.5221 86.374 16.3859 85.951 15.7958 85.951C15.1906 85.951 15.0545 86.374 15.0545 86.7366ZM12.8606 89.3806C12.8455 89.5014 13.0421 89.7281 13.1783 89.7432C13.3296 89.7734 13.5112 89.6223 13.8138 89.5014C13.5263 89.2597 13.375 89.0784 13.1935 89.0029C13.1329 88.9878 12.8757 89.2295 12.8606 89.3806ZM10.0615 89.441C10.0313 89.5317 10.3944 89.864 10.5759 89.864C10.7726 89.864 10.9845 89.6072 11.3022 89.3655C10.9693 89.0935 10.697 88.7611 10.5608 88.8065C10.349 88.8971 10.1372 89.1842 10.0615 89.441ZM7.39862 89.3806C7.36836 89.5468 7.68609 89.7885 7.83739 90C7.92817 90 8.01896 90 8.10974 90C8.24591 89.7583 8.51825 89.5165 8.50312 89.2899C8.48799 89.0935 8.14 88.9122 7.94331 88.7309C7.76174 88.9424 7.45914 89.1237 7.39862 89.3806ZM4.75085 89.3655C4.93241 89.5468 5.09885 89.864 5.28041 89.864C5.52249 89.864 5.76457 89.6223 6.00665 89.4863C6.00665 89.3957 6.00665 89.305 6.00665 89.2144C5.79483 89.0482 5.53762 88.7158 5.40145 88.7611C5.14424 88.8518 4.96267 89.154 4.75085 89.3655ZM2.78394 88.7007C2.54186 88.9878 2.26952 89.1842 2.28465 89.3504C2.29978 89.5317 2.57212 89.6978 2.73855 89.8791C2.87472 89.713 3.1168 89.5619 3.13193 89.3806C3.14706 89.2144 2.95037 89.0029 2.78394 88.7007ZM1.96691 86.7668C1.96691 87.3107 2.25439 87.5374 2.90498 87.5374C3.2681 87.4769 3.5707 87.2352 3.55557 86.7064C3.52531 86.2078 3.25297 85.951 2.76881 85.9661C2.23926 85.9661 1.96691 86.2532 1.96691 86.7668ZM0 86.2229V87.4014C0.378253 87.3409 0.726245 87.205 0.711115 86.7517C0.695985 86.3287 0.393383 86.1927 0 86.2229ZM0 83.4581V84.9085C0.257212 84.7574 0.665725 84.6668 0.756505 84.4402C1.08937 83.7301 0.438773 83.6545 0 83.4581ZM0 80.8444V82.2948C0.257212 82.1286 0.665725 82.0379 0.771635 81.8113C1.05911 81.1012 0.469033 80.9955 0 80.8444ZM0 78.2155V79.666C0.257212 79.4998 0.665725 79.4091 0.771635 79.1674C1.02885 78.5026 0.423643 78.3968 0 78.2155ZM0 75.5867V77.0371C0.484163 76.9918 0.938066 76.8709 0.907806 76.2817C0.877546 75.7529 0.499293 75.5414 0 75.5867ZM0 72.701V74.5442C0.605204 74.5291 1.05911 74.1967 1.01372 73.6075C0.983457 73.1089 0.574944 72.7464 0 72.701ZM53.5303 21.1063C53.5152 20.6379 53.1218 20.1696 52.7284 20.3206C52.3804 20.4566 52.0022 20.7739 51.866 21.1063C51.7147 21.4386 52.3653 22.1185 52.7284 22.1185C53.1067 22.1336 53.5454 21.5746 53.5303 21.1063ZM52.7889 19.3537C53.258 19.3084 53.5152 18.9609 53.5152 18.5227C53.5152 17.994 53.1672 17.7824 52.5317 17.7824C52.1535 17.7673 51.8811 18.0242 51.8357 18.4925C51.7904 18.9005 52.3199 19.399 52.7889 19.3537ZM53.6514 23.7955C53.6362 23.3272 53.1521 22.9193 52.6225 22.9193C52.214 22.9193 51.6693 23.4027 51.6996 23.7502C51.7298 24.1883 52.214 24.6265 52.6528 24.6265C53.1521 24.6114 53.6665 24.1732 53.6514 23.7955ZM52.7133 10.5607C52.6376 10.3794 52.335 10.3038 52.1383 10.1679C52.0476 10.3945 51.8206 10.6664 51.8811 10.8477C51.9568 11.1348 52.214 11.3614 52.4258 11.6636C52.9402 11.3312 52.8494 10.9233 52.7133 10.5607ZM53.6211 13.5068C53.379 13.0536 53.0461 12.6305 52.6528 12.2981C52.4712 12.1471 51.8357 12.9176 51.8206 13.2953C51.8055 13.6881 52.3502 14.096 53.0915 14.1111C53.2277 13.9752 53.6665 13.6126 53.6211 13.5068ZM53.6665 16.1054C53.5454 15.5615 53.0008 14.9119 52.6376 14.9572C52.1383 15.0176 51.9719 15.4407 51.8811 15.8486C51.8055 16.2263 52.4409 16.9515 52.7889 16.8306C53.1218 16.7249 53.379 16.3623 53.6665 16.1054ZM55.24 19.2933C55.3005 18.9609 55.4216 18.6285 55.4064 18.2961C55.3913 18.0695 55.2098 17.858 55.0584 17.5407C54.8012 17.7824 54.6348 17.9033 54.5289 18.0544C54.2868 18.4472 54.3019 18.84 54.6953 19.1271C54.8466 19.2328 55.0585 19.2479 55.24 19.2933ZM55.9209 23.3121C55.6031 22.7531 55.5426 22.2847 55.8452 21.7257C55.9209 21.6048 55.9057 21.4386 55.9663 21.1063C55.815 20.8796 55.6183 20.5321 55.361 20.2451C55.3157 20.1847 54.9374 20.2602 54.892 20.366C54.7105 20.6832 54.5592 21.0458 54.5289 21.4084C54.5138 21.5746 54.7407 21.8617 54.9223 21.9674C55.4518 22.2545 55.3459 22.5416 54.9979 22.8739C54.8618 23.0099 54.6953 23.1459 54.5894 23.297C54.2868 23.7049 54.423 24.2035 54.9223 24.6265C55.3157 24.9589 55.709 24.7625 55.8755 24.4754C55.9965 24.1279 56.0722 23.5991 55.9209 23.3121ZM57.6154 38.6923C56.7379 39.3722 56.8438 39.9161 58.0239 40.7621C58.841 40.0823 58.7351 39.5535 57.6154 38.6923ZM62.2906 48.9055C62.1242 48.9206 61.8973 49.0113 61.7913 48.9357C61.4736 48.7091 61.4434 48.422 61.9426 47.999C62.0788 48.3616 62.1847 48.6335 62.2906 48.9055ZM57.3128 54.1027C57.3128 54.5107 57.0859 54.8884 56.5412 54.843C56.0268 54.8733 55.7847 54.4956 55.7998 54.133C55.815 53.6495 56.2991 53.4833 56.7076 53.5588C56.9497 53.5891 57.3128 53.9063 57.3128 54.1027ZM54.9828 56.5956C54.9828 57.1244 54.544 57.5625 54.0145 57.5776C53.5908 57.5928 53.1369 57.064 53.1369 56.5805C53.1369 55.9762 53.5606 55.5834 54.1506 55.6136C54.5743 55.6438 54.9828 56.1121 54.9828 56.5956ZM54.9677 54.0423C54.9677 54.3747 54.3625 54.9337 54.0145 54.9488C53.6211 54.9639 53.031 54.4049 53.031 54.0121C53.031 53.5588 53.379 53.2416 53.8632 53.2416C54.4079 53.2567 54.9677 53.6495 54.9677 54.0423ZM54.6802 51.353C54.6348 51.5494 54.1658 51.7156 53.8632 51.7761C53.7421 51.8063 53.4395 51.5192 53.4093 51.3379C53.3185 50.7487 53.7421 50.4768 54.4532 50.1746C54.5592 50.6278 54.771 51.0207 54.6802 51.353ZM53.0915 43.4514C53.2731 43.0737 53.6362 42.6658 54.0145 42.5147C54.4381 42.3485 55.2098 43.0586 55.0736 43.4665C54.9374 43.8744 54.5289 44.1917 54.2414 44.5543C53.6665 44.4486 52.9251 43.7989 53.0915 43.4514ZM53.3034 45.9594C53.379 45.6874 53.727 45.3853 54.0145 45.3097C54.423 45.204 54.8618 45.763 54.8466 46.4731C54.7256 46.5637 54.5138 46.881 54.2566 46.9263C53.7724 47.0019 53.1672 46.3975 53.3034 45.9594ZM55.1644 40.8981C55.2854 41.1549 54.3927 41.8499 54.0599 41.8348C53.5606 41.8046 53.1369 41.3514 53.1369 40.8377C53.1369 40.3089 53.6211 39.8405 54.3927 39.8707C54.5894 40.1276 54.9677 40.46 55.1644 40.8981ZM53.0461 59.3C52.9856 58.8316 53.5606 58.2877 53.9993 58.2877C54.4079 58.2877 54.8315 58.6805 54.8466 59.0734C54.8618 59.5568 54.3625 59.9043 53.6967 59.9648C53.1521 60.0252 53.0764 59.6324 53.0461 59.3ZM53.6816 32.785C53.6816 32.6641 53.7724 32.4979 53.8632 32.4224C53.9237 32.377 54.1052 32.4828 54.2112 32.5432C54.4684 32.7094 54.7256 32.9058 55.0736 33.1476C54.5894 33.5102 54.196 33.8274 53.8027 34.1145C53.7421 33.6008 53.6816 33.1929 53.6816 32.785ZM52.3502 43.5421C52.3502 43.95 51.7601 44.5845 51.3667 44.5845C50.9733 44.5845 50.3832 43.9651 50.3832 43.5421C50.3832 43.0435 50.8977 42.4845 51.3667 42.4845C51.9114 42.4845 52.3502 42.9528 52.3502 43.5421ZM52.1989 38.2995C52.214 38.4808 51.987 38.7376 51.8055 38.8585C51.6693 38.934 51.3213 38.8887 51.2457 38.7829C51.1095 38.5865 51.0036 38.2844 51.049 38.0729C51.1398 37.7405 51.3667 37.4383 51.5483 37.121C51.6542 37.121 51.745 37.1059 51.8509 37.1059C51.9719 37.4987 52.1535 37.8916 52.1989 38.2995ZM51.639 30.3223C51.6239 30.5338 51.2154 30.7756 50.9431 30.9115C50.822 30.972 50.5951 30.8209 50.4135 30.7605C50.5497 30.3676 50.6858 29.9748 50.822 29.5669C50.9128 29.5518 51.0187 29.5367 51.1095 29.5216C51.3062 29.7935 51.6542 30.0655 51.639 30.3223ZM51.3213 28.1618C50.7312 28.6 50.5194 28.041 50.2319 27.633C50.6405 27.1949 51.17 27.0891 51.3818 27.4668C51.4877 27.633 51.4575 28.0712 51.3213 28.1618ZM50.7918 41.0039C50.8523 40.7168 51.0792 40.46 51.3516 39.9765C51.6844 40.4146 52.0022 40.6413 52.0627 40.9132C52.1383 41.3362 51.8055 41.6535 51.3818 41.6686C50.9885 41.6988 50.7161 41.3816 50.7918 41.0039ZM50.3681 33.0267C50.3984 32.936 50.4286 32.8454 50.474 32.7547C50.7615 32.8001 51.0792 32.785 51.3364 32.8907C51.4272 32.9209 51.397 33.2533 51.4121 33.4346C51.3516 33.4799 51.2911 33.5102 51.2305 33.5555C50.9431 33.3893 50.6556 33.208 50.3681 33.0267ZM52.335 56.6409C52.3502 56.9733 51.745 57.5776 51.397 57.5776C50.9431 57.5625 50.5194 57.1093 50.5043 56.6258C50.4892 56.097 50.8372 55.7646 51.397 55.7495C51.866 55.7495 52.3199 56.1877 52.335 56.6409ZM52.214 53.9517C52.2291 54.4351 51.7903 54.9337 51.3667 54.9337C50.9733 54.9337 50.4438 54.4049 50.4286 53.997C50.4135 53.574 50.9431 52.9847 51.3364 52.9998C51.7903 53.0301 52.214 53.4833 52.214 53.9517ZM51.4121 52.1991C50.8825 52.184 50.5345 51.8365 50.5194 51.3077C50.5043 50.8091 50.7615 50.5221 51.2457 50.4919C51.7903 50.4616 52.1081 50.8393 52.1081 51.4739C52.1232 51.9725 51.9114 52.2293 51.4121 52.1991ZM52.0929 48.6789C52.0778 49.1774 51.6542 49.7062 51.2608 49.6911C50.8977 49.676 50.2622 49.0415 50.2925 48.7091C50.3076 48.3918 51.0641 47.6968 51.397 47.7573C51.8811 47.8479 52.1081 48.1803 52.0929 48.6789ZM50.5648 59.3151C50.5648 58.9676 50.9582 58.6352 51.1851 58.3028C51.2911 58.3028 51.397 58.3028 51.5029 58.3028C51.745 58.6352 52.1535 58.9525 52.1686 59.2849C52.1837 59.5266 51.6693 59.9799 51.3818 59.9799C51.0944 59.995 50.5648 59.5568 50.5648 59.3151ZM51.3516 66.5973C51.4272 66.552 51.7147 66.8541 52.0324 67.0808C51.7298 67.398 51.5483 67.7304 51.3516 67.7455C51.1851 67.7606 50.7918 67.3829 50.8069 67.2469C50.8674 67.0052 51.1246 66.7484 51.3516 66.5973ZM50.7918 64.9958C50.7766 64.9052 50.7615 64.7994 50.7464 64.7088C51.049 64.4972 51.3667 64.2857 51.6693 64.0591C51.745 64.1346 51.8206 64.1951 51.8963 64.2706C51.745 64.5123 51.639 64.7994 51.4272 64.9656C51.2911 65.0865 51.0036 64.9958 50.7918 64.9958ZM50.5043 69.8456C50.5194 69.3168 51.0187 68.8484 51.518 68.8937C51.9114 68.924 52.4561 69.4981 52.3048 69.8305C52.1232 70.2233 51.7903 70.6312 51.4121 70.7974C51.0338 70.9787 50.5043 70.329 50.5043 69.8456ZM48.8248 28.4338C48.2348 28.4791 48.0835 28.0712 48.0078 27.633C47.9473 27.2553 48.5222 26.6208 48.84 26.7568C49.188 26.9078 49.536 27.2402 49.6721 27.5877C49.8386 27.9201 49.2636 28.4187 48.8248 28.4338ZM49.1577 25.533C49.188 25.6236 48.7946 26.0316 48.6584 26.0165C48.3104 25.956 47.8111 25.8805 47.9019 25.3366C47.9322 25.1402 48.1591 24.974 48.4466 24.5963C48.7795 25.0193 49.0367 25.2459 49.1577 25.533ZM49.2939 30.6849C49.0215 30.6698 48.7341 30.6849 48.492 30.6094C48.4315 30.5943 48.3861 30.2166 48.4617 30.0806C48.5222 29.9748 48.8248 29.8993 48.9308 29.9597C49.1275 30.0806 49.2485 30.3072 49.4149 30.4885C49.3695 30.5489 49.3241 30.6245 49.2939 30.6849ZM47.8868 32.9814C47.8565 32.5281 48.3861 32.1353 48.961 32.1051C49.5057 32.09 49.657 32.4828 49.7024 32.8907C49.7478 33.2835 49.3241 33.5404 48.6584 33.5404C48.3709 33.5404 47.917 33.5706 47.8868 32.9814ZM47.9019 41.019C48.0229 40.7319 48.3407 40.5204 48.6584 40.1729C48.9913 40.5053 49.4603 40.8377 49.4149 40.9434C49.2636 41.2758 48.9762 41.6233 48.6584 41.7895C48.3709 41.9255 47.7809 41.3211 47.9019 41.019ZM47.0698 25.1855C47.1454 25.5028 46.5099 26.0467 46.1014 26.0618C45.6929 26.0769 45.1331 25.6387 45.118 25.2913C45.1028 24.8682 45.5567 24.4905 46.0863 24.4754C46.5856 24.4754 46.9638 24.702 47.0698 25.1855ZM46.0712 26.7719C46.4646 26.7568 46.979 27.2402 46.9487 27.633C46.9185 28.1467 46.6007 28.3884 45.8593 28.4489C45.6929 28.2676 45.3147 28.0107 45.1785 27.6784C45.0423 27.3309 45.6475 26.787 46.0712 26.7719ZM45.5416 33.1929C45.587 32.8152 45.814 32.3921 46.2981 32.5281C46.5402 32.5886 46.7369 32.8907 46.9487 33.0871C46.6915 33.2986 46.4494 33.5253 46.1166 33.8123C45.8593 33.5404 45.5265 33.344 45.5416 33.1929ZM44.6641 25.2913C44.1496 25.6841 43.9076 26.3942 43.2418 25.9258C43.1057 25.82 43.0603 25.3064 43.1813 25.1553C43.6655 24.5207 44.074 25.2459 44.6641 25.2913ZM43.5444 26.6208C43.8017 26.4697 44.4825 27.2402 44.4674 27.6028C44.4522 28.0863 43.8924 28.6604 43.4234 28.6755C42.9998 28.6906 42.213 27.9956 42.3946 27.7086C42.6669 27.2704 43.0905 26.8927 43.5444 26.6208ZM43.3478 29.4762C43.6201 29.8388 43.847 30.0353 43.8924 30.2468C43.9076 30.3525 43.5747 30.6547 43.4234 30.6245C43.2267 30.5943 42.9695 30.3827 42.909 30.1863C42.8787 30.0655 43.1208 29.8388 43.3478 29.4762ZM41.0631 33.1929C40.8815 33.1627 40.5487 33.1627 40.5335 33.0871C40.473 32.8605 40.5335 32.6037 40.5487 32.3619C40.7 32.3619 40.8362 32.3619 40.9875 32.3619C41.0177 32.649 41.048 32.9209 41.0631 33.1929ZM50.0201 72.4895C49.4603 72.8672 49.2031 73.7435 48.3558 73.3054C47.9776 73.109 47.6447 72.7917 47.7506 72.2629C47.8565 71.7643 48.2348 71.4319 48.6735 71.4168C49.3241 71.3715 49.7327 71.855 50.0201 72.4895ZM49.8386 59.3151C49.3847 59.6324 49.0972 59.995 48.7643 60.0403C48.4012 60.0856 48.0381 59.8137 48.0078 59.3453C47.9776 58.9223 48.492 58.2877 48.84 58.4237C49.1728 58.5446 49.3998 58.9072 49.8386 59.3151ZM47.8716 53.9214C47.8716 53.4833 48.2953 53.0452 48.7189 53.03C49.1275 53.03 49.6873 53.5891 49.6873 53.997C49.6721 54.42 49.2334 54.843 48.7946 54.843C48.2045 54.8279 47.8868 54.5107 47.8716 53.9214ZM47.917 56.505C48.0078 56.1726 48.3709 55.9157 48.613 55.6287C49.2031 55.7495 49.6116 56.1575 49.5965 56.6258C49.5813 57.0942 49.3241 57.4114 48.8551 57.4417C48.3709 57.487 47.796 56.928 47.917 56.505ZM49.5814 69.8456C49.5208 70.3441 49.188 70.6161 48.7341 70.6765C48.3104 70.737 47.8717 70.1931 47.8868 69.483C48.0835 69.347 48.3709 69.0297 48.7341 68.9089C49.1123 68.788 49.6267 69.4225 49.5814 69.8456ZM49.5511 67.1261C49.6873 67.4433 49.0518 67.9872 48.5222 68.0628C48.3104 67.7304 47.9019 67.3678 47.9473 67.0808C47.9927 66.7786 48.4769 66.3102 48.7643 66.3253C49.0367 66.3253 49.4149 66.7937 49.5511 67.1261ZM48.84 63.772C49.0367 64.0138 49.4301 64.2857 49.3998 64.5123C49.3695 64.8447 49.2787 65.3735 48.613 65.3433C48.2802 65.2375 47.8716 65.0109 48.023 64.5728C48.1591 64.2555 48.5676 64.0289 48.84 63.772ZM48.1591 61.9137C48.3709 61.6569 48.5676 61.3849 48.7946 61.1583C48.8248 61.1281 49.0972 61.3245 49.4301 61.536C49.0367 61.8231 48.7946 62.0346 48.5222 62.1706C48.4617 62.2008 48.2802 62.0044 48.1591 61.9137ZM48.7341 52.3351C48.3256 52.3351 47.6296 51.6854 47.7809 51.3379C47.9624 50.9149 48.3256 50.5523 48.613 50.1746C48.7189 50.1746 48.8097 50.1746 48.9156 50.1746C49.188 50.5372 49.5814 50.8847 49.6873 51.2926C49.8234 51.8214 49.2788 52.3351 48.7341 52.3351ZM47.8716 74.9975C47.8716 74.3932 48.265 74.0003 48.8702 74.0154C49.2939 74.0306 49.7175 74.5593 49.7024 75.0579C49.6873 75.4205 49.1728 75.8436 48.7492 75.8436C48.1743 75.8587 47.8868 75.5716 47.8716 74.9975ZM48.1894 77.4753C48.2196 77.2486 48.4769 77.0371 48.7341 76.7047C49.0064 77.022 49.3241 77.2486 49.2939 77.3846C49.2485 77.5961 48.961 77.8681 48.7341 77.8983C48.5525 77.9285 48.1743 77.6112 48.1894 77.4753ZM47.0849 51.3379C47.0849 51.7156 46.5251 52.3049 46.1317 52.3351C45.7383 52.3653 45.1028 51.7458 45.118 51.3379C45.1331 50.9602 45.6929 50.371 46.0712 50.371C46.6007 50.3408 47.0849 50.8091 47.0849 51.3379ZM45.2541 53.9668C45.2541 53.4682 45.6021 53.1207 46.1014 53.1207C46.6007 53.1207 47.0546 53.4984 46.9336 53.9517C46.8428 54.284 46.4797 54.6617 46.1468 54.7977C45.7837 54.9337 45.2541 54.3596 45.2541 53.9668ZM45.2541 74.9975C45.2541 74.5442 45.708 74.0608 46.1317 74.0608C46.5099 74.0608 46.9487 74.5745 46.9638 75.1939C46.9487 75.5565 46.7066 75.8436 46.162 75.8436C45.6021 75.8436 45.2541 75.5263 45.2541 74.9975ZM45.5416 77.5206C45.6475 77.2788 45.8896 77.022 46.1317 76.9465C46.2679 76.9011 46.6764 77.2637 46.6612 77.3997C46.631 77.6263 46.3738 77.8379 46.0712 78.2307C45.7837 77.8681 45.4962 77.6112 45.5416 77.5206ZM47.0849 72.3535C47.1 72.7464 46.5553 73.2903 46.1317 73.3054C45.6626 73.3205 45.2541 72.8672 45.2541 72.3989C45.2239 71.7341 45.6324 71.5377 46.0863 71.4319C46.4494 71.3564 47.0698 71.9607 47.0849 72.3535ZM45.2844 69.7096C45.4054 69.3772 45.7988 69.0297 46.1317 68.924C46.5705 68.788 46.9638 69.3168 46.9638 69.8305C46.9487 70.2686 46.5099 70.7067 46.0863 70.6916C45.6324 70.6614 45.118 70.1477 45.2844 69.7096ZM46.1014 66.2649C46.5553 66.2649 46.9638 66.6577 46.9638 67.111C46.9638 67.5642 46.5251 68.0779 46.1166 67.9419C45.7837 67.8211 45.4357 67.4736 45.2693 67.1412C45.118 66.8088 45.6929 66.2649 46.1014 66.2649ZM46.9638 64.2857C46.9336 65.026 46.5251 65.4642 46.0863 65.3131C45.7534 65.1922 45.4206 64.8145 45.2844 64.4821C45.1482 64.1649 45.8291 63.5303 46.1468 63.6663C46.4948 63.8023 46.7672 64.1195 46.9638 64.2857ZM46.9033 61.8533C46.8428 62.1706 46.3889 62.4274 46.1166 62.7145C45.8291 62.4274 45.3601 62.1857 45.3147 61.8684C45.2693 61.5058 45.5265 61.0072 46.1014 61.1432C46.6764 61.0828 46.979 61.4756 46.9033 61.8533ZM46.1166 58.5144C46.5705 58.5144 46.8277 58.7712 46.8125 59.2396C46.7974 59.6928 46.631 60.0403 46.1166 59.9648C45.587 59.995 45.3601 59.7683 45.3752 59.2698C45.3903 58.7712 45.6324 58.5144 46.1166 58.5144ZM45.3903 56.5654C45.4206 56.1272 45.587 55.8553 46.1166 55.8704C46.5856 55.8855 46.8579 56.0366 46.8428 56.7014C46.7974 57.0035 46.6007 57.351 46.1014 57.3208C45.6475 57.2906 45.3601 57.0337 45.3903 56.5654ZM44.4522 51.2624C44.4371 51.7761 43.9076 52.3351 43.4537 52.3351C43.0754 52.3351 42.4853 51.7458 42.4702 51.3681C42.4702 51.0207 43.1813 50.235 43.4839 50.2501C43.8773 50.2652 44.4674 50.8998 44.4522 51.2624ZM42.5005 66.9448C42.8182 66.7182 43.1057 66.4009 43.4688 66.28C43.8319 66.1591 44.4522 66.7786 44.3009 67.1261C44.1496 67.4585 43.8017 67.8211 43.4537 67.9268C43.0452 68.0628 42.6064 67.5491 42.5005 66.9448ZM42.6518 72.3384C42.8182 72.006 43.1662 71.6435 43.5142 71.5528C43.9832 71.4319 44.3463 71.8852 44.3312 72.4744C44.2253 72.8219 44.1345 73.2449 43.5444 73.2298C43.1057 73.2147 42.4853 72.6708 42.6518 72.3384ZM42.7425 75.073C42.7728 74.6047 42.8938 74.2119 43.4385 74.1514C43.8168 74.1061 44.4069 74.6651 44.3009 75.0277C44.2102 75.3299 43.9378 75.5716 43.7411 75.8284C43.257 75.5716 42.6972 75.7227 42.7425 75.073ZM44.3312 69.4981C44.3312 70.2233 43.9681 70.5859 43.4839 70.5859C43.0905 70.5859 42.5156 70.042 42.6669 69.6945C42.8031 69.3621 43.2116 68.9542 43.5293 68.924C43.8017 68.924 44.1345 69.3621 44.3312 69.4981ZM42.6215 53.9668C42.6215 53.4682 42.9695 53.1207 43.4688 53.1207C43.9681 53.1207 44.3161 53.4531 44.3312 54.1934C44.1345 54.3445 43.8622 54.6617 43.499 54.7977C43.1813 54.9337 42.6215 54.3596 42.6215 53.9668ZM44.2858 64.467C44.4371 64.9203 43.9983 65.3131 43.499 65.3433C42.9998 65.3584 42.6366 65.026 42.6215 64.5275C42.6064 64.1346 43.1208 63.5303 43.4688 63.6663C43.8017 63.8023 44.1799 64.1346 44.2858 64.467ZM44.2707 61.8835C44.3009 62.1706 43.8622 62.518 43.6201 62.8353C43.5142 62.8353 43.4083 62.8353 43.3024 62.8353C43.0754 62.518 42.6366 62.1555 42.682 61.8684C42.7274 61.5511 43.1964 61.2943 43.4839 61.0223C43.7563 61.2943 44.2404 61.5662 44.2707 61.8835ZM43.4688 58.5144C44.074 58.4539 44.1496 58.8467 44.195 59.2849C44.2404 59.7834 43.8773 60.0554 43.499 60.0403C43.0905 60.0252 42.682 59.8288 42.7274 59.2244C42.7728 58.6957 42.9695 58.4539 43.4688 58.5144ZM42.7879 56.6107C42.8636 56.3237 43.2116 55.9913 43.499 55.9157C43.9378 55.81 44.1799 56.1575 44.195 56.6863C44.1194 57.0337 43.9076 57.3359 43.4385 57.3359C42.9846 57.3208 42.6669 57.0337 42.7879 56.6107ZM41.8196 51.353C41.8196 51.7307 41.3203 52.1991 40.9118 52.1991C40.4579 52.1991 39.9737 51.7458 39.9737 51.3228C39.9889 50.8545 40.3974 50.3861 40.8513 50.371C41.2295 50.371 41.8347 50.9753 41.8196 51.353ZM41.6834 61.8835C41.6532 62.3519 41.3657 62.654 40.9723 62.7145C40.4125 62.7296 39.8981 62.3216 40.0191 61.9137C40.125 61.5662 40.473 61.2187 40.8059 61.0525C41.1085 60.8712 41.7137 61.4756 41.6834 61.8835ZM40.125 54.0272C40.125 53.4682 40.5033 53.0149 40.9572 53.166C41.2598 53.2718 41.6078 53.6797 41.6834 53.997C41.7894 54.5258 41.2598 54.7524 40.8513 54.7524C40.4428 54.7675 40.004 54.556 40.125 54.0272ZM40.8513 57.3208C40.3217 57.351 40.0948 57.1244 40.1099 56.6258C40.125 56.1424 40.3671 55.8704 40.8513 55.8855C41.3052 55.9006 41.5624 56.1424 41.5473 56.6107C41.5473 57.064 41.3657 57.4115 40.8513 57.3208ZM41.638 59.2849C41.5927 59.587 41.1236 60.0252 40.8362 60.0252C40.5638 60.0252 40.0796 59.5719 40.0494 59.2698C40.004 58.9223 40.2007 58.3633 40.821 58.5144C41.4716 58.3935 41.6834 58.9223 41.638 59.2849ZM39.9889 64.5275C40.004 63.9684 40.3369 63.6058 40.8664 63.6361C41.4111 63.6663 41.6834 63.9684 41.6986 64.5123C41.7137 65.0411 41.4111 65.3433 40.8513 65.3433C40.2763 65.3433 39.9737 65.0562 39.9889 64.5275ZM39.9889 67.1412C39.9737 66.6275 40.3066 66.28 40.821 66.2649C41.3354 66.2498 41.6834 66.5822 41.6986 67.0959C41.7137 67.6095 41.3808 67.957 40.8664 67.9721C40.3671 67.9872 40.004 67.6398 39.9889 67.1412ZM40.0494 69.6945C40.0191 69.4074 40.473 69.075 40.7 68.7729C40.8059 68.7729 40.8967 68.7729 41.0026 68.7729C41.2295 69.0901 41.5473 69.3772 41.6683 69.7398C41.7893 70.0873 41.1236 70.7218 40.821 70.5708C40.4882 70.3895 40.0796 70.0118 40.0494 69.6945ZM40.125 72.3233C40.1553 71.8399 40.3974 71.6283 40.9269 71.6283C41.5019 71.6435 41.6532 72.0665 41.6532 72.414C41.6532 72.7917 41.396 73.1392 40.8664 73.0938C40.4276 73.0183 40.0948 72.8219 40.125 72.3233ZM40.473 74.5442C40.5487 74.3932 41.0328 74.2572 41.0631 74.3025C41.2749 74.5896 41.396 74.9371 41.5624 75.2543C41.4867 75.3601 41.4111 75.4507 41.3354 75.5565C41.0631 75.4507 40.7302 75.4205 40.5487 75.2241C40.4125 75.1032 40.3823 74.7255 40.473 74.5442ZM39.187 69.6189C39.187 69.7247 39.187 69.8305 39.1718 69.9362C38.839 70.1628 38.5515 70.465 38.1884 70.5708C37.8404 70.6765 37.2201 69.9966 37.3865 69.6794C37.5529 69.347 37.9614 68.9693 38.264 68.9542C38.5666 68.924 38.8844 69.3772 39.187 69.6189ZM39.1718 48.7091C39.0962 49.0717 38.7482 49.3587 38.612 49.5703C37.8858 49.6005 37.2806 49.1321 37.4319 48.7393C37.568 48.3767 37.916 47.9537 38.264 47.8177C38.7179 47.6515 39.2777 48.2256 39.1718 48.7091ZM37.3865 59.2244C37.326 58.7561 37.7496 58.4237 38.2186 58.4237C38.7028 58.4237 39.0659 58.8165 39.0054 59.2547C38.96 59.587 38.5666 59.8892 38.3397 60.1914C38.2338 60.1914 38.1279 60.1914 38.022 60.1763C37.8101 59.8741 37.4319 59.5719 37.3865 59.2244ZM37.4924 51.3832C37.4621 50.8847 37.7345 50.6429 38.2338 50.6278C38.7028 50.6127 39.0205 50.8394 39.0357 51.2775C39.0508 51.6703 38.839 52.0329 38.3246 52.0782C37.9614 51.9876 37.5227 51.9271 37.4924 51.3832ZM38.2338 54.7071C37.7799 54.6769 37.4319 54.4502 37.5227 54.0121C37.5832 53.725 37.9312 53.3473 38.2035 53.2869C38.6272 53.1811 38.8692 53.5437 38.9449 53.9668C38.8692 54.3898 38.7785 54.7373 38.2338 54.7071ZM38.9449 56.6258C38.96 57.1848 38.612 57.351 38.2035 57.3963C37.795 57.4568 37.3411 56.9733 37.4167 56.5654C37.4924 56.1575 37.6588 55.7646 38.1884 55.8704C38.7633 55.8402 38.9298 56.1272 38.9449 56.6258ZM37.3562 61.9439C37.3411 61.3849 37.6588 61.0223 38.1884 61.0072C38.5818 60.9921 39.0962 61.4605 39.0659 61.8533C39.0205 62.3216 38.8541 62.7447 38.2489 62.7145C37.6891 62.7447 37.3714 62.4878 37.3562 61.9439ZM38.2338 66.2649C38.7331 66.28 39.0811 66.6426 39.0659 67.1412C39.0508 67.6398 38.6877 67.9872 38.1884 67.9721C37.6891 67.957 37.3411 67.5944 37.3562 67.0959C37.3714 66.5822 37.7345 66.2498 38.2338 66.2649ZM37.3562 64.4066C37.3562 63.8325 37.7496 63.6814 38.2035 63.6361C38.6877 63.5907 39.1718 64.0289 39.1718 64.467C39.1718 64.9052 38.7179 65.3282 38.2338 65.3282C37.6588 65.3433 37.3562 65.0109 37.3562 64.4066ZM37.4924 72.2931C37.5227 71.9003 37.6588 71.5679 38.143 71.6434C38.6877 71.6283 38.9298 72.006 38.8844 72.3686C38.8541 72.6255 38.4607 72.9881 38.2035 73.0183C37.8253 73.0636 37.4621 72.7615 37.4924 72.2931ZM37.7647 75.0579C37.9312 74.8917 38.0673 74.6047 38.2489 74.5745C38.4305 74.5442 38.6574 74.7709 39.0357 74.9673C38.6725 75.209 38.4759 75.4205 38.2792 75.4205C38.1127 75.4205 37.9312 75.1788 37.7647 75.0579ZM36.5695 45.9896C36.5543 46.4277 35.9945 47.0019 35.6011 46.9263C35.1321 46.8357 34.7539 46.5788 34.7387 46.0349C34.7236 45.5666 35.2229 45.1133 35.7222 45.1133C36.1156 45.1133 36.5846 45.5968 36.5695 45.9896ZM34.6782 48.7091C35.1472 48.3767 35.465 47.999 35.6768 48.0443C35.934 48.1048 36.2366 48.5278 36.2517 48.7997C36.2669 48.981 35.8281 49.3285 35.5709 49.3587C35.3591 49.389 35.1018 49.0415 34.6782 48.7091ZM36.3728 56.6409C36.3728 56.9582 35.9491 57.2604 35.7373 57.5474C35.1321 57.3359 34.7387 57.1697 34.7387 56.6409C34.7387 56.1877 35.3137 55.6136 35.6768 55.7949C35.9794 55.9459 36.3728 56.3539 36.3728 56.6409ZM35.6314 52.0178C35.3591 51.9876 34.9354 51.6401 34.9203 51.3984C34.89 51.1264 35.2531 50.8242 35.4347 50.5221C35.5406 50.5221 35.6314 50.5221 35.7373 50.5221C35.934 50.8091 36.2517 51.0962 36.2669 51.3984C36.2669 51.625 35.8281 52.048 35.6314 52.0178ZM36.3123 54.0121C36.3576 54.5107 36.0096 54.7977 35.6465 54.7826C35.2531 54.7675 34.7539 54.6013 34.8749 54.0272C34.8295 53.4682 35.0716 53.2567 35.6011 53.2567C36.161 53.2265 36.2669 53.5739 36.3123 54.0121ZM34.6479 59.2698C34.6177 58.8165 35.0565 58.3935 35.5557 58.3784C36.0399 58.3633 36.4182 58.7561 36.4333 59.2849C36.4333 59.6928 35.9945 60.1914 35.6163 60.2216C35.2078 60.2367 34.6631 59.7079 34.6479 59.2698ZM34.6328 61.8533C34.6479 61.4 35.1624 60.9015 35.6011 60.9166C36.055 60.9317 36.4484 61.3698 36.4333 61.8835C36.4333 62.3519 35.9643 62.8504 35.5557 62.8353C35.1624 62.8202 34.6177 62.2612 34.6328 61.8533ZM34.6328 64.4972C34.6328 64.0591 35.1472 63.5303 35.586 63.5303C36.0248 63.5303 36.4484 63.9987 36.4484 64.4821C36.4484 64.9807 35.9945 65.4642 35.5255 65.4491C35.1624 65.4491 34.6328 64.8749 34.6328 64.4972ZM34.7236 67.111C34.7236 66.6124 35.0867 66.2498 35.586 66.2498C36.0853 66.2498 36.4333 66.6124 36.4333 67.111C36.4333 67.6095 36.0853 67.957 35.586 67.957C35.0867 67.957 34.7236 67.6095 34.7236 67.111ZM34.7538 69.6643C34.8749 69.347 35.3137 68.9089 35.5709 68.9391C35.8886 68.9693 36.3274 69.3923 36.3879 69.7247C36.4636 70.1024 36.1609 70.5103 35.6163 70.465C35.0867 70.4499 34.6025 70.0571 34.7538 69.6643ZM34.9052 72.3082C34.9354 72.0363 35.2683 71.7794 35.465 71.5226C35.5557 71.5226 35.6617 71.5377 35.7524 71.5377C35.934 71.8096 36.282 72.0967 36.2517 72.3535C36.2215 72.6104 35.8432 72.973 35.586 73.0183C35.1624 73.0938 34.8598 72.701 34.9052 72.3082ZM35.238 74.9068C35.2531 74.7406 35.4801 74.5896 35.6163 74.4385C35.7524 74.5745 36.0096 74.7104 36.0248 74.8464C36.0399 75.0126 35.8432 75.1939 35.6617 75.5112C35.4347 75.2241 35.2078 75.0579 35.238 74.9068ZM34.073 43.5421C34.1184 43.6327 33.5283 44.1615 33.1652 44.2824C32.7415 44.4334 32.3179 44.237 32.1212 43.7536C31.7884 42.9528 32.5146 42.7111 33.029 42.0917C33.4224 42.6053 33.8309 43.0435 34.073 43.5421ZM33.8007 56.6711C33.8007 57.0791 33.3467 57.5776 32.9685 57.5927C32.5297 57.6079 32.091 57.1546 32.091 56.6711C32.091 56.097 32.4238 55.7495 32.9534 55.7495C33.4829 55.7495 33.8007 56.097 33.8007 56.6711ZM33.7401 54.0121C33.6947 54.3143 33.1955 54.7826 32.9231 54.7675C32.6356 54.7524 32.1969 54.284 32.1515 53.9517C32.091 53.5739 32.4087 53.1811 32.9685 53.2567C33.5586 53.1358 33.8007 53.6646 33.7401 54.0121ZM33.0139 45.3853C33.5586 45.2493 33.5888 45.7328 33.6494 46.05C33.7099 46.4731 33.377 46.8054 32.9988 46.7299C32.7264 46.6846 32.3633 46.322 32.3179 46.05C32.2725 45.7328 32.4843 45.3248 33.0139 45.3853ZM33.0441 49.4192C32.9534 49.4041 32.8626 49.4041 32.7718 49.389C32.6356 49.1623 32.3482 48.9055 32.3936 48.7242C32.4541 48.4825 32.7718 48.3163 32.9685 48.1199C33.1501 48.3314 33.4829 48.5278 33.4981 48.7544C33.5132 48.9659 33.2106 49.2077 33.0441 49.4192ZM33.6342 51.3984C33.604 51.6703 33.2711 51.8969 32.9836 52.2595C32.6659 51.912 32.3028 51.7005 32.2725 51.4437C32.2423 51.0811 32.4843 50.6883 32.9382 50.6732C33.3921 50.6581 33.6645 51.0055 33.6342 51.3984ZM31.9699 59.2396C31.9699 58.8165 32.56 58.2424 32.9836 58.2575C33.3619 58.2726 33.9368 58.8618 33.952 59.2396C33.9671 59.7532 33.498 60.2216 32.9685 60.2216C32.4238 60.2216 31.9548 59.7532 31.9699 59.2396ZM31.8943 61.9137C31.8791 61.5511 32.5449 60.8864 32.9534 60.8864C33.5132 60.8864 33.952 61.3547 33.9368 61.9439C33.9368 62.3821 33.3619 62.9562 32.9382 62.9411C32.5297 62.926 31.9094 62.3065 31.8943 61.9137ZM31.9699 64.4972C31.9699 64.0742 32.5449 63.5001 32.9685 63.5001C33.498 63.5001 33.952 63.9835 33.9368 64.5123C33.9217 65.0109 33.4073 65.4944 32.9231 65.4642C32.4087 65.4339 31.9699 64.9958 31.9699 64.4972ZM32.0002 67.1261C31.985 66.7182 32.5297 66.144 32.9382 66.1289C33.3468 66.1138 33.8914 66.6728 33.9066 67.0959C33.9217 67.534 33.4678 67.957 32.9685 67.9721C32.4692 67.9721 32.0153 67.5793 32.0002 67.1261ZM32.1212 69.7247C32.2876 69.3923 32.6205 69.0448 32.9534 68.9089C33.2862 68.7729 33.8158 69.3621 33.9066 69.9211C33.5888 70.1326 33.2862 70.4197 32.9231 70.5254C32.5751 70.6312 31.985 70.0269 32.1212 69.7247ZM32.3784 72.3686C32.4389 72.1118 32.7415 71.7794 32.9836 71.719C33.3921 71.6283 33.6191 72.0061 33.604 72.3535C33.5888 72.5953 33.3316 72.8068 33.1803 73.0334C32.6205 72.973 32.2876 72.7917 32.3784 72.3686ZM32.5751 75.0277C32.5751 74.9219 32.8172 74.6953 32.9382 74.6953C33.0744 74.6953 33.3316 74.9068 33.3316 75.0126C33.3316 75.1788 33.1349 75.345 32.9534 75.6169C32.7718 75.345 32.5902 75.1939 32.5751 75.0277ZM31.5463 61.672C31.4555 62.2008 30.6233 63.0922 30.3359 62.9411C29.8971 62.6994 29.5794 62.2612 29.2011 61.8986C29.5794 61.5209 29.9122 60.8864 30.3359 60.8259C30.6839 60.7655 31.1378 61.3698 31.5463 61.672ZM31.3042 59.3151C31.3042 59.723 30.6233 60.4784 30.3359 60.3122C29.9122 60.0705 29.5188 59.6626 29.2768 59.2396C29.1254 58.9676 29.9425 58.2424 30.3359 58.2424C30.8805 58.2575 31.3193 58.7259 31.3042 59.3151ZM31.2891 56.6711C31.2891 57.1546 30.8049 57.5928 30.3056 57.5776C29.7912 57.5625 29.3221 57.1093 29.3524 56.6258C29.3675 56.1424 29.8366 55.7344 30.3359 55.7344C30.8352 55.7495 31.3042 56.2028 31.2891 56.6711ZM31.168 54.0272C31.168 54.4653 30.7595 54.843 30.3359 54.8279C29.6853 54.8582 29.4129 54.42 29.5037 53.9819C29.5642 53.6495 29.9727 53.302 30.3056 53.1509C30.6233 53.0149 31.168 53.6193 31.168 54.0272ZM31.1529 46.186C30.7595 46.4277 30.5174 46.6997 30.351 46.6544C30.1089 46.5939 29.9273 46.2918 29.7307 46.0954C29.9273 45.899 30.1392 45.5515 30.3359 45.5515C30.5628 45.5515 30.7898 45.8838 31.1529 46.186ZM30.3207 49.3738C30.1089 49.3587 29.7912 48.9961 29.776 48.7846C29.7609 48.5731 30.0635 48.2256 30.2905 48.1652C30.699 48.0443 30.9108 48.3465 30.9259 48.8451C31.0318 49.2681 30.6082 49.4041 30.3207 49.3738ZM31.0167 51.489C30.9108 51.761 30.6082 51.9423 30.2299 52.3351C29.9576 51.8818 29.6701 51.625 29.6399 51.3228C29.5945 50.8998 29.9727 50.7034 30.351 50.6581C30.6687 50.6278 31.1529 51.1868 31.0167 51.489ZM31.1529 43.391C31.1983 43.8593 30.8654 44.1615 30.3964 44.1766C29.9273 44.1917 29.6096 43.8744 29.6096 43.4061C29.6096 43.0133 29.8063 42.6507 30.2451 42.6053C30.82 42.6205 31.1075 42.9377 31.1529 43.391ZM29.2465 64.5123C29.2465 64.18 30.0333 63.4094 30.3661 63.4245C30.7898 63.4397 31.3042 63.9836 31.3042 64.4066C31.3042 64.9958 30.8654 65.4642 30.3207 65.4642C29.8366 65.4642 29.2465 64.9505 29.2465 64.5123ZM29.3675 67.111C29.3675 66.703 29.9122 66.144 30.3207 66.1289C30.7292 66.1138 31.3193 66.7333 31.3042 67.1261C31.2891 67.534 30.7746 67.957 30.3207 67.957C29.8366 67.957 29.3675 67.5491 29.3675 67.111ZM29.4886 69.7247C29.6247 69.3772 29.9425 69.0901 30.1694 68.7729C30.2753 68.7729 30.3813 68.7729 30.4872 68.7729C30.7141 69.0901 31.0924 69.3923 31.1378 69.7247C31.1983 70.1931 30.7746 70.4801 30.3056 70.5405C29.9273 70.601 29.3675 70.042 29.4886 69.7247ZM29.8366 72.3082C29.9122 72.0967 30.1997 71.9456 30.3964 71.7794C30.5628 71.9909 30.8352 72.1873 30.8654 72.414C30.8805 72.565 30.5477 72.7615 30.2148 73.0636C30.0181 72.701 29.776 72.4442 29.8366 72.3082ZM29.9273 74.8313C29.9273 74.786 30.2602 74.65 30.4115 74.6953C30.5477 74.7255 30.7746 74.9824 30.7444 75.0579C30.6536 75.2845 30.472 75.4507 30.3207 75.6471C30.2451 75.632 30.1846 75.6169 30.1089 75.6018C30.0484 75.345 29.9576 75.0881 29.9273 74.8313ZM28.9136 62.0497C28.5051 62.3519 28.0966 62.926 27.7032 62.8958C27.3098 62.8655 26.8862 62.3216 26.5836 61.9137C26.4323 61.7173 27.4006 60.7353 27.7032 60.7353C28.0815 60.7504 28.7926 61.5058 28.9136 62.0497ZM28.7472 59.2396C28.5354 59.6777 28.0966 60.0705 27.673 60.3122C27.3855 60.4784 26.6139 59.6475 26.6139 59.2547C26.6139 58.8467 27.3098 58.2273 27.7637 58.2424C28.2025 58.2575 28.9136 58.8921 28.7472 59.2396ZM28.6716 56.7467C28.6564 57.1244 28.0663 57.6834 27.673 57.6834C27.2342 57.6683 26.6895 57.0942 26.7046 56.656C26.7046 56.1877 27.2947 55.5985 27.7335 55.6287C28.1874 55.6589 28.6867 56.2481 28.6716 56.7467ZM28.5505 40.8981C28.5354 41.2607 28.2933 41.5478 27.7637 41.5629C27.2947 41.578 27.0375 41.3211 26.977 40.883C26.9165 40.3995 27.2796 40.0067 27.7789 39.9916C28.1874 39.9614 28.5354 40.3089 28.5505 40.8981ZM27.098 43.4363C27.2947 43.255 27.4611 42.9679 27.7032 42.9075C28.0361 42.832 28.3538 42.983 28.3841 43.5874C28.1571 43.7385 27.8999 44.0557 27.7032 44.0104C27.4763 43.9802 27.3098 43.6327 27.098 43.4363ZM27.7184 47.8479C28.021 48.2709 28.3084 48.4976 28.3387 48.7393C28.3841 49.1321 28.0512 49.4494 27.673 49.3738C27.4157 49.3134 27.0678 48.981 27.0526 48.7393C27.0375 48.5278 27.3855 48.2709 27.7184 47.8479ZM27.098 46.186C27.2796 45.9594 27.4309 45.6119 27.6578 45.5515C27.8545 45.5061 28.1269 45.8083 28.2933 45.9141C28.2479 46.4428 28.1723 46.7903 27.7335 46.6695C27.4914 46.609 27.3098 46.3522 27.098 46.186ZM26.8711 51.3379C26.9165 50.9149 27.1737 50.6429 27.6276 50.6278C28.142 50.6127 28.3387 50.93 28.4143 51.3681C28.4597 51.912 28.0966 52.1084 27.673 52.184C27.325 52.2444 26.8257 51.7156 26.8711 51.3379ZM27.6881 53.1207C28.1723 53.1207 28.5505 53.5286 28.5354 54.0574C28.5354 54.4653 28.0512 54.9639 27.673 54.9639C27.2947 54.9639 26.8257 54.4653 26.8257 54.0574C26.8257 53.4682 27.1585 53.1207 27.6881 53.1207ZM26.629 64.5275C26.6139 64.1951 27.3855 63.4094 27.7335 63.4245C28.1269 63.4397 28.7472 64.0591 28.7623 64.467C28.7775 64.9052 28.2328 65.4642 27.7789 65.4793C27.2191 65.4793 26.6441 65.0109 26.629 64.5275ZM26.8257 67.0656C26.8257 66.5671 27.2191 66.144 27.673 66.1289C28.0663 66.1289 28.611 66.6728 28.6262 67.0959C28.6413 67.534 28.1874 67.957 27.7032 67.9721C27.2191 67.9721 26.8408 67.5793 26.8257 67.0656ZM26.977 69.6643C27.0224 69.2261 27.3401 68.9391 27.7789 69.0297C28.0815 69.1053 28.3387 69.3621 28.611 69.5283C28.611 69.6189 28.611 69.7096 28.611 69.8154C28.2933 70.0118 27.9907 70.3441 27.6578 70.3895C27.2796 70.4348 26.9316 70.1326 26.977 69.6643ZM27.0829 75.1184C27.3401 74.8766 27.5065 74.6349 27.7032 74.6047C27.8091 74.5745 28.1269 74.9068 28.1117 75.0428C28.0815 75.2392 27.8696 75.4961 27.673 75.5565C27.567 75.5867 27.3401 75.3148 27.0829 75.1184ZM26.281 62.0799C25.8876 62.367 25.5245 62.7749 25.0857 62.926C24.6923 63.0619 23.9661 62.2461 23.9963 61.8382C24.0266 61.5209 24.8134 60.7806 25.1008 60.7806C25.5245 60.8108 26.1902 61.5209 26.281 62.0799ZM26.1297 59.2547C25.9481 59.7079 25.5245 60.0705 25.2068 60.4633C24.6772 60.3425 23.9812 59.6324 23.9812 59.2547C23.9812 58.9223 24.768 58.1518 25.1008 58.182C25.5245 58.1971 26.281 58.9072 26.1297 59.2547ZM26.0389 56.5956C26.0389 57.1093 25.4186 57.8496 25.0101 57.6834C24.6318 57.5323 24.2384 57.1244 24.1023 56.7316C23.951 56.2481 24.6015 55.6287 25.116 55.6287C25.585 55.6136 26.0389 56.097 26.0389 56.5956ZM26.0389 35.5649C26.054 36.0937 25.706 36.4563 25.237 36.4412C24.8285 36.4261 24.2687 35.9426 24.3443 35.58C24.42 35.1872 24.4956 34.7037 25.116 34.7339C25.706 34.749 26.0389 35.0361 26.0389 35.5649ZM26.0389 32.9814C26.0389 33.5404 25.7212 33.8123 25.1311 33.8123C24.6016 33.8123 24.2536 33.5857 24.193 33.0418C24.1476 32.513 24.6015 32.1051 25.1614 32.1051C25.7666 32.1051 26.054 32.3921 26.0389 32.9814ZM24.42 38.1937C24.4502 37.9067 24.7982 37.6498 24.9042 37.529C25.7212 37.4383 25.8876 37.8916 25.8573 38.2239C25.8422 38.4808 25.464 38.8585 25.1916 38.9038C24.7529 38.9794 24.3746 38.6168 24.42 38.1937ZM25.7212 48.7695C25.6909 49.0112 25.3127 49.389 25.0706 49.389C24.8285 49.389 24.4049 49.0415 24.3897 48.8148C24.3746 48.5731 24.7226 48.2861 24.9042 48.0292C25.0101 48.0292 25.1008 48.0292 25.2068 48.0292C25.4034 48.2709 25.7514 48.5429 25.7212 48.7695ZM25.7666 46.05C25.7514 46.1558 25.7514 46.2615 25.7363 46.3673C25.5245 46.4731 25.3127 46.6544 25.1008 46.6846C24.6772 46.745 24.3897 46.4731 24.4956 46.0802C24.5562 45.8536 24.9042 45.5666 25.1311 45.5666C25.3278 45.5364 25.5547 45.8687 25.7666 46.05ZM24.9949 42.8169C25.1008 42.832 25.2219 42.8471 25.3278 42.8471C25.4034 43.1341 25.5245 43.4212 25.5094 43.7082C25.5094 43.8291 25.1765 44.0406 25.0555 44.0104C24.8436 43.95 24.4805 43.6931 24.5108 43.5874C24.6015 43.3305 24.8285 43.0888 24.9949 42.8169ZM24.5108 40.8226C24.5108 40.6413 24.9042 40.2938 25.1008 40.3089C25.3127 40.324 25.6607 40.6413 25.6909 40.8528C25.7212 41.0492 25.4034 41.306 25.1311 41.6837C24.8436 41.2909 24.5259 41.0492 24.5108 40.8226ZM24.2082 51.353C24.1779 50.794 24.6469 50.5825 25.0555 50.5523C25.5245 50.507 25.8271 50.8998 25.8876 51.3681C25.933 51.7307 25.3883 52.1991 24.9647 52.1991C24.42 52.184 24.2384 51.8063 24.2082 51.353ZM25.1462 53.0754C25.6304 53.1509 26.0843 53.6948 26.0238 54.1027C25.9481 54.5862 25.4488 54.9941 25.0403 54.9488C24.4956 54.8884 24.0417 54.4049 24.0871 53.9214C24.1174 53.4531 24.6772 53.0149 25.1462 53.0754ZM23.5122 59.2396C23.5122 59.6928 22.9221 60.2216 22.4077 60.2216C21.8781 60.2216 21.4394 59.7683 21.4394 59.2396C21.4394 58.7712 21.9992 58.2424 22.4985 58.2575C22.9372 58.2424 23.5122 58.8165 23.5122 59.2396ZM23.4063 56.6711C23.4063 57.1093 22.8162 57.6985 22.4228 57.6834C21.984 57.6532 21.4545 57.0942 21.4394 56.6258C21.4242 56.1877 22.0294 55.6136 22.4985 55.6136C22.9826 55.6287 23.4214 56.1121 23.4063 56.6711ZM23.4063 54.0121C23.3911 54.5258 22.8767 54.9941 22.3774 54.9639C21.863 54.9337 21.4091 54.4502 21.4394 53.997C21.4847 53.4984 21.9992 53.0149 22.4531 53.0452C22.9221 53.0754 23.4214 53.5891 23.4063 54.0121ZM23.2852 51.4437C23.2701 51.8516 22.7859 52.3502 22.4077 52.3351C21.9992 52.32 21.4696 51.761 21.4696 51.3379C21.4847 50.9149 21.9235 50.4919 22.3774 50.4919C22.9675 50.507 23.3004 50.8394 23.2852 51.4437ZM23.2701 30.4281C22.9372 30.6547 22.7557 30.8209 22.5287 30.8813C22.4531 30.8964 22.1807 30.6094 22.211 30.5187C22.2715 30.3072 22.4531 30.1259 22.5741 29.9144C22.7708 30.0504 22.9524 30.2014 23.2701 30.4281ZM23.1793 27.6633C23.2096 27.8143 22.9221 28.0561 22.6346 28.4338C22.3623 28.0863 22.09 27.8597 22.1202 27.7237C22.1807 27.4971 22.4379 27.3158 22.6195 27.1194C22.8313 27.3007 23.1339 27.4517 23.1793 27.6633ZM22.1202 33.1778C22.1959 33.0267 22.2261 32.8001 22.332 32.7547C22.4985 32.6792 22.8011 32.649 22.8918 32.7396C23.0129 32.8756 23.0129 33.1476 23.1037 33.5555C22.6346 33.3893 22.3774 33.2835 22.1202 33.1778ZM22.0446 40.8679C22.0597 40.7017 22.3169 40.5506 22.4682 40.3995C22.6044 40.5657 22.8162 40.7168 22.8616 40.9132C22.8919 41.0341 22.68 41.2154 22.5136 41.4873C22.2715 41.2003 22.0294 41.019 22.0446 40.8679ZM21.7722 43.4665C21.9992 43.2852 22.211 43.0133 22.4682 42.9679C22.6044 42.9377 22.907 43.2399 22.9826 43.4363C23.028 43.5572 22.7859 43.9349 22.6498 43.95C22.3926 43.9802 22.1051 43.8291 21.8327 43.7536C21.8176 43.6629 21.7873 43.5572 21.7722 43.4665ZM21.7571 46.186C21.8025 45.9292 22.1656 45.627 22.4531 45.5363C22.8465 45.4155 23.1339 45.763 23.0885 46.1105C23.0583 46.3975 22.7708 46.6544 22.6044 46.9414C22.4985 46.9414 22.3926 46.9565 22.2866 46.9565C22.09 46.6846 21.7117 46.3975 21.7571 46.186ZM21.4847 48.7393C21.5755 48.3163 21.8176 47.999 22.3623 47.9839C22.9524 47.9688 23.1037 48.2861 23.1491 48.7846C23.1188 49.2681 22.8767 49.5703 22.3472 49.5703C21.9387 49.5854 21.394 49.117 21.4847 48.7393ZM21.4394 61.8684C21.4394 61.4151 22.0294 60.8712 22.5136 60.8712C22.9978 60.8864 23.4063 61.3396 23.4063 61.8684C23.4063 62.3972 22.9372 62.8504 22.4077 62.8353C22.0294 62.8353 21.4545 62.2461 21.4394 61.8684ZM21.5755 64.4519C21.6058 63.9231 21.9235 63.621 22.4077 63.5454C22.8162 63.485 23.376 64.0893 23.3609 64.4972C23.3458 64.9203 22.8918 65.3433 22.4531 65.3282C21.9084 65.3282 21.5453 64.9807 21.5755 64.4519ZM22.3472 67.7455C22.211 67.5642 21.9084 67.3376 21.863 67.0656C21.7874 66.6577 22.1202 66.3556 22.5287 66.4311C22.7557 66.4764 23.0734 66.7484 23.1188 66.975C23.2096 67.3225 23.028 67.67 22.3472 67.7455ZM21.863 77.7321C21.9235 77.4752 22.211 77.0975 22.4228 77.0673C22.8465 77.022 23.1642 77.3695 23.1188 77.8076C23.1037 78.0343 22.8011 78.2458 22.6195 78.4573C22.0597 78.3515 21.7571 78.1551 21.863 77.7321ZM24.1174 64.4519C24.1325 63.9684 24.6469 63.485 25.1311 63.5001C25.585 63.5001 26.281 64.1497 26.1297 64.5426C25.9784 64.9354 25.6001 65.2375 25.4186 65.4642C24.6772 65.4642 24.1023 64.9203 24.1174 64.4519ZM24.2536 67.0808C24.2687 66.6426 24.7529 66.1289 25.1311 66.1289C25.5547 66.144 25.933 66.5671 26.0389 67.2016C25.7363 67.4434 25.464 67.7908 25.1008 67.9117C24.7226 68.0477 24.2233 67.5038 24.2536 67.0808ZM25.2068 70.1628C24.9647 70.0873 24.7075 69.8456 24.6469 69.6038C24.6015 69.483 24.9344 69.2412 25.2521 68.8786C25.4942 69.2866 25.7363 69.5132 25.7212 69.7247C25.706 69.8909 25.3278 70.1931 25.2068 70.1628ZM24.6167 75.0428C24.7529 74.9219 24.889 74.7104 25.0403 74.6953C25.2068 74.6802 25.4034 74.8464 25.7666 75.0126C25.4337 75.2543 25.2521 75.4658 25.1311 75.4356C24.9344 75.3752 24.7831 75.1788 24.6167 75.0428ZM24.2233 27.4668C24.3746 27.1194 24.9042 26.5906 25.0403 26.6359C25.5547 26.8625 25.9633 27.3007 26.4777 27.6935C25.8574 28.1769 25.6304 28.9475 24.7982 28.5244C24.3595 28.3129 24.0115 27.9654 24.2233 27.4668ZM26.0389 25.2459C25.8271 25.4121 25.6153 25.7294 25.4186 25.7294C25.116 25.7294 24.5864 25.7143 24.7528 25.1402C24.8134 24.9135 25.0403 24.7322 25.3127 24.3848C25.6304 24.7625 25.8422 25.0042 26.0389 25.2459ZM27.2644 22.602C27.2342 22.4962 27.5973 22.1336 27.6881 22.1638C27.9756 22.2696 28.2176 22.4962 28.6262 22.7833C28.2328 23.0552 27.9907 23.2214 27.7486 23.3725C27.5822 23.1157 27.3552 22.8739 27.2644 22.602ZM29.4734 22.738C29.4432 22.1941 29.8366 21.7408 30.3056 21.7408C30.9411 21.7408 31.3042 22.043 31.3042 22.5869C31.3042 22.9797 30.8049 23.5085 30.4115 23.4329C30.0181 23.3423 29.4886 23.3272 29.4734 22.738ZM31.0318 19.7012C30.8805 20.1847 30.9411 20.6832 30.2905 20.653C30.1392 20.653 29.9576 20.4566 29.882 20.2904C29.8063 20.1544 29.8214 19.958 29.8214 19.7918C29.8214 19.5652 29.776 19.1724 29.882 19.1271C30.124 19.0213 30.4569 19.0062 30.699 19.0969C30.8503 19.1724 30.9108 19.5048 31.0318 19.7012ZM31.8337 22.6775C31.9548 22.0128 32.4843 21.4991 33.0441 21.4689C33.4375 21.4538 34.194 22.1336 34.0276 22.4811C33.8007 22.9344 33.3619 23.448 32.908 23.584C32.6659 23.6596 32.1969 23.0099 31.8337 22.6775ZM33.9368 12.2377C33.6796 12.3737 33.4224 12.6305 33.1501 12.6456C32.5449 12.6758 32.3482 12.4492 32.2423 11.8147C32.4843 11.6183 32.8928 11.2103 32.9534 11.2557C33.3165 11.5276 33.6191 11.9053 33.9368 12.2377ZM33.4829 8.85345C33.2257 9.17072 33.029 9.41246 32.8323 9.65419C32.7415 9.51822 32.5449 9.35202 32.5751 9.26137C32.6962 8.95921 32.8928 8.67215 33.0593 8.38509C33.1652 8.49085 33.2711 8.61172 33.4829 8.85345ZM33.7553 19.9731C33.7855 20.1544 33.3165 20.5926 33.029 20.6379C32.7264 20.6832 32.2423 20.5473 32.2271 20.0034C32.212 19.5199 32.5902 18.9156 33.0895 18.7947C33.3316 19.1724 33.6645 19.5501 33.7553 19.9731ZM33.3316 15.0932C33.029 14.9874 32.7718 14.7457 32.4995 14.5493C32.6508 14.368 32.7869 14.2018 33.0744 13.8543C33.4073 14.2018 33.6494 14.3982 33.7855 14.6399C33.8007 14.7004 33.4224 15.1234 33.3316 15.0932ZM33.7704 17.3745C33.7401 17.6163 33.4224 17.8278 33.2257 18.0544C32.6054 17.9637 32.2876 17.7673 32.3633 17.2688C32.4087 16.9213 32.3179 16.4378 32.8626 16.3623C33.3316 16.3018 33.8612 16.8457 33.7704 17.3745ZM34.8144 6.48145C35.2834 6.14907 35.7978 5.93755 36.3879 6.14907C36.4484 6.96492 35.6919 7.53903 34.9505 7.28219C34.5572 7.116 34.4664 6.73829 34.8144 6.48145ZM36.0399 9.23116C36.0248 9.45778 36.0702 9.79016 35.9491 9.86571C35.7524 10.0017 35.3893 10.0621 35.1775 9.97146C34.9808 9.88081 34.9052 9.54843 34.7085 9.23116C34.9505 8.92899 35.117 8.61172 35.3893 8.43042C35.707 8.2189 36.0248 8.29444 36.0399 8.77791C36.0399 8.91388 36.055 9.08007 36.0399 9.23116ZM34.6025 11.996C34.6177 11.6334 35.2531 11.2255 35.813 11.2255C36.2366 11.1952 36.5543 11.3161 36.5543 11.8147C36.5543 12.2226 35.934 12.7967 35.4952 12.7967C35.1321 12.7967 34.6025 12.3284 34.6025 11.996ZM35.6011 15.4256C35.1775 15.4104 34.6933 14.927 34.7236 14.5342C34.769 13.9903 35.0716 13.7334 35.6163 13.7183C36.1609 13.7032 36.3728 14.0205 36.4333 14.3226C36.4333 14.9421 35.9794 15.4407 35.6011 15.4256ZM34.6631 17.2234C34.89 16.8608 35.2834 16.5285 35.6768 16.3774C36.0399 16.2414 36.5846 16.8457 36.5695 17.2234C36.5543 17.6011 36.0399 18.0544 35.6314 18.0544C35.2078 18.0544 34.4966 17.4803 34.6631 17.2234ZM34.7236 19.9127C34.7085 19.5048 35.1624 18.9911 35.5406 18.9609C36.0399 18.9307 36.5392 19.3839 36.5543 20.094C36.3123 20.2753 35.9945 20.6077 35.6011 20.7739C35.2683 20.925 34.7387 20.3357 34.7236 19.9127ZM37.099 11.86C37.7193 11.1046 38.1279 10.9535 38.6877 11.1801C39.1718 11.3765 39.2626 11.8298 39.1567 12.1924C39.0508 12.4945 38.6877 12.8269 38.3699 12.9176C37.7496 13.0687 37.4167 12.7363 37.099 11.86ZM38.2943 15.5464C37.8555 15.5615 37.2503 15.0327 37.2352 14.6097C37.2049 14.2471 37.7647 13.6428 38.1581 13.5974C38.5515 13.5521 39.1718 14.1262 39.2021 14.5493C39.2172 15.0176 38.7633 15.5313 38.2943 15.5464ZM37.2201 17.2385C37.2049 16.7853 37.6891 16.3472 38.2186 16.3472C38.7482 16.3472 39.2172 16.7702 39.187 17.2234C39.1567 17.6163 38.5666 18.1753 38.1884 18.1753C37.6891 18.1753 37.2352 17.7371 37.2201 17.2385ZM38.1884 18.8551C38.7331 18.8249 39.2021 19.2933 39.2021 19.8825C39.2021 20.2451 38.4305 21.1667 38.2338 21.0156C37.8404 20.7437 37.4621 20.3357 37.2806 19.8976C37.099 19.535 37.7496 18.8702 38.1884 18.8551ZM39.0357 9.53332C38.96 9.77506 38.6725 9.95635 38.5061 10.1377C37.9614 9.89592 37.2957 9.97146 37.4016 9.35202C37.447 9.06497 37.9009 8.7628 38.2489 8.62683C38.5364 8.50596 39.1416 9.20094 39.0357 9.53332ZM38.96 4.35118C38.8995 4.47205 38.839 4.59292 38.7785 4.71378C38.5515 4.60802 38.3246 4.51737 38.0976 4.41162C38.1581 4.27564 38.2186 4.13967 38.2792 4.00369C38.5061 4.12456 38.7331 4.23032 38.96 4.35118ZM37.8858 5.86201C38.612 5.77136 38.4153 6.58721 38.8238 6.81383C38.7179 6.96492 38.6423 7.20665 38.491 7.26708C37.7345 7.59946 37.4924 7.44838 37.4924 6.54188C37.5227 6.48145 37.6286 6.25483 37.7345 6.04331C37.7647 5.96777 37.8253 5.86201 37.8858 5.86201ZM39.8527 19.8825C39.8527 19.3839 40.4579 18.8249 40.9421 18.8551C41.3506 18.8853 41.9255 19.4444 41.9255 19.8372C41.9255 20.23 41.1993 20.9703 40.8059 20.9552C40.4125 20.925 39.8527 20.2904 39.8527 19.8825ZM41.9558 9.27648C41.8347 9.77506 41.2295 10.4096 40.8664 10.4247C40.5033 10.4398 39.9889 9.83549 39.9889 9.39735C39.9889 8.95921 40.5941 8.35488 41.048 8.50596C41.396 8.61172 41.6532 9.00453 41.9558 9.27648ZM41.7288 6.26994C41.6078 6.67786 41.5473 7.02535 41.4111 7.34262C41.3506 7.4786 41.1388 7.675 41.0328 7.6599C40.8059 7.61457 40.5033 7.50881 40.4125 7.32751C40.2612 7.02535 40.2612 6.64764 40.1704 6.25483C40.7605 5.6656 41.2598 5.68071 41.7288 6.26994ZM41.6532 4.04902C41.3354 4.33608 41.048 4.65335 40.7 4.89508C40.6395 4.94041 40.352 4.63824 40.2461 4.57781C40.2915 3.94326 40.4276 3.50512 40.9421 3.53534C41.1993 3.53534 41.4262 3.86772 41.6532 4.04902ZM39.8527 12.0262C39.8376 11.5125 40.3974 10.9535 40.9118 10.9535C41.4262 10.9535 41.8347 11.4068 41.8347 11.9658C41.8347 12.4492 41.2749 13.0233 40.821 13.0082C40.4125 13.0082 39.8678 12.4492 39.8527 12.0262ZM40.8815 15.5615C40.3217 15.5464 39.8678 15.1385 39.8527 14.6097C39.8376 14.1565 40.4276 13.5974 40.9118 13.5974C41.4111 13.5974 41.8196 14.0356 41.8196 14.5644C41.8347 15.1234 41.4111 15.5615 40.8815 15.5615ZM41.8347 17.1932C41.8347 17.6918 41.3808 18.1904 40.9118 18.1904C40.473 18.1904 39.8678 17.6314 39.8678 17.2234C39.8527 16.8457 40.4276 16.2565 40.821 16.2263C41.3354 16.1961 41.8196 16.6644 41.8347 17.1932ZM42.5156 11.8751C42.6669 11.4974 43.0754 10.9988 43.4234 10.9384C44.0891 10.8477 44.4069 11.4823 44.77 12.0715C44.195 12.3586 44.0135 13.2349 43.2116 12.9327C42.7728 12.7665 42.3038 12.4039 42.5156 11.8751ZM42.4853 19.8674C42.4702 19.4746 43.0451 19.0515 43.3478 18.6436C43.9076 18.7645 44.7246 19.5501 44.543 19.8825C44.3009 20.3357 43.8168 20.653 43.4385 21.0307C43.1057 20.653 42.5005 20.2753 42.4853 19.8674ZM43.5596 16.2112C44.0286 16.2263 44.4522 16.7098 44.4522 17.2083C44.4522 17.7069 43.9076 18.281 43.4537 18.2659C43.0452 18.2508 42.5005 17.6918 42.4853 17.2688C42.4702 16.8004 43.0754 16.1961 43.5596 16.2112ZM42.4853 14.6399C42.4853 14.1867 43.1208 13.5068 43.5142 13.5219C43.9076 13.537 44.6035 14.232 44.5884 14.6097C44.5733 15.0025 43.9378 15.5766 43.5293 15.5766C42.9544 15.5464 42.4853 15.1385 42.4853 14.6399ZM44.7397 9.47289C44.195 9.72973 44.0286 10.6664 43.1813 10.3038C42.7577 10.1225 42.3794 9.82038 42.5005 9.27648C42.6064 8.79302 42.9392 8.36999 43.4385 8.36999C44.0891 8.36999 44.4976 8.82323 44.7397 9.47289ZM44.4522 6.78362C44.4371 7.19154 43.8773 7.76565 43.4839 7.76565C43.0451 7.76565 42.5761 7.116 42.6064 6.52678C42.6366 5.96777 42.9998 5.81669 43.4839 5.8318C44.1496 5.8469 44.4674 6.16418 44.4522 6.78362ZM43.4839 4.91019C42.9998 4.98573 42.8182 4.66846 42.909 4.30586C42.9846 4.00369 43.2872 3.74685 43.4839 3.4749C43.6806 3.77707 43.953 4.04902 44.0437 4.36629C44.1648 4.80443 43.8924 4.97062 43.4839 4.91019ZM45.3752 4.23032C45.6475 3.97348 45.9199 3.73174 46.3586 3.32382C46.5856 3.73174 46.8579 4.03391 46.7974 4.15478C46.6461 4.45694 46.3738 4.80443 46.0863 4.86487C45.9047 4.91019 45.6173 4.45694 45.3752 4.23032ZM20.7888 59.2698C20.7736 59.7683 20.2895 60.2518 19.8204 60.2216C19.3514 60.1914 18.9278 59.7079 18.9429 59.2093C18.9429 58.7561 19.4119 58.2575 19.8204 58.2575C20.35 58.2575 20.8039 58.741 20.7888 59.2698ZM20.7736 53.9668C20.7736 54.3294 20.1533 54.9488 19.7902 54.9639C19.306 54.9639 18.8521 54.5258 18.8219 54.0272C18.8067 53.6193 19.3968 52.9998 19.8053 52.9998C20.1836 52.9998 20.7736 53.5891 20.7736 53.9668ZM20.7736 51.3681C20.7585 51.761 20.1684 52.3351 19.7902 52.32C19.3817 52.32 18.6857 51.6401 18.837 51.2926C19.0034 50.8998 19.3514 50.5976 19.6086 50.2501C20.2138 50.4012 20.8039 50.9753 20.7736 51.3681ZM19.7145 55.6287C20.123 55.5985 20.7736 56.2028 20.7888 56.5956C20.7888 57.0791 20.3651 57.5323 19.8507 57.5776C19.4422 57.6079 18.8219 57.0186 18.8219 56.5956C18.8067 56.2632 19.3665 55.6589 19.7145 55.6287ZM20.7736 48.694C20.8039 49.1019 20.1684 49.7213 19.775 49.7062C19.3817 49.6911 18.8067 49.0868 18.8219 48.7091C18.837 48.2558 19.2606 47.8781 19.775 47.863C20.2441 47.863 20.7434 48.2861 20.7736 48.694ZM20.5316 46.2313C20.4559 46.6846 20.2138 46.9716 19.6843 46.9565C19.1093 46.9414 18.958 46.5184 18.958 46.0651C18.958 45.627 19.2455 45.3702 19.7297 45.3702C20.2592 45.3853 20.5013 45.6723 20.5316 46.2313ZM20.3046 43.6176C20.0625 43.8442 19.8961 44.1313 19.7599 44.1162C19.533 44.086 19.3211 43.8895 19.0942 43.7536C19.3211 43.5118 19.5481 43.2701 19.775 43.0284C19.9263 43.1795 20.0776 43.3456 20.3046 43.6176ZM18.9429 61.808C18.9732 61.4151 19.5178 60.8712 19.8658 60.8864C20.3349 60.9015 20.8039 61.4151 20.7736 61.8835C20.7434 62.2763 20.2289 62.7296 19.8204 62.7145C19.3968 62.6842 18.9126 62.1857 18.9429 61.808ZM19.0639 80.6178C19.0791 79.8926 19.3363 79.5904 19.8356 79.53C20.2895 79.4846 20.6375 79.8775 20.6526 80.3912C20.6677 80.8595 20.2895 81.2976 19.881 81.1919C19.533 81.1012 19.2606 80.7689 19.0639 80.6178ZM19.2455 64.3613C19.306 64.1195 19.6086 63.8476 19.8658 63.7871C20.4862 63.6512 20.4862 64.2253 20.7585 64.7541C20.3349 64.8749 19.9717 65.0562 19.6237 65.0411C19.4724 65.026 19.2001 64.5577 19.2455 64.3613ZM19.8961 67.4433C19.7599 67.2923 19.6237 67.1412 19.4724 66.9901C19.6086 66.8843 19.7297 66.703 19.8658 66.6879C20.002 66.6728 20.1533 66.8239 20.3954 66.975C20.1684 67.1714 20.0323 67.3074 19.8961 67.4433ZM20.2289 77.6414C20.2289 77.853 20.0323 78.0494 19.8658 78.3817C19.6237 78.0494 19.3665 77.8378 19.3817 77.6717C19.3968 77.4904 19.6994 77.3393 19.8658 77.1731C20.002 77.3393 20.2289 77.4904 20.2289 77.6414ZM17.8535 83.579C17.6568 83.715 17.5358 83.9265 17.2634 84.2438C16.9003 83.8358 16.4616 83.5639 16.3708 83.1862C16.2951 82.8991 16.5675 82.3854 16.8398 82.189C17.2181 81.9171 17.7174 82.0379 17.9897 82.4761C18.2318 82.8538 18.3226 83.2466 17.8535 83.579ZM18.141 53.997C18.1259 54.3898 17.5509 54.979 17.1878 54.9488C16.7642 54.9337 16.2043 54.3747 16.2043 53.9819C16.2043 53.5588 16.7793 53.0301 17.2029 53.0452C17.672 53.0754 18.1561 53.5588 18.141 53.997ZM17.1878 50.371C17.5812 50.3861 18.141 50.93 18.1561 51.3228C18.1713 51.8063 17.7325 52.32 17.2634 52.3351C16.7793 52.3502 16.3254 51.8667 16.3103 51.3228C16.2951 50.8847 16.7793 50.3559 17.1878 50.371ZM16.2195 48.7393C16.2195 48.3918 16.8549 47.6666 17.1727 47.6515C17.5812 47.6364 18.1259 48.2256 18.1561 48.7091C18.1713 49.2077 17.6871 49.7213 17.1878 49.7213C16.7642 49.7062 16.2195 49.1472 16.2195 48.7393ZM18.141 46.1256C18.1259 46.609 17.5055 47.3342 17.1273 47.168C16.7036 46.9867 16.2951 46.5788 16.0833 46.1558C15.932 45.8536 16.8398 45.0831 17.2029 45.1133C17.6114 45.1586 18.1561 45.7479 18.141 46.1256ZM17.1273 44.4334C16.6582 44.4939 16.0682 43.95 16.2195 43.5723C16.3708 43.2097 16.7642 42.8773 17.1273 42.7111C17.4601 42.56 17.8687 43.1795 17.8838 43.7687C17.9594 44.3428 17.4601 44.3881 17.1273 44.4334ZM16.3103 56.6258C16.2951 56.1726 16.749 55.674 17.1727 55.6589C17.5812 55.6438 18.262 56.2783 18.1107 56.5956C17.9292 56.9733 17.5509 57.3359 17.1727 57.5021C16.7944 57.6834 16.3254 57.1093 16.3103 56.6258ZM16.4767 59.1791C16.3556 58.7259 16.6885 58.4086 17.1727 58.3935C17.6266 58.3633 18.02 58.7863 18.02 59.2396C18.02 59.6173 17.4904 60.1763 17.1878 60.0252C16.8701 59.859 16.5675 59.5115 16.4767 59.1791ZM17.2029 62.7296C16.9457 62.2914 16.6734 62.0195 16.6885 61.7929C16.7188 61.5662 17.0214 61.2187 17.2483 61.1734C17.7174 61.0828 17.9746 61.5209 17.9594 61.8835C17.9594 62.1101 17.5812 62.3368 17.2029 62.7296ZM17.9746 80.4365C17.6417 80.6782 17.3542 80.9804 17.2483 80.935C16.976 80.7991 16.7944 80.4969 16.5675 80.2703C16.7944 80.0739 17.0214 79.7415 17.2634 79.7264C17.4601 79.6962 17.6568 80.089 17.9746 80.4365ZM15.5235 45.6723C15.9169 46.0651 15.7807 46.322 15.4327 46.5637C15.0091 46.8659 14.6157 47.2889 13.9802 46.9716C13.1632 46.5788 13.0875 45.8838 13.7987 45.2795C13.9802 45.1133 14.192 44.796 14.1466 44.5996C14.1013 44.3881 13.7835 44.1615 13.5414 44.1011C13.2842 44.0255 12.906 44.0406 12.7093 44.1917C12.1646 44.5694 11.8166 44.2824 11.5745 43.8895C11.4686 43.7082 11.5443 43.2701 11.6956 43.119C12.089 42.7262 12.5126 42.8622 12.8908 43.2248C12.9514 43.2852 13.027 43.3456 13.1329 43.4514C13.375 43.2399 13.602 43.0737 13.7835 42.8773C14.2526 42.3938 14.7821 42.3334 15.236 42.832C15.5689 43.2097 15.7353 43.6478 15.2511 44.1162C14.6611 44.7205 15.0998 45.2493 15.5235 45.6723ZM15.2511 40.9283C15.2663 41.4118 14.9032 41.5931 14.5249 41.6686C14.2223 41.7442 13.5263 41.1398 13.6171 40.8377C13.6927 40.5355 13.9348 40.2787 14.0407 40.1125C14.7367 40.1125 15.236 40.5053 15.2511 40.9283ZM11.9982 39.0398C11.514 39.0096 11.166 38.7527 11.166 38.1635C11.166 37.7405 11.3022 37.4383 11.741 37.3628C12.0738 37.3174 12.6185 37.9822 12.6185 38.4203C12.6942 38.8887 12.3613 39.07 11.9982 39.0398ZM11.0904 40.7621C11.0904 40.6111 11.393 40.4449 11.5745 40.2787C12.0738 40.3542 12.4067 40.5053 12.3462 40.9283C12.3159 41.1247 12.0133 41.3816 11.8015 41.4269C11.2719 41.5629 11.1055 41.1398 11.0904 40.7621ZM11.6956 47.4853C11.862 47.576 12.0284 47.6666 12.1797 47.7724C12.8152 48.2256 12.9816 48.9508 12.4067 49.5551C11.9528 50.0537 12.1797 50.2652 12.5277 50.5976C13.0875 51.1415 13.1027 51.2926 12.4369 51.761C12.1797 51.9423 11.7712 51.9271 11.4384 51.9876C11.4384 51.6854 11.3778 51.353 11.4686 51.0962C11.8771 50.0537 11.8923 50.0688 11.1055 49.3134C10.7424 48.9508 10.4246 48.9508 10.0464 49.3134C9.27475 50.0688 9.01754 50.0386 8.35182 49.1926C8.00383 48.7393 8.30643 48.3163 8.60903 48.0896C8.88137 47.8781 9.48657 47.6968 9.71353 47.8479C10.7726 48.558 10.9996 48.558 11.6956 47.4853ZM8.42747 40.5053C8.62416 40.3391 8.80572 40.1578 9.00241 39.9916C9.15371 40.2031 9.28988 40.3995 9.44119 40.611C9.36554 40.7017 9.27475 40.7923 9.1991 40.8679C8.94189 40.747 8.68468 40.6262 8.42747 40.5053ZM8.97215 45.6421C9.68327 45.7025 9.78918 46.0953 9.71353 46.7601C9.09319 46.5335 8.91163 46.186 8.97215 45.6421ZM8.71494 43.678C8.79059 43.4514 9.13858 43.1794 9.38067 43.1643C9.65301 43.1492 9.94048 43.391 10.2128 43.5269C10.2128 43.6327 10.2128 43.7234 10.2128 43.8291C9.91022 43.9953 9.63788 44.237 9.32014 44.2824C8.97215 44.3277 8.56364 44.1313 8.71494 43.678ZM10.3036 35.9728C10.0918 36.1088 9.77405 36.4563 9.5471 36.4109C9.16884 36.3354 8.77546 36.0483 8.50312 35.7462C8.36695 35.5951 8.36695 35.1419 8.48799 34.9606C8.5939 34.7944 9.01754 34.7188 9.22936 34.7944C9.68327 34.9454 10.1826 35.1721 10.3036 35.9728ZM8.09461 45.7025C7.80713 46.1105 7.62557 46.4428 7.38349 46.7148C7.20193 46.9112 6.83881 47.2436 6.74803 47.1831C6.32438 46.9414 5.88561 46.6393 5.59814 46.2464C5.50736 46.1256 5.87048 45.6723 6.05204 45.3853C6.09743 45.3097 6.32438 45.2644 6.32438 45.2795C6.62699 45.8989 7.12628 45.4004 7.51966 45.5061C7.73148 45.5515 7.89791 45.627 8.09461 45.7025ZM6.30925 42.832C6.5816 43.0284 6.89933 43.2701 6.61186 43.678C6.47568 43.8895 6.29412 44.0708 6.12769 44.2673C6.05204 44.2673 5.97639 44.2824 5.90074 44.2824C5.85535 43.9047 5.76457 43.5118 5.79483 43.1341C5.82509 42.9528 5.94613 42.56 6.30925 42.832ZM7.4894 40.747C7.17167 41.0643 6.85394 41.3816 6.3849 41.865C6.05204 41.4269 5.67379 41.1398 5.70405 40.9132C5.74944 40.5959 6.17308 40.0369 6.29412 40.0671C6.7329 40.1578 7.11115 40.4902 7.4894 40.747ZM6.68751 37.6045C6.86907 37.8916 7.09602 38.088 7.06576 38.2239C7.02037 38.4355 6.80855 38.6168 6.67238 38.8132C6.55133 38.6168 6.36977 38.4204 6.35464 38.2088C6.32438 38.0426 6.50595 37.8764 6.68751 37.6045ZM6.99011 35.5045C6.62699 35.8671 6.20334 35.8519 5.80996 35.7009C5.55275 35.5951 5.35606 35.3231 5.67379 35.0361C5.88561 34.8397 6.0823 34.6584 6.33951 34.4167C6.20334 34.1145 6.09743 33.8576 5.97639 33.6159C6.53621 33.3289 6.80855 33.4951 6.99011 34.1447C7.14141 34.6131 7.47427 35.021 6.99011 35.5045ZM7.62557 69.8154C7.61044 70.2837 7.12628 70.7218 6.64212 70.7218C6.14282 70.7218 5.67379 70.2837 5.65866 69.8154C5.65866 69.3772 6.18821 68.788 6.61186 68.7578C7.05063 68.7276 7.6407 69.3621 7.62557 69.8154ZM7.56505 61.8986C7.12628 62.2008 6.85394 62.5483 6.61186 62.5332C6.36977 62.518 5.94613 62.095 5.97639 61.9137C6.02178 61.6418 6.36977 61.2641 6.64212 61.2338C6.86907 61.1885 7.15654 61.5662 7.56505 61.8986ZM6.15795 47.8328C6.56647 48.1803 6.95985 48.4674 7.29271 48.7997C7.39862 48.9206 7.42888 49.3134 7.3381 49.3738C7.12628 49.5249 6.79342 49.676 6.5816 49.6156C5.82509 49.3738 5.59814 48.6184 6.15795 47.8328ZM6.64212 58.6503C6.83881 58.8618 7.12628 59.0432 7.20193 59.3C7.24732 59.4511 6.97498 59.7079 6.85394 59.9194C6.76316 59.9345 6.65725 59.9345 6.56647 59.9496C6.40003 59.7381 6.06717 59.4964 6.09743 59.3C6.12769 59.0583 6.44542 58.8618 6.64212 58.6503ZM6.02178 56.8373C6.00665 56.7618 6.00665 56.6711 5.99152 56.5956C6.21847 56.4445 6.44543 56.2481 6.68751 56.1877C6.77829 56.1575 7.06576 56.4143 7.08089 56.5503C7.08089 56.7467 6.91446 57.1244 6.82368 57.1244C6.55134 57.0942 6.27899 56.9431 6.02178 56.8373ZM6.65725 66.2649C7.1868 66.28 7.50453 66.6275 7.4894 67.2016C7.4894 67.6095 7.00524 68.1081 6.62699 68.093C6.21847 68.093 5.67379 67.5189 5.67379 67.111C5.68892 66.6728 6.17308 66.2498 6.65725 66.2649ZM6.65725 63.772C7.24732 63.6361 7.4894 64.1648 7.42888 64.5123C7.38349 64.8145 6.8842 65.2829 6.61186 65.2829C6.32438 65.2678 5.88561 64.7994 5.82509 64.467C5.7797 64.0893 6.09743 63.6965 6.65725 63.772ZM6.7329 71.3866C7.21706 71.4017 7.62557 71.8399 7.6407 72.3535C7.6407 72.8219 7.05063 73.6075 6.70264 73.4413C6.26386 73.2449 5.82509 72.8521 5.58301 72.4291C5.38632 72.1118 6.26386 71.3715 6.7329 71.3866ZM6.67238 76.0551C6.24873 76.0853 5.49223 75.4507 5.61327 75.0579C5.7797 74.5896 6.18821 74.2119 6.49082 73.8039C7.00524 73.8946 7.70122 74.5745 7.70122 74.9824C7.73148 75.3752 7.11115 76.0248 6.67238 76.0551ZM5.56788 77.6414C5.58301 77.2335 6.29412 76.6292 6.74803 76.6443C7.23219 76.6594 7.6407 77.0975 7.6407 77.6263C7.6407 78.1249 7.09602 78.7141 6.65725 78.7141C6.24873 78.699 5.55275 78.0191 5.56788 77.6414ZM5.65866 80.2552C5.65866 79.8321 6.29412 79.2278 6.68751 79.2731C7.09602 79.3185 7.61044 79.8775 7.61044 80.3005C7.61044 80.6782 6.99011 81.2523 6.59673 81.2372C6.09743 81.207 5.65866 80.7537 5.65866 80.2552ZM5.65866 82.8387C5.68892 82.4157 6.24873 81.9171 6.65725 81.9322C7.11115 81.9473 7.50453 82.3854 7.4894 82.8991C7.4894 83.3524 7.0355 83.8509 6.62699 83.8509C6.12769 83.8509 5.6284 83.3222 5.65866 82.8387ZM7.92817 51.353C9.03267 50.371 9.44119 50.2501 9.8497 50.7034C10.3944 51.3077 10.3036 51.7459 9.32014 52.6523C8.85111 52.2142 8.39721 51.7912 7.92817 51.353ZM10.228 72.3989C10.3793 72.7312 9.68327 73.3356 9.24449 73.3507C8.77546 73.3658 8.30643 72.8974 8.2913 72.3989C8.27617 71.9909 8.92676 71.2657 9.25962 71.4168C9.65301 71.6132 10.0313 71.9909 10.228 72.3989ZM10.122 69.8154C10.122 70.2233 9.65301 70.7218 9.27475 70.7218C8.86624 70.737 8.20052 70.0873 8.2913 69.7096C8.39721 69.2715 8.63929 68.8635 9.1991 68.8786C9.81944 68.8937 10.1372 69.211 10.122 69.8154ZM9.97074 67.2016C9.89509 67.4887 9.56223 67.8664 9.28988 67.9268C8.80572 68.0477 8.48799 67.6851 8.4426 67.2016C8.39721 66.7333 8.77546 66.3858 9.30501 66.3858C9.89509 66.3404 10.0767 66.7635 9.97074 67.2016ZM9.94048 64.5426C9.95561 64.7843 9.59249 65.0714 9.39579 65.3282C9.28988 65.3282 9.18397 65.3282 9.07806 65.3282C8.8965 65.0714 8.62416 64.8296 8.56364 64.5577C8.47286 64.1497 8.95702 63.6663 9.28988 63.8023C9.59249 63.9231 9.91022 64.2706 9.94048 64.5426ZM9.25962 61.2792C9.45632 61.4907 9.78918 61.672 9.83457 61.9137C9.86483 62.1252 9.59249 62.3821 9.33527 62.8202C9.00241 62.3972 8.66955 62.1555 8.68468 61.9439C8.68468 61.7022 9.0478 61.4907 9.25962 61.2792ZM8.82085 59.2698C8.95702 59.1489 9.07806 58.9525 9.22936 58.9223C9.38066 58.8921 9.56223 59.0431 9.86483 59.164C9.57736 59.4057 9.42606 59.6324 9.25962 59.6475C9.12345 59.6777 8.97215 59.4057 8.82085 59.2698ZM8.20052 74.9824C8.23078 74.65 8.95702 74.0003 9.28988 74.0154C9.6984 74.0306 10.228 74.5896 10.3339 75.1637C9.97074 75.4356 9.62275 75.8284 9.21423 75.9342C8.76033 76.0551 8.17026 75.3903 8.20052 74.9824ZM8.2913 77.5961C8.30643 77.1882 8.86624 76.6594 9.27475 76.6594C9.71353 76.6594 10.1674 77.1429 10.122 77.6263C10.0767 78.1098 9.86483 78.5026 9.27475 78.4573C8.7452 78.4724 8.27617 78.0645 8.2913 77.5961ZM8.41234 80.2249C8.42747 79.7264 8.79059 79.3789 9.42605 79.394C9.81944 79.4242 10.0615 79.8472 10.0464 80.2552C10.0313 80.6631 9.80431 81.1012 9.24449 81.1012C8.80572 81.1012 8.41234 80.6782 8.41234 80.2249ZM8.45773 82.884C8.53338 82.5516 8.94189 82.2041 9.27475 82.0531C9.59249 81.9171 10.122 82.5365 10.1069 82.9444C10.0918 83.3826 9.65301 83.7452 9.16884 83.7301C8.62416 83.6999 8.35182 83.2919 8.45773 82.884ZM10.6819 53.8459C10.8785 53.6646 11.0298 53.5286 11.1811 53.3775C11.6502 52.879 12.089 52.8639 12.6185 53.3171C13.0421 53.6797 13.4507 53.997 13.9197 53.302C14.0407 53.1207 14.5854 53.0452 14.7972 53.166C15.0696 53.3171 15.3419 53.7099 15.3268 53.997C15.3268 54.1934 14.888 54.4351 14.6006 54.5711C14.2223 54.7524 13.8289 54.8128 13.4961 54.3898C13.4204 54.2991 13.1329 54.284 12.9968 54.3445C11.862 54.8279 11.4989 54.7675 10.6819 53.8459ZM12.5882 69.8305C12.5126 70.1175 12.1797 70.4952 11.9074 70.5557C11.4232 70.6765 11.1055 70.3139 11.0601 69.8305C11.0147 69.3621 11.4081 69.0146 11.9074 69.0146C12.5277 68.9693 12.7093 69.3923 12.5882 69.8305ZM12.4975 67.2016C12.5731 67.6549 12.21 67.8513 11.8923 67.8059C11.6351 67.7606 11.2871 67.4433 11.2265 67.1865C11.1358 66.7937 11.4384 66.4764 11.862 66.4764C12.2554 66.4613 12.5277 66.703 12.4975 67.2016ZM11.8166 62.3972C11.6653 62.2159 11.4232 62.0497 11.3778 61.8382C11.3476 61.7022 11.6048 61.5058 11.8317 61.2338C12.0436 61.4907 12.3159 61.7022 12.2856 61.808C12.21 62.0346 11.983 62.2008 11.8166 62.3972ZM12.331 64.4972C12.3159 64.6936 12.0284 64.9958 11.8015 65.026C11.6351 65.0562 11.4081 64.7541 11.0601 64.4972C11.4384 64.2102 11.6653 63.908 11.8469 63.9382C12.0436 63.9684 12.331 64.3159 12.331 64.4972ZM11.045 72.3384C11.0601 71.8399 11.393 71.5075 11.9074 71.5075C12.3008 71.5075 12.7849 71.9909 12.7547 72.3838C12.7244 72.9125 12.4218 73.2147 11.9225 73.2903C11.4686 73.3658 11.045 72.8672 11.045 72.3384ZM11.045 75.0126C11.0298 74.4989 11.3778 74.1363 11.9074 74.1514C12.4823 74.091 12.6942 74.5745 12.6942 74.9975C12.6942 75.3903 12.4823 75.8436 11.9225 75.8587C11.4686 75.8587 11.0601 75.4658 11.045 75.0126ZM11.9528 76.8105C12.2554 76.9011 12.4823 77.2335 12.6336 77.3695C12.6488 78.0796 12.3764 78.4573 11.9528 78.3969C11.6351 78.3515 11.2568 78.004 11.1055 77.7019C10.9239 77.3393 11.5594 76.6896 11.9528 76.8105ZM12.089 81.0257C11.4837 80.8897 11.1206 80.6631 11.2265 80.2249C11.2871 79.953 11.6351 79.6055 11.8923 79.5451C12.3613 79.4393 12.6034 79.9077 12.5882 80.2703C12.5731 80.5422 12.2403 80.8142 12.089 81.0257ZM11.8771 82.1588C12.3916 82.1135 12.6034 82.4308 12.6336 82.748C12.6488 83.3977 12.3764 83.7603 11.9225 83.6848C11.6502 83.6394 11.3022 83.2617 11.2114 82.9747C11.0752 82.5214 11.393 82.2041 11.8771 82.1588ZM13.95 69.7851C14.1315 69.6189 14.3131 69.347 14.5249 69.3168C14.6762 69.3017 14.8729 69.5887 15.1301 69.8154C14.8578 70.0269 14.6459 70.3139 14.4946 70.2837C14.2828 70.2384 14.1164 69.9513 13.95 69.7851ZM13.8592 72.3989C13.9348 72.1571 14.2526 71.8248 14.4795 71.8096C14.6762 71.7945 15.0393 72.1722 15.0545 72.3838C15.0545 72.5953 14.7065 72.8219 14.3887 73.1845C14.1164 72.8219 13.7987 72.5651 13.8592 72.3989ZM13.9651 74.9371C13.9348 74.5442 14.2526 74.3025 14.6006 74.4385C14.8275 74.5291 15.0696 74.8615 15.0998 75.1032C15.115 75.2845 14.7821 75.4961 14.4493 75.8738C14.2072 75.4205 13.9802 75.1939 13.9651 74.9371ZM14.5552 78.2004C14.3585 78.0191 14.0256 77.8379 13.9953 77.6263C13.9651 77.4299 14.2526 77.1731 14.4946 76.8105C14.7821 77.158 15.0998 77.3846 15.0847 77.5659C15.0545 77.8076 14.7367 78.004 14.5552 78.2004ZM15.0847 80.3005C15.0998 80.512 14.767 80.7386 14.6006 80.9502C14.5098 80.935 14.4039 80.935 14.3131 80.9199C14.192 80.6933 13.9348 80.4365 13.9953 80.2703C14.071 80.0286 14.3736 79.8624 14.5703 79.666C14.7519 79.8775 15.0696 80.0739 15.0847 80.3005ZM13.7987 82.9142C13.7835 82.4006 14.1315 82.2344 14.5249 82.1588C14.8729 82.0833 15.3571 82.6121 15.3571 82.9898C15.3571 83.3826 14.9939 83.715 14.419 83.715C14.0861 83.6545 13.8138 83.4128 13.7987 82.9142ZM15.3419 48.8451C15.2663 49.1774 14.8729 49.5703 14.54 49.676C14.192 49.7667 13.8592 49.4645 13.95 48.9659C14.0105 48.5278 14.071 48.0443 14.6762 48.0292C15.236 47.9839 15.3873 48.5731 15.3419 48.8451ZM15.6143 51.2775C15.6143 51.3833 15.6143 51.489 15.6143 51.5797C15.236 51.8667 14.888 52.2444 14.4644 52.4257C14.1466 52.5617 13.4507 51.625 13.5717 51.202C13.6927 50.7789 13.9953 50.371 14.4946 50.5221C14.9032 50.6581 15.2511 51.0207 15.6143 51.2775ZM5.26528 46.2615C4.90215 46.4882 4.70546 46.6997 4.58442 46.6695C4.19104 46.5637 3.54044 46.6695 3.58584 46.0198C3.6161 45.7479 4.03974 45.5212 4.28182 45.2795C4.56929 45.5515 4.84163 45.8385 5.26528 46.2615ZM5.12911 35.3383C5.14424 35.9426 4.55416 36.6074 4.13052 36.5318C3.87331 36.4865 3.52531 36.2145 3.44966 35.9728C3.32862 35.5649 4.02461 34.8095 4.43312 34.9001C4.72059 34.9454 4.96267 35.2174 5.12911 35.3383ZM4.02461 57.3812C3.81279 57.0791 3.55557 56.8676 3.58584 56.7014C3.63123 56.4898 3.87331 56.233 4.07 56.1877C4.19104 56.1575 4.56929 56.4898 4.55416 56.6258C4.5239 56.8373 4.26669 57.0337 4.02461 57.3812ZM5.00806 43.8895C4.79624 43.9651 4.53903 44.1615 4.3726 44.1011C4.03974 43.9651 3.72201 43.7385 3.51018 43.4665C3.44966 43.391 3.81279 42.9982 3.97922 42.7564C4.26669 43.0133 4.55416 43.2701 4.8265 43.5269C4.88702 43.6478 4.94754 43.7687 5.00806 43.8895ZM3.96409 40.0974C4.40286 40.46 4.66007 40.8377 4.25156 41.306C4.17591 41.3816 3.81279 41.3514 3.73714 41.2456C3.40427 40.8226 3.44966 40.4297 3.96409 40.0974ZM3.44966 38.3448C3.5707 37.9973 3.85818 37.6951 4.07 37.3779C4.28182 37.5592 4.49364 37.7405 4.87189 38.0578C4.46338 38.4506 4.20617 38.6923 3.93383 38.9491C3.7674 38.7376 3.4194 38.4657 3.44966 38.3448ZM3.44966 59.2698C3.51018 59.028 3.78253 58.7259 4.00948 58.6654C4.43312 58.5597 4.61468 58.8921 4.70546 59.4511C4.47851 59.6022 4.26669 59.859 4.03974 59.8741C3.67662 59.9194 3.34375 59.6777 3.44966 59.2698ZM3.34375 61.8835C3.34375 61.6418 3.75227 61.2036 3.97922 61.1885C4.25156 61.1734 4.53903 61.5511 4.8265 61.7475C4.8265 61.8382 4.8265 61.9439 4.8265 62.0346C4.55416 62.2159 4.25156 62.5483 4.00948 62.518C3.75227 62.5029 3.34375 62.1101 3.34375 61.8835ZM3.16219 64.5728C3.10167 64.18 3.58583 63.6512 3.97922 63.6361C4.35747 63.621 4.88702 64.1346 4.85676 64.5123C4.79624 64.9958 4.61468 65.3886 4.00948 65.3433C3.44966 65.4037 3.23784 65.026 3.16219 64.5728ZM3.05628 67.1261C3.04115 66.6879 3.51018 66.2649 3.99435 66.2649C4.50877 66.2649 4.9778 66.6879 4.9778 67.1563C4.9778 67.534 4.38773 68.093 3.99435 68.093C3.58583 68.093 3.07141 67.5642 3.05628 67.1261ZM3.02602 69.8154C3.02602 69.3168 3.54044 68.7578 4.02461 68.7578C4.56929 68.7578 5.00806 69.2261 5.00806 69.8154C5.00806 70.2233 4.40286 70.8578 4.02461 70.8578C3.61609 70.8427 3.02602 70.2233 3.02602 69.8154ZM2.9655 72.3989C2.98063 72.006 3.58583 71.5528 4.03974 71.2809C4.31208 71.1147 5.25015 72.0665 5.09885 72.3989C4.88702 72.8672 4.46338 73.26 4.00948 73.819C3.55557 73.2449 2.95037 72.8068 2.9655 72.3989ZM2.79907 74.9975C3.23784 74.6198 3.64635 74.1061 4.14565 73.955C4.34234 73.8946 4.88702 74.6198 5.08372 75.0579C5.21989 75.3752 4.31208 76.1306 3.82792 76.2213C3.49505 75.8133 3.14706 75.4054 2.79907 74.9975ZM2.3603 69.8456C2.34517 70.2686 1.63405 70.9938 1.34658 70.8125C0.938066 70.5708 0.559814 70.1779 0.347992 69.7549C0.196691 69.4679 1.04398 68.7427 1.4071 68.7578C1.96691 68.788 2.39056 69.2563 2.3603 69.8456ZM2.3603 67.1412C2.37543 67.5038 1.77022 68.093 1.39197 68.093C0.983457 68.093 0.438773 67.534 0.438773 67.1261C0.423643 66.7182 0.862416 66.28 1.30119 66.2649C1.84587 66.2347 2.33004 66.6426 2.3603 67.1412ZM2.19387 64.5577C2.13334 64.8598 1.7097 65.2526 1.39197 65.298C1.01372 65.3584 0.605204 65.0713 0.665725 64.3159C0.695985 64.0893 0.892676 63.7569 1.4071 63.772C1.90639 63.7871 2.29978 64.0893 2.19387 64.5577ZM2.02743 61.8533C1.99717 62.1101 1.66431 62.4878 1.42223 62.518C1.19528 62.5483 0.922936 62.2008 0.665725 62.0195C0.665725 61.9137 0.665725 61.8231 0.680855 61.7173C0.907806 61.5662 1.13476 61.3396 1.37684 61.2943C1.80048 61.1885 2.08795 61.5209 2.02743 61.8533ZM1.92152 59.3C1.96691 59.4511 1.64918 59.6928 1.42223 59.9799C1.16502 59.6928 0.877546 59.5115 0.847286 59.3C0.832156 59.1489 1.18015 58.8014 1.34658 58.8165C1.5584 58.8316 1.861 59.0885 1.92152 59.3ZM1.81561 56.7014C1.83074 56.8222 1.61892 56.9884 1.43736 57.2302C1.21041 56.9733 0.938067 56.7467 0.968327 56.656C1.04398 56.4596 1.28606 56.3237 1.46762 56.1726C1.58866 56.3388 1.78535 56.505 1.81561 56.7014ZM50.4135 75.0579C50.3227 74.7406 51.0338 73.9097 51.3364 73.8795C51.6996 73.8493 52.335 74.4989 52.3502 74.9068C52.3653 75.3601 51.8357 75.8284 51.2608 75.8436C50.7312 75.9191 50.5194 75.4961 50.4135 75.0579ZM51.049 77.0975C51.2608 77.0975 51.4877 77.0975 51.6996 77.0975C51.6239 77.3997 51.5483 77.6868 51.4877 77.9889C51.3516 77.9738 51.2003 77.9587 51.0641 77.9436C51.049 77.6565 51.049 77.3695 51.049 77.0975ZM62.4419 46.7752C61.9578 46.9414 61.5341 47.0774 61.0046 46.6544C60.5355 46.2766 60.0816 46.7601 59.7336 47.1378C59.4159 47.4702 59.6126 47.727 59.8698 47.9688C60.354 48.422 59.9909 48.8904 59.779 49.2379C59.6731 49.4041 59.0982 49.4192 58.8107 49.3134C57.9029 48.9659 57.7214 48.9659 57.1464 49.5854C56.7833 49.9631 56.7228 50.3408 57.0254 50.8091C57.1161 50.9602 57.0859 51.2775 56.98 51.4437C56.7833 51.8063 56.405 51.7761 56.1478 51.5494C55.9814 51.3984 55.8755 51.0962 55.8755 50.8696C55.8906 50.4767 56.0116 50.0839 56.0873 49.7062C55.0131 49.3134 54.8618 49.3587 54.1658 50.1897C53.8783 49.8573 53.5454 49.5703 53.3639 49.2077C53.0764 48.6638 53.4395 48.2709 53.848 47.9386C54.2263 47.6213 54.4986 47.8479 54.7861 48.135C55.3157 48.6789 56.1024 48.3465 56.5412 47.3342C56.4656 47.2738 56.3445 47.2134 56.2537 47.1076C55.3762 46.2313 55.3762 46.2313 56.2083 45.2795C56.4504 44.9924 56.5715 44.6752 56.1781 44.4032C56.1024 44.3579 56.057 44.2824 55.9965 44.2219C55.4064 43.6176 55.4064 43.4212 55.9663 42.832C56.1327 42.6507 56.3294 42.4845 56.5866 42.2427C56.753 42.3636 57.0102 42.4694 57.1918 42.6658C57.6608 43.1795 58.1299 43.1492 58.6745 42.7866C59.4764 42.2427 60.1422 42.5449 60.2632 43.4967C60.2783 43.6478 60.2783 43.814 60.2027 43.9349C59.6277 45.0227 59.7337 45.355 60.8382 45.8838C61.0954 45.6723 61.3828 45.5061 61.5947 45.2493C61.6854 45.1284 61.6703 44.8414 61.5947 44.6903C61.398 44.3881 61.0954 44.1464 60.9138 43.8442C60.7776 43.6025 60.6566 43.2701 60.702 42.9982C60.7776 42.56 60.5053 42.001 60.0363 42.001C59.2344 42.001 58.6443 41.5931 58.0391 41.0341C57.7214 41.2909 57.3734 41.5327 57.0859 41.8499C56.7681 42.1974 56.5261 42.1823 56.2386 41.8348C55.9814 41.5175 55.6788 41.2305 55.3459 40.883C55.6788 40.5808 55.9814 40.3391 56.2235 40.052C56.4656 39.7801 56.6017 39.4628 56.2083 39.1758C55.9057 38.9491 55.6334 38.6772 55.1795 38.2693C54.9525 38.5714 54.7861 38.8736 54.5592 39.1002C54.1506 39.493 53.727 39.3873 53.258 38.8585C52.9251 38.4657 52.8343 38.088 53.2428 37.68C53.8934 37.0455 53.8632 36.834 53.1067 36.3203C53.031 36.275 52.9705 36.2145 52.8646 36.1541C53.2731 35.6253 53.6514 35.1419 54.3322 35.1419C54.5894 35.1419 54.9525 35.2174 55.0887 35.3987C55.1795 35.5347 55.0584 35.9577 54.9071 36.1239C54.6045 36.4261 54.4381 36.7282 54.4986 37.1664C54.5743 37.6649 55.1038 37.9822 55.5729 37.816C56.6169 37.4383 56.7228 37.0606 55.9209 36.2901C55.6485 36.0181 55.6183 35.8368 55.7242 35.4138C55.8906 34.7793 55.9057 34.0541 55.7847 33.4044C55.6939 32.9058 55.815 32.5583 55.9965 32.1353C56.1327 31.8482 56.0722 31.4403 55.9965 31.1079C55.9209 30.836 55.6939 30.6094 55.5729 30.413C55.5729 30.3072 55.5729 30.277 55.588 30.2619C56.8287 29.4309 56.057 28.5093 55.7242 27.5877C55.6788 27.4668 55.8301 27.1798 55.9663 27.1042C56.5261 26.8323 56.4656 26.4244 56.2235 26.0316C55.8906 25.5179 55.3005 25.3366 54.892 25.7294C54.2717 26.3186 53.8632 25.9409 53.4093 25.5632C52.9856 25.2157 52.6074 24.8984 51.9719 24.9589C51.3062 25.0193 50.8977 24.4603 50.7161 23.5085C50.6858 23.3876 50.7464 23.1761 50.6707 23.1308C49.884 22.5869 50.3984 22.1941 50.7766 21.7257C51.1549 21.2422 51.0036 20.6983 50.5043 20.4113C50.0201 20.1393 49.5662 20.3055 49.2636 20.8343C48.9913 21.2876 49.2939 21.5595 49.5662 21.8315C50.2017 22.4962 50.2017 22.7077 49.309 23.448C48.8551 23.8258 48.4769 23.4783 48.1289 23.161C47.9322 22.9797 47.7052 22.8135 47.4783 22.6322C46.7369 23.2365 46.0258 23.4632 45.1482 22.889C44.9667 22.7682 44.3615 23.1459 44.0437 23.4178C43.726 23.6747 43.5293 24.0675 43.1964 24.5207C43.2267 23.5538 42.9544 22.9495 42.0163 22.602C41.8499 22.8135 41.5775 23.0401 41.4565 23.3272C41.3506 23.584 41.3052 23.9919 41.4414 24.1732C42.1071 25.0797 42.0617 25.397 41.048 25.956C40.9421 26.0165 40.821 26.0769 40.6697 26.1524C40.5487 26.0316 40.3974 25.9107 40.2612 25.7898C39.7317 25.2913 39.3685 25.3064 38.8995 25.8503C38.491 26.3337 38.5061 26.651 39.0811 27.0891C39.4442 27.3762 39.8376 27.8294 40.2612 27.0589C40.3823 26.8172 40.7605 26.5301 41.1539 26.8474C41.5019 27.1194 41.8499 27.3762 42.1676 27.6784C42.1979 27.7086 42.0617 27.9352 41.9709 28.041C41.744 28.2978 41.4867 28.5395 41.2295 28.7813C40.9572 29.0381 40.8815 29.2345 41.2749 29.4914C41.7288 29.7935 41.7894 30.564 41.4565 30.9266C41.1539 31.2439 40.5638 31.1835 40.1402 30.7907C40.004 30.6547 39.8527 30.5187 39.5501 30.2317C39.3534 30.5187 39.187 30.8058 38.96 31.0324C38.4305 31.5763 38.1733 31.5763 37.6588 31.0626C37.3411 30.7453 37.0536 30.5187 36.5997 30.8058C36.1609 31.0777 35.9643 31.5159 36.1609 31.9087C36.3274 32.2562 36.751 32.4979 37.0839 32.7245C37.1444 32.7699 37.4167 32.5281 37.5529 32.377C38.0068 31.8936 38.3851 31.8331 38.8238 32.2411C39.2626 32.649 39.2626 33.1929 38.8087 33.6763C38.4607 34.0541 37.9766 34.0389 37.568 33.6159C37.4167 33.4648 37.2654 33.2986 37.0839 33.0871C36.8115 33.2986 36.5241 33.4346 36.3728 33.6612C36.2063 33.8879 36.0248 34.2958 36.1156 34.4771C36.3122 34.8246 36.6754 35.1116 37.0234 35.3534C37.099 35.3987 37.3714 35.1116 37.5832 35.0059C37.8404 34.885 38.2186 34.6131 38.3699 34.7037C38.7785 34.9606 39.0811 35.3534 39.3988 35.716C39.4291 35.7462 39.2021 35.9728 39.1416 36.1239C38.9903 36.4412 38.6725 36.8491 38.7633 37.0908C38.8844 37.4081 39.3231 37.816 39.6257 37.816C39.9435 37.816 40.2763 37.4081 40.5789 37.1513C40.6697 37.0757 40.6849 36.9246 40.7908 36.6678C40.6243 36.5469 40.4125 36.3958 40.2158 36.2145C39.9283 35.9728 39.6409 35.7311 40.0494 35.3231C40.4125 34.9605 40.7454 34.7339 41.2598 35.0361C41.6683 35.2778 41.744 35.6102 41.6078 36.0181C41.5775 36.1239 41.5321 36.2448 41.4565 36.3052C40.7756 36.834 41.2598 37.1664 41.638 37.529C41.8196 37.7103 41.986 37.9218 42.1827 38.1333C42.7577 37.8764 43.2418 36.9548 43.847 37.5894C44.3463 38.1031 44.4825 38.934 43.5444 39.6592C43.8773 39.901 44.1648 40.0823 44.4069 40.2938C44.8002 40.6413 45.118 40.7168 45.4811 40.2333C45.7837 39.8405 46.4645 39.8556 46.8125 40.188C47.2059 40.5657 47.2211 41.0794 46.9185 41.5024C46.752 41.7291 46.5402 42.1672 46.631 42.3183C46.8579 42.6658 47.2513 42.9226 47.6144 43.1795C47.675 43.2248 47.917 43.0737 48.0381 42.983C48.2953 42.8017 48.5374 42.5902 48.8702 42.3183C49.1274 42.5147 49.4906 42.7111 49.7478 42.9982C50.005 43.2852 50.0655 43.6176 49.7175 43.9651C48.961 44.7205 48.9913 44.8263 49.7327 45.5817C49.884 45.7327 50.0504 45.8687 50.126 45.9443C50.6405 45.627 51.0792 45.3097 51.5634 45.1133C51.6844 45.068 52.0022 45.3399 52.1686 45.5212C52.4863 45.8536 52.3804 46.5637 51.9416 46.8357C51.2911 47.2285 51.1398 47.2587 50.1866 46.0802C49.8537 46.4277 49.4906 46.745 49.2031 47.1227C49.1123 47.2285 49.1577 47.5004 49.2182 47.6666C49.2636 47.8026 49.4149 47.8932 49.536 47.999C50.1563 48.6184 50.1563 48.7695 49.6116 49.3285C48.9761 49.9631 48.7643 49.9782 48.1742 49.389C47.9624 49.1774 47.796 48.9357 47.5993 48.694C47.9019 48.3918 48.1743 48.1501 48.4163 47.8781C48.6584 47.6062 48.7946 47.3342 48.4315 46.9867C47.3572 45.9745 47.675 46.05 46.7066 46.9716C46.5856 47.0925 46.4343 47.1983 46.2981 47.3191C46.752 47.8026 47.1454 48.2558 47.5388 48.6789C46.4948 50.0537 46.0106 50.099 45.0121 48.7544C45.3752 48.3465 45.6475 48.0594 45.9199 47.7724C46.1468 47.5306 46.1771 47.3191 45.8896 47.0774C45.6021 46.8357 45.3752 46.5486 44.9515 46.1105C44.5582 46.5486 43.8924 46.9716 43.9378 47.3191C43.9983 47.7724 44.4976 48.1803 44.891 48.6638C44.6489 48.9508 44.422 49.2228 44.1799 49.4796C43.8017 49.9177 43.4234 49.9329 43.03 49.4947C42.8031 49.2379 42.5761 48.981 42.3643 48.7544C42.682 48.1652 43.5444 47.9083 43.2267 47.1227C43.0905 46.8206 42.6669 46.4428 42.3643 46.4277C41.744 46.3975 41.4262 46.9414 41.0934 47.5457C41.3808 47.8026 41.6834 48.0594 41.986 48.3163C42.3038 48.5731 42.2735 48.8148 41.9709 49.0566C41.6078 49.3587 41.3354 49.948 40.7302 49.5551C40.4428 49.3587 40.125 49.0717 40.0343 48.7695C39.9737 48.558 40.2309 48.2105 40.3974 47.9688C40.5336 47.7875 40.7454 47.6515 40.9723 47.4551C40.7908 47.2587 40.6243 47.0774 40.4579 46.9112C39.7317 46.1709 39.7317 46.1709 38.9298 46.8508C38.5818 47.1378 38.0068 47.0623 37.6437 46.6846C37.2503 46.2918 37.2654 45.8536 37.674 45.3702C38.0825 44.8867 38.0068 44.2219 37.4773 43.95C37.1141 43.7536 36.7662 43.7838 36.4333 44.0859C35.7676 44.6903 35.586 44.6752 34.9505 44.0255C34.7538 43.8291 34.6177 43.5874 34.6479 43.4967C34.8446 43.1946 35.0565 42.9075 35.2531 42.6053C35.5104 42.2125 35.4044 41.8499 35.1018 41.5629C34.7387 41.2305 34.2999 41.0945 33.8763 41.4118C33.0139 42.0614 32.9988 42.0917 32.2574 41.306C31.8791 40.9132 31.6522 40.9585 31.3042 41.3362C30.7595 41.9104 30.2753 41.9255 29.8214 41.3967C29.3373 40.8528 29.4734 40.3995 30.0181 40.0067C30.351 39.7801 30.3359 39.4779 30.1089 39.2362C29.8214 38.9038 29.4734 38.6168 29.0347 38.1937C28.8229 38.4808 28.6867 38.6621 28.5354 38.8585C28.2176 39.2815 27.8243 39.2362 27.446 38.9945C27.0072 38.7074 26.8257 38.2239 27.0375 37.8009C27.2039 37.4685 27.6427 37.2419 28.0058 37.0908C28.1117 37.0455 28.4446 37.3477 28.5808 37.5592C28.9439 38.088 29.3373 37.952 29.7004 37.6347C30.1089 37.2872 30.1089 36.6074 29.776 36.2448C29.3827 35.8217 28.9741 35.7764 28.5505 36.1994C28.3689 36.3807 28.2025 36.5922 28.0058 36.8038C27.7184 36.6376 27.4611 36.5167 27.2493 36.3505C26.6139 35.8217 26.5987 35.3836 27.2191 34.8246C27.6124 34.4771 27.5822 34.1296 27.2796 33.767C27.0375 33.495 26.7803 33.2231 26.5533 32.9663C26.7652 32.7094 26.9316 32.513 27.098 32.3015C27.6276 31.6367 27.5973 31.4403 27.0224 30.8511C26.6592 30.4734 26.3566 30.3827 25.9633 30.8511C25.6153 31.2741 24.9193 31.2439 24.5108 30.8662C24.1023 30.4885 24.1779 30.0806 24.7075 29.4914C25.1008 29.0683 25.4034 29.0834 25.7817 29.4914C26.1146 29.8691 26.4474 30.3979 27.0375 29.7935C27.6427 29.1741 27.6427 28.8568 27.0224 28.2525C26.8711 28.1014 26.7046 27.9503 26.4928 27.769C26.7652 27.4668 26.9618 27.1496 27.2342 26.9381C27.7032 26.5755 27.6276 26.2582 27.2796 25.8654C26.6895 25.2308 26.6895 25.0495 27.2342 24.4754C27.6276 24.0826 28.0361 24.0977 28.5959 24.5661C28.7321 24.6718 28.8229 24.838 28.9893 25.0495C29.2616 24.8229 29.5037 24.6718 29.7004 24.4603C30.1392 23.9919 30.6385 23.8862 31.0318 24.2337C31.7581 24.8682 32.1515 24.8833 32.6962 24.0977C33.0139 23.6293 33.2106 23.7653 33.4829 24.0675C33.5888 24.1732 33.6796 24.3243 33.8158 24.3848C34.1184 24.5056 34.5118 24.7474 34.7236 24.6416C35.0413 24.4905 35.2531 24.0826 35.4801 23.7653C35.5255 23.7049 35.3893 23.4934 35.2985 23.3876C34.9959 23.0703 34.6782 22.7833 34.3453 22.466C35.8432 21.2422 35.8432 21.2422 37.0839 22.3603C37.4167 21.9221 37.7496 21.484 38.0825 21.0458C38.2035 21.0458 38.3246 21.0458 38.4456 21.0458C38.8238 21.5142 39.2021 21.9825 39.7014 22.602C39.9889 22.2394 40.2461 21.9372 40.4882 21.6199C40.8513 21.1365 41.1993 21.2876 41.5775 21.6199C42.3038 22.2847 42.3189 22.3149 43.0149 21.6653C43.499 21.2271 43.8319 21.1667 44.3009 21.6955C44.8759 22.3602 44.9062 22.3149 45.5567 21.7106C45.7686 21.5142 46.0258 21.348 46.3284 21.1214C46.6159 21.4386 46.9033 21.7408 47.2059 22.0581C47.2967 22.1638 47.4934 22.33 47.5085 22.3149C47.8565 22.043 48.2348 21.7861 48.4769 21.4386C48.5828 21.2725 48.4163 20.9099 48.3256 20.653C48.2953 20.5624 48.1591 20.5019 48.0986 20.4113C47.7052 19.8523 47.327 19.8674 46.9336 20.4264C46.8277 20.5624 46.6764 20.6681 46.5705 20.8041C46.3435 21.076 46.1166 21.1063 45.8745 20.8192C45.8442 20.789 45.814 20.7588 45.7837 20.7286C44.8608 19.8372 44.891 19.7163 45.8442 18.8853C46.1922 18.5832 46.4343 18.6738 46.6915 18.8853C46.979 19.1271 47.2059 19.4292 47.4934 19.7314C47.9473 19.3235 48.5676 19.112 48.5071 18.4321C48.4466 17.8278 47.917 17.586 47.448 17.3443C46.2225 18.5379 46.1771 18.5076 45.4508 17.7371C44.8759 17.1328 45.0877 16.9213 46.2527 15.8939C46.4797 16.0903 46.7066 16.3169 46.9638 16.4982C47.1908 16.6644 47.5539 16.9364 47.675 16.8608C48.0078 16.6795 48.4315 16.332 48.4466 16.0299C48.4617 15.6824 48.144 15.2745 47.8565 14.9874C47.5842 14.7004 47.2211 14.791 46.9638 15.1234C46.7823 15.35 46.5705 15.5313 46.283 15.8335C45.8896 15.486 45.4508 15.1989 45.1634 14.8061C44.8608 14.3529 45.3449 14.0205 45.6324 13.809C46.1619 13.4162 46.1014 13.114 45.6778 12.7212C45.4206 12.4794 45.1936 12.1924 44.9364 11.9053C45.2541 11.588 45.5114 11.3463 45.7534 11.0895C46.0258 10.7873 46.1619 10.4549 45.7383 10.1528C45.7232 10.1377 45.708 10.1225 45.6929 10.1074C44.6489 9.08008 44.9364 9.32181 45.7686 8.49085C46.3586 7.90163 45.8593 7.6599 45.5416 7.32751C45.2693 7.04046 44.9818 6.78362 45.2844 6.33037C45.587 5.86201 45.9955 5.54474 46.5402 5.80158C46.9185 5.98288 47.2211 6.34548 47.6598 6.70808C47.2362 7.07067 46.8882 7.31241 46.631 7.62968C46.5251 7.76565 46.5251 8.12825 46.631 8.24912C47.3118 9.08007 47.5993 9.09518 48.2499 8.47574C48.6887 8.05271 48.5828 7.70522 48.2045 7.31241C48.0078 7.116 47.7506 6.7534 47.8111 6.60232C48.0078 6.16418 48.2499 5.59006 48.9308 5.77136C49.2031 5.8469 49.6267 5.96777 49.6721 6.14907C49.7629 6.49656 49.6873 6.91959 49.5662 7.26708C49.4754 7.53903 49.2182 7.73544 49.0367 7.97717C50.2168 9.00453 50.2925 9.1254 51.4121 8.08293C51.3364 7.94695 51.2759 7.78076 51.17 7.675C50.6556 7.22176 50.3379 6.81383 50.5799 5.99799C50.7161 5.54474 50.2168 4.86487 49.9142 4.35118C49.7024 3.98859 49.5057 4.29075 49.3544 4.50227C49.1275 4.80443 48.7643 5.06127 48.492 4.75911C48.3104 4.5627 48.4163 4.09434 48.4466 3.76196C48.4617 3.67131 48.6735 3.58066 48.8097 3.55045C49.3998 3.41447 49.5511 3.0972 49.1275 2.62884C48.4315 1.87343 48.2045 0.951821 48.0381 0H0V72.1118C0.347992 71.8852 0.711115 71.6737 1.01372 71.4168C1.60379 70.9031 1.84587 71.4622 2.19387 71.7492C2.54186 72.0363 2.6629 72.3686 2.33004 72.7615C1.5584 73.6831 1.52814 73.7133 2.37543 74.5442C2.84446 74.9975 2.49647 75.209 2.22413 75.4809C1.5584 76.1608 1.57353 76.5083 2.29978 77.1126C2.6629 77.3997 2.95037 77.4601 3.28323 77.0371C3.85818 76.2968 4.20617 76.3119 4.81137 76.9767C5.28041 77.5055 5.20476 77.7472 4.53903 78.4271C4.10026 78.8803 3.79766 78.7292 3.4194 78.3666C3.19245 78.14 2.79907 77.8681 2.55699 77.9134C2.1636 78.004 1.84587 78.3364 1.83074 78.8652C1.81561 79.4393 2.23926 79.6659 2.57212 79.9228C2.67803 79.9983 3.10167 79.817 3.25297 79.6508C3.88844 78.971 4.10026 78.9256 4.66007 79.4544C5.1745 79.9379 5.18963 80.376 4.70546 80.8746C4.10026 81.5092 3.94896 81.5092 3.32862 80.8897C3.05628 80.6329 2.82933 80.2552 2.3603 80.5876C1.90639 80.9199 1.66431 81.3732 1.87613 81.8718C2.04256 82.2646 2.42082 82.6574 2.90498 82.461C3.28323 82.3099 3.5707 81.9775 3.9187 81.7056C4.47851 81.9171 5.14424 82.1437 4.94754 82.9142C4.84163 83.3373 4.41799 83.715 4.05487 84.0171C3.99435 84.0625 3.55557 83.715 3.31349 83.5035C3.05628 83.2768 2.79907 82.9142 2.43595 83.2466C2.17874 83.4883 1.87613 83.8358 1.861 84.138C1.84587 84.4099 2.1636 84.7574 2.42082 84.969C2.76881 85.256 3.05628 84.9992 3.34375 84.7272C4.05487 84.0927 4.07 84.0927 4.78111 84.8481C4.96267 85.0445 5.11398 85.2862 5.25015 85.4675C4.93241 85.9963 4.14565 86.238 4.47851 86.9481C4.61468 87.2352 5.06858 87.5222 5.40145 87.5676C5.99152 87.6431 6.17308 87.0841 6.43029 86.6611C5.34093 85.4222 5.3258 85.3618 5.91587 84.7726C6.27899 84.4251 6.95985 84.3948 7.30784 84.7423C7.80713 85.2258 7.68609 85.7093 6.80855 86.6309C7.00524 87.0992 7.21706 87.5374 7.83739 87.5978C8.56364 87.6582 8.79059 87.1446 9.0478 86.6611C8.18539 85.6942 8.06435 85.1956 8.5939 84.7272C8.86624 84.4855 9.71353 84.4553 9.87996 84.7574C10.0615 85.0747 10.228 85.4978 10.1523 85.8301C10.0766 86.1474 9.68327 86.374 9.44119 86.6309C9.86483 87.5374 10.4852 87.8395 11.1055 87.4316C11.6048 87.0992 11.6804 86.6006 11.2417 86.1927C10.8937 85.8754 10.7424 85.5431 11.0147 85.1049C11.2417 84.7272 11.514 84.4402 12.0436 84.5459C12.5882 84.6517 12.8757 85.0294 12.9514 85.4977C12.9816 85.6942 12.7093 85.9812 12.5126 86.1474C12.0587 86.5251 12.21 86.8424 12.5277 87.1899C12.8455 87.5223 13.4658 87.5978 13.7381 87.2956C14.0407 86.9481 14.2223 86.5704 13.844 86.1474C13.375 85.6186 13.375 85.1805 13.8289 84.7574C14.2223 84.3797 14.8578 84.3797 15.2663 84.8179C15.7353 85.3316 16.0984 85.3618 16.4767 84.7423C16.5675 84.6064 16.7793 84.561 16.8701 84.4251C17.097 84.0625 17.2332 84.0927 17.5358 84.4099C17.7779 84.6517 18.1864 84.8481 18.5192 84.8481C18.7462 84.8481 19.1093 84.5459 19.2001 84.3042C19.2909 84.0625 19.1698 83.6696 19.0034 83.443C18.5495 82.8236 18.5344 82.6272 19.1093 82.0984C19.5632 81.6754 19.9717 81.6602 20.4408 82.0984C20.8947 82.5063 21.2881 82.4308 21.6814 82.0228C22.0294 81.6602 22.2866 81.2976 21.742 80.9048C21.1973 80.512 21.4242 80.0588 21.6966 79.666C21.9538 79.2882 22.6952 79.2127 23.0583 79.4544C23.1642 79.53 23.255 79.6357 23.4214 79.7868C23.7997 79.3638 24.1628 78.9559 24.541 78.5328C24.4654 78.3062 24.3595 78.1249 24.3292 77.9134C24.2082 77.0975 24.6923 76.7349 25.4791 76.9767C25.7363 77.0522 26.0843 77.0371 26.3264 76.9162C27.1585 76.4932 27.9907 76.1155 28.9439 76.5385C29.0347 76.5839 29.186 76.4781 29.3221 76.4932C29.8366 76.5234 30.3359 76.5385 30.8503 76.599C31.2739 76.6443 31.6976 76.75 32.1061 76.8256C32.4843 76.886 32.8928 76.8558 33.256 76.9767C33.8914 77.1731 34.4664 77.4601 35.1624 77.1278C35.3742 77.022 35.813 77.158 36.0399 77.3242C36.8115 77.8681 37.0839 77.8983 37.8707 77.3393C38.2035 77.0975 38.3851 77.2335 38.5666 77.5659C38.8995 78.1853 39.7619 78.4422 40.473 78.3062C40.7605 78.2458 41.169 78.412 41.396 78.6084C41.8045 78.9861 42.1827 79.0767 42.7425 78.9407C43.1813 78.835 43.6957 78.9559 44.1648 78.9861C44.6641 79.0163 45.1634 79.0465 45.6627 79.0918C45.8896 79.1069 46.1317 79.1221 46.3435 79.1976C46.9487 79.4091 47.5237 79.5451 48.1742 79.3487C48.5071 79.2429 48.9156 79.3638 49.2788 79.3184C49.7932 79.258 50.3076 79.1372 50.822 79.0314C51.1398 78.971 51.4575 78.7746 51.745 78.8199C52.4561 78.9256 52.6679 78.5177 53.0159 78.004C53.4849 77.294 54.1355 76.7198 54.7105 76.0853C54.8769 75.904 55.0131 75.7076 55.1946 75.4658C54.6197 75.5414 54.196 75.6623 53.7875 75.632C53.5152 75.6169 53.031 75.3903 53.031 75.2392C53.031 74.8917 53.1974 74.5291 53.379 74.1967C53.4849 74.0003 53.727 73.8946 53.9993 73.6831C54.3019 73.9248 54.6197 74.1816 54.9374 74.4385C55.8301 73.7737 55.8452 73.5018 54.9979 72.7615C54.9525 72.7615 54.9072 72.7615 54.8769 72.7917C53.9993 73.5622 54.0296 73.532 53.0764 72.8219C52.8948 72.6859 52.4409 72.7312 52.1837 72.8521C51.8509 73.0183 51.5937 73.3356 51.4121 73.5018C50.8825 73.1241 50.4135 72.7917 49.9596 72.4593C50.2622 72.1118 50.4286 71.9456 50.5799 71.7643C51.1398 71.0995 51.4877 71.0391 52.0627 71.6586C52.4561 72.0967 52.8041 72.006 53.1823 71.6888C53.5606 71.3715 53.7875 71.0089 53.4395 70.5254C52.7133 69.5283 52.9705 68.9844 54.2717 68.7729C54.7407 68.6973 55.0131 68.5916 55.3157 68.0326C55.6788 67.3376 56.1781 66.3858 57.328 66.3556C57.6003 66.3556 57.8878 65.7965 58.0845 65.4491C58.145 65.3433 57.9483 65.026 57.797 64.89C57.7365 64.8447 57.4641 65.0109 57.2977 65.1016C57.1767 65.1771 57.0708 65.298 56.9648 65.4037C56.0116 64.7239 55.7544 64.2706 56.057 63.8476C56.3748 63.4094 56.9951 63.485 57.6306 64.044C58.145 63.1526 58.1147 63.0771 57.2523 62.6691C57.0708 62.5785 56.8438 62.3821 56.8287 62.2159C56.8135 62.0799 57.0254 61.8533 57.1767 61.7475C57.4036 61.5813 57.6608 61.4756 57.918 61.3547C58.5838 61.0677 58.8258 60.4784 58.8258 59.8439C58.8258 59.5568 58.493 59.2547 58.2963 58.9525C59.2041 57.6834 59.2041 57.6834 57.8727 56.7769C57.2221 56.928 56.8135 58.1064 55.936 57.2604C55.5275 56.8676 55.5124 56.2934 55.9057 55.9459C56.8589 55.0546 57.3734 56.097 58.0845 56.4747C58.4325 56.097 58.5686 55.674 58.4325 55.1603C58.1147 53.9366 58.5989 53.1207 59.8093 52.6221C60.3086 52.4106 60.7322 51.9876 61.2013 51.6703C61.6854 51.353 62.1545 50.9904 62.684 50.7487C63.2287 50.4919 63.5767 50.2199 63.5464 49.5551C63.5162 48.9508 63.607 48.3465 63.6675 47.7422C63.7583 46.8961 63.2438 46.4882 62.4419 46.7752ZM57.9029 46.5637C57.5398 46.5486 56.753 47.1832 56.8892 47.3796C57.1918 47.8026 57.6154 48.1954 58.0693 48.4371C58.1753 48.4976 58.7199 47.9235 58.8864 47.5609C59.0528 47.2285 58.3266 46.5637 57.9029 46.5637ZM58.7956 44.7054C58.8107 44.3428 58.3417 43.9198 57.918 43.9349C57.4793 43.95 56.9497 44.3881 56.9648 44.7356C56.9648 45.1435 57.4339 45.6421 57.8273 45.6421C58.3114 45.6421 58.7653 45.204 58.7956 44.7054ZM49.188 15.9997C49.188 16.5889 49.6419 16.6342 50.2319 16.8306C50.4438 16.5436 50.8674 16.1961 50.8372 15.909C50.8069 15.5917 50.3681 15.2291 50.0353 15.0781C49.7024 14.927 49.188 15.5615 49.188 15.9997ZM49.0669 18.4925C49.0518 18.9156 49.5814 19.3688 50.0353 19.3688C50.6859 19.399 50.8523 18.9911 50.8977 18.5227C50.9431 18.0393 50.5194 17.6616 49.9899 17.6616C49.5814 17.6616 49.0821 18.1148 49.0669 18.4925ZM50.7766 13.0687C50.7615 12.7514 50.5497 12.4492 50.0958 12.419C49.657 12.3888 49.0669 12.9629 49.2334 13.3406C49.3695 13.6579 49.7478 14.0356 50.0655 14.0809C50.5346 14.1262 50.7766 13.6881 50.7766 13.0687ZM49.188 10.606C49.1728 11.0593 49.5662 11.4672 50.0201 11.4823C50.4135 11.4974 51.0036 10.9686 50.8674 10.6362C50.7312 10.3038 50.3832 9.92614 50.0504 9.82038C49.5965 9.6693 49.2031 10.1074 49.188 10.606ZM39.6409 25.0344C40.0645 24.5358 40.6546 24.0675 40.5789 23.8711C40.3974 23.4027 39.883 23.0703 39.5047 22.6926C39.1416 23.0552 38.5061 23.4178 38.5061 23.7804C38.5212 24.143 39.1416 24.5056 39.6409 25.0344ZM39.5501 30.2468C39.9586 29.8842 40.3671 29.5216 40.8513 29.0985C40.3822 28.6604 39.9889 28.2827 39.5804 27.9201C38.2489 28.8417 38.2338 29.1137 39.5501 30.2468ZM35.9491 26.4244C35.9643 26.8474 36.5846 27.482 36.9477 27.346C37.3411 27.1798 37.6437 26.8021 37.9917 26.515C37.8707 26.0165 37.2352 25.397 36.8721 25.4121C36.4938 25.4272 35.934 26.0165 35.9491 26.4244ZM36.0399 28.9928C36.0399 29.4914 36.4182 29.9446 36.8721 29.9597C37.2654 29.9748 38.0068 29.3403 37.8404 29.023C37.6437 28.6453 37.2806 28.2676 36.9023 28.1014C36.5241 27.9503 36.055 28.5093 36.0399 28.9928ZM36.1004 24.2337C36.8115 24.9589 37.0536 24.974 37.7193 24.3092C38.2035 23.8258 38.143 23.72 36.8872 22.5415C35.6314 23.7351 35.6314 23.7351 36.1004 24.2337ZM37.7193 42.1974C37.5529 41.8499 37.2352 41.5024 36.9023 41.3362C36.5997 41.1852 36.055 41.7895 36.0399 42.1974C36.0248 42.7413 36.3274 42.9679 36.6754 43.0133C37.2503 43.0133 37.8707 42.4996 37.7193 42.1974ZM38.0068 39.4779C37.5227 39.1455 37.2201 38.8132 36.8569 38.7225C36.5089 38.6168 36.0702 39.206 36.1156 39.5837C36.1609 40.1276 36.5846 40.3844 36.9931 40.3391C37.2957 40.2787 37.5529 39.8707 38.0068 39.4779ZM36.0399 36.834C36.0399 37.3779 36.403 37.7556 36.9628 37.7556C37.4016 37.7556 38.0068 37.2419 37.8555 36.8642C37.7042 36.4865 37.3108 36.1088 36.9326 35.9426C36.5543 35.8066 36.0399 36.3958 36.0399 36.834ZM40.5033 42.0312C40.2007 41.7895 39.883 41.3362 39.5955 41.3513C39.2778 41.3816 38.8995 41.7744 38.7179 42.1068C38.5515 42.4089 39.187 43.0888 39.535 42.9679C39.8981 42.8471 40.1856 42.5449 40.5184 42.3183C40.5033 42.2276 40.5033 42.137 40.5033 42.0312ZM40.3822 39.5535C40.3974 39.07 39.9889 38.511 39.6106 38.647C39.2475 38.7829 38.8238 39.1909 38.7179 39.5535C38.5818 40.0218 39.0508 40.2938 39.5047 40.3542C39.9889 40.4449 40.3671 40.0672 40.3822 39.5535ZM40.5033 44.8414C40.5184 44.4032 40.0343 43.9198 39.5804 43.9198C39.1416 43.9349 38.6725 44.4032 38.5515 44.9924C38.8844 45.2795 39.187 45.6119 39.5652 45.8385C39.7619 45.9594 40.4882 45.1586 40.5033 44.8414ZM41.3052 39.5233C41.2749 40.0067 41.6834 40.46 42.2735 40.5959C42.5912 40.2787 43.0149 40.0218 43.2116 39.6441C43.3629 39.342 42.561 38.5865 42.1676 38.5865C41.7288 38.5714 41.3354 39.0096 41.3052 39.5233ZM42.1827 41.306C41.6229 41.3211 41.2901 41.6686 41.3052 42.1974C41.3203 42.7262 41.6834 43.0284 42.5005 43.0133C42.6366 42.8471 42.9998 42.5751 43.1057 42.2276C43.2418 41.8046 42.6518 41.2909 42.1827 41.306ZM43.1359 44.8263C43.1208 44.373 42.5459 43.814 42.1222 43.8442C41.6986 43.8744 41.1993 44.3881 41.2144 44.796C41.2295 45.204 41.8045 45.7781 42.1827 45.763C42.6518 45.7479 43.1511 45.2644 43.1359 44.8263ZM46.1317 44.8263C45.6021 44.4032 45.2541 43.9953 44.8002 43.8291C44.4371 43.6931 43.6655 44.4788 43.8319 44.8263C44.0437 45.2493 44.4825 45.7932 44.8608 45.8234C45.2088 45.8385 45.6173 45.2644 46.1317 44.8263ZM45.7686 42.1974C45.7686 41.7744 45.0877 41.0341 44.77 41.2003C44.3766 41.4118 43.8168 41.8953 43.8622 42.1672C43.9378 42.5751 44.4371 42.9679 44.8456 43.2248C45.0726 43.391 45.7837 42.5751 45.7686 42.1974ZM46.2225 44.932C46.8277 45.1133 46.8882 46.0802 47.675 45.763C48.0835 45.5968 48.5676 45.2644 48.3709 44.7356C48.2348 44.373 47.8414 43.9047 47.5085 43.8442C46.8125 43.7082 46.6007 44.4032 46.2225 44.932ZM33.4527 34.2656C33.5586 34.598 33.9217 35.0059 34.2546 35.0965C34.6631 35.2023 35.0867 34.9454 35.117 34.6735C35.1472 33.8274 34.8446 33.4497 34.3302 33.4346C33.9368 33.4044 33.3316 33.8879 33.4527 34.2656ZM34.0881 35.9577C33.9066 36.275 33.6342 36.562 33.5586 36.8944C33.4224 37.4383 33.8763 37.7858 34.2848 37.7103C34.6025 37.6498 35.0413 37.1966 35.0565 36.8944C35.0716 36.5922 34.6328 36.275 34.3907 35.9577C34.2999 35.9577 34.194 35.9577 34.0881 35.9577ZM33.4073 31.7274C33.4224 32.1353 33.8763 32.4979 34.3605 32.4979C34.9657 32.4979 35.0111 32.0447 35.117 31.7123C35.1018 31.1684 34.6933 30.7756 34.2394 30.7907C33.846 30.8058 33.4073 31.3195 33.4073 31.7274ZM33.4073 29.023C33.4073 29.4158 33.8612 29.8691 34.2848 29.8842C34.8144 29.8993 35.0565 29.6122 35.1321 29.0834C35.0262 28.6604 34.9808 28.192 34.3605 28.1769C33.9066 28.1618 33.4073 28.5849 33.4073 29.023ZM33.4073 26.3942C33.4073 26.8625 33.8158 27.2402 34.3302 27.2402C34.769 27.2402 35.3591 26.7114 35.1926 26.3337C35.0413 25.9711 34.6782 25.5783 34.2999 25.4423C33.9217 25.2913 33.4073 25.8956 33.4073 26.3942ZM35.3439 39.5233C34.9203 39.1607 34.6631 38.8132 34.3302 38.6923C33.9671 38.5563 33.4224 39.1304 33.4073 39.5081C33.4073 39.8859 33.952 40.46 34.3151 40.324C34.6631 40.2182 34.9203 39.8859 35.3439 39.5233ZM32.6054 34.1598C32.3028 33.9181 31.985 33.4648 31.6976 33.4799C31.3798 33.5102 31.0016 33.903 30.82 34.2354C30.6536 34.5375 31.2891 35.2174 31.6371 35.0965C32.0002 34.9757 32.2876 34.6735 32.6205 34.4469C32.6054 34.3562 32.6054 34.2505 32.6054 34.1598ZM31.7278 32.6339C31.985 32.3317 32.3028 32.0749 32.4692 31.7274C32.6054 31.4252 32.1061 30.836 31.7581 30.8058C31.3798 30.7605 30.7292 31.2439 30.82 31.6065C30.9108 31.9691 31.2134 32.2713 31.4252 32.6037C31.516 32.6037 31.6219 32.6188 31.7278 32.6339ZM30.82 36.9246C30.6838 37.3779 31.1529 37.7707 31.8943 37.7405C32.0304 37.529 32.4692 37.1815 32.4238 36.8944C32.3784 36.5771 31.8943 36.3203 31.6068 36.0483C31.3344 36.3354 30.9108 36.5922 30.82 36.9246ZM32.4541 39.4326C32.4087 39.1455 32.0607 38.8132 31.7732 38.7074C31.3193 38.5261 30.9713 38.8132 30.7595 39.2664C30.3661 40.0974 31.2891 40.1578 31.4706 40.6866C32.091 40.4297 32.56 40.0823 32.4541 39.4326ZM30.7746 26.1675C30.7746 26.7568 31.1983 27.2402 31.6068 27.2553C32.0607 27.2704 32.4843 26.8776 32.4843 26.4244C32.4843 26.0165 32.0304 25.5632 31.6068 25.5632C31.0772 25.533 30.82 25.82 30.7746 26.1675ZM32.6054 28.9021C32.3028 28.6604 32.0304 28.3129 31.6824 28.192C31.3193 28.0712 30.6838 28.6604 30.82 29.023C30.9411 29.3554 31.3193 29.7935 31.6371 29.8237C31.9397 29.854 32.2876 29.4309 32.6054 29.2194C32.6054 29.1136 32.6054 29.0079 32.6054 28.9021ZM29.8517 34.2807C29.8517 33.8728 29.3827 33.4044 28.9741 33.4195C28.4446 33.4497 28.142 33.7519 28.0663 34.2505C28.0058 34.6282 28.5959 35.2476 28.9893 35.2627C29.3978 35.2627 29.8517 34.749 29.8517 34.2807ZM28.9893 32.4979C29.3675 32.513 29.9576 31.9842 29.8214 31.6367C29.7004 31.3043 29.2768 30.8511 29.0044 30.8662C28.7169 30.8662 28.3084 31.3195 28.1874 31.6518C28.0361 32.0447 28.5354 32.4828 28.9893 32.4979ZM28.0663 28.9928C28.0361 29.4309 28.4749 29.8691 28.9741 29.8842C29.3827 29.8993 29.8971 29.4158 29.8366 29.023C29.776 28.5395 29.534 28.192 28.9741 28.1769C28.5202 28.1618 28.0966 28.5395 28.0663 28.9928ZM28.0361 26.5452C28.263 26.8474 28.5808 27.1496 28.9288 27.2704C29.1255 27.3309 29.534 27.1042 29.6853 26.8927C30.124 26.2733 29.8063 25.6992 28.7926 25.261C28.6262 25.4423 28.4295 25.6387 28.2782 25.8805C28.1571 26.0769 27.9604 26.4395 28.0361 26.5452ZM46.4192 10.6211C46.3889 10.9535 46.9487 11.3463 47.1605 11.6032C47.7657 11.6183 48.3407 11.0895 48.3558 10.6664C48.3709 10.2585 47.8111 9.57865 47.4329 9.71462C47.0092 9.8506 46.4645 10.2585 46.4192 10.6211ZM46.3132 13.3255C46.6764 13.6277 46.9941 14.0507 47.4177 14.2018C47.796 14.3378 48.2802 13.7334 48.265 13.2802C48.2499 12.7363 47.796 12.1622 47.3875 12.3435C46.979 12.555 46.6764 12.9931 46.3132 13.3255Z" fill="#0D052F"/>
<path fill-rule="evenodd" clip-rule="evenodd" d="M68.2759 33.7303C68.2759 34.7429 68.7484 35.2493 69.6936 35.2493H76.7618C82.9726 35.2493 87.1716 33.9801 89.3589 31.4418C91.5597 28.9034 92.6601 25.3187 92.6601 20.6876C92.6601 16.0565 91.5597 12.4852 89.3589 9.97391C87.1716 7.46258 82.9726 6.20691 76.7618 6.20691H69.6936C68.7484 6.20691 68.2759 6.71323 68.2759 7.72586V33.7303ZM78.6401 16.0367L79.9674 12.0218L81.2947 16.0367L85.302 14.5672L82.9538 18.1097L86.6038 20.2877L82.3667 20.6813L82.9282 24.8799L79.9674 21.8359L77.0065 24.8799L77.5681 20.6813L73.331 20.2877L76.981 18.1097L74.6583 14.5672L78.6401 16.0367Z" fill="#0D052F"/>
</svg>
