<svg width="168" height="168" viewBox="0 0 168 168" fill="none" xmlns="http://www.w3.org/2000/svg">
<path d="M140.72 33.4117C140.834 32.8249 140.471 31.6332 139.675 31.4556C139.153 31.1854 138.53 31.7362 138.021 32.0553C136.888 32.7631 135.817 33.5687 134.494 34.4927C134.528 33.9136 125.442 40.5719 120.233 41.5294C115.997 42.3092 111.701 42.8575 107.408 43.1972C104.412 43.434 101.342 43.4057 98.3637 43.0325C93.7129 42.4457 90.5214 39.5141 88.5576 35.4398C86.8744 31.9446 84.0278 23.3817 84.697 22.836C86.1615 21.6469 87.6182 20.4141 88.9 19.0346C90.0221 17.8275 90.7402 16.3527 90.0041 14.6051C89.2474 12.8086 87.9966 11.9206 85.9453 12.0056C83.2505 12.0493 81.5287 12.5692 79.4825 13.3233C75.7196 14.708 72.8447 17.516 69.9286 20.1542C67.8156 22.0665 65.4889 23.3714 62.6629 23.7343C62.197 23.7935 61.7054 23.6725 61.2241 23.6339C61.134 22.7073 62.4415 19.5004 64.2329 17.1119C65.1877 15.0272 64.184 13.2693 61.9319 12.7314C59.1599 11.9618 54.5323 14.9345 53.2016 16.3269C48.4865 20.7384 45.3542 27.5383 45.3645 34.8504C45.3671 36.9635 45.192 39.1384 44.667 41.1768C43.9077 44.1238 41.8024 46.296 38.1708 47.6987C36.7964 48.5301 30.7814 48.2675 30.5781 52.9467C30.241 60.2974 38.701 63.2958 46.6565 66.2222C50.2135 67.329 53.8142 68.0599 57.523 68.3276C58.6967 68.289 59.1419 69.5939 57.9039 70.2759C56.3314 71.4135 54.7562 72.5692 53.0832 73.5446C50.8106 74.8727 48.5637 76.4247 46.0929 77.1891C42.6388 78.2572 41.0302 80.2262 41.6376 83.8784C41.9465 85.7392 43.1896 86.8742 45.0505 87.1522C47.4956 87.5177 49.6601 86.7713 51.6831 85.5436C55.0084 83.5309 58.2874 81.4384 61.5947 79.4C63.2059 78.4091 64.8197 77.4233 66.4798 76.5225C67.9056 75.8893 68.5259 77.0321 67.8078 78.0101C67.4115 78.6253 66.8092 79.1606 66.1889 79.5724C63.0026 81.6958 59.7931 83.7883 56.563 85.8473C55.5875 86.4702 54.8334 87.1728 54.7665 88.3979C54.6275 90.8584 56.3571 92.8222 58.8228 92.9689C62.8173 93.2109 66.4257 92.1994 69.5889 89.6745C70.8835 88.6399 72.1987 87.6155 73.5885 86.7147C76.6102 84.7586 79.5494 82.6018 82.7692 81.0421C87.0185 78.983 91.7852 78.8389 96.4102 78.512C106.378 77.8068 118.663 73.8741 121.391 66.8708C124.13 62.2097 124.691 55.7161 121.692 51.4796C125.628 50.9031 129.815 49.5236 132.242 48.0102C135.14 46.0953 137.493 43.5447 138.857 40.3455C139.789 38.1629 140.265 35.759 140.72 33.4117Z" fill="#373179"/>
<path d="M58.9052 42.2552C59.0133 41.2823 58.985 40.258 58.8022 39.2954C58.1665 35.9417 53.8477 34.31 51.1967 36.4205C49.4157 37.8386 48.3758 41.4857 49.9562 43.7223C50.6742 44.7003 51.5725 45.892 54.0871 46.0104C56.9105 45.9409 58.6195 44.811 58.9052 42.2552ZM69.6559 42.4199C70.0291 41.0919 69.9596 38.2478 69.8721 38.2401C69.4319 35.4759 66.6085 33.7978 63.834 34.5622C61.5613 35.1876 60.8278 36.8915 60.4443 38.8115C59.7777 42.1265 61.3477 44.3271 64.7837 45.0478C67.0229 45.5188 69.0639 44.5253 69.6559 42.4199Z" fill="white"/>
<path d="M64.9534 43.7532C63.3808 44.1212 61.7027 43.1226 61.2781 41.5655C60.789 39.7793 61.8469 37.7743 63.4812 37.3831C65.2082 36.9713 66.7576 37.8284 67.1875 39.4344C67.7846 41.6787 66.9532 43.2848 64.9534 43.7532Z" fill="#373179"/>
<path d="M50.3833 40.1293C50.983 38.9866 52.1798 38.2196 53.2479 38.356C54.7613 38.549 55.8011 39.4936 56.0353 40.9195C56.0919 41.2515 56.11 41.5964 56.1022 41.9336C56.0662 43.3183 55.5025 44.4868 54.4087 44.8008C53.042 45.192 51.5595 44.9989 50.6638 43.8485C49.9355 42.613 49.8145 41.2129 50.3833 40.1293Z" fill="#373179"/>
<path d="M118.743 91.8032C124.807 90.4596 128.678 84.6609 127.391 78.8519C126.104 73.0429 120.143 69.4241 114.079 70.7677C108.015 72.1112 104.144 77.9099 105.431 83.7215C106.721 89.5279 112.679 93.1492 118.743 91.8032Z" fill="#373179"/>
<path d="M116.527 86.3183C113.938 86.6425 111.459 84.8589 111.096 82.4164C110.682 79.6161 112.787 76.7103 115.482 76.3654C118.331 75.9974 120.635 77.5442 120.99 80.064C121.484 83.5823 119.826 85.9064 116.527 86.3183Z" fill="#F1491F"/>
<path d="M136.049 79.0139C136.049 79.0139 145.811 72.721 153.826 64.9379C156.019 62.8119 156.397 65.571 158.384 65.0202C160.371 64.472 157.108 69.7277 154.851 71.4418C147.659 76.8982 136.049 79.0139 136.049 79.0139Z" fill="#F1491F"/>
<path d="M130.016 87.1856C139.127 85.8626 152.145 78.1413 149.978 82.6017C147.206 88.3077 130.016 87.1856 130.016 87.1856Z" fill="#F1491F"/>
<path d="M130.672 77.413C134.61 73.941 136.916 69.9516 138.589 66.4204C140.265 62.8917 142.841 64.7191 142.841 64.7191C142.841 64.7191 144.244 67.2672 140.708 70.3557C135.913 74.5407 130.672 77.413 130.672 77.413Z" fill="#F1491F"/>
<path d="M31.0362 58.0272C33.3552 58.4982 35.6587 56.7841 36.1838 54.1948C36.7114 51.6082 35.2598 49.1296 32.9434 48.6586C30.627 48.1851 28.3235 49.9018 27.7959 52.4884C27.2708 55.0751 28.7198 57.5562 31.0362 58.0272Z" fill="#F1491F"/>
<path d="M28.7404 94.1992C28.55 91.5379 27.034 89.3965 24.1848 87.7776C23.0086 87.111 21.593 86.5499 19.9355 86.0969C19.2149 85.9013 18.4479 86.1252 17.6346 86.7713C17.0117 87.268 16.3966 87.9706 15.7918 88.8843C15.1329 89.8933 14.7622 90.4698 14.6799 90.6165L11.7406 95.7795C10.7343 97.5065 9.96986 99.2644 9.44224 101.051C8.97896 101.98 8.87858 102.855 9.14625 103.678C9.41393 104.499 10.0136 105.176 10.9453 105.707C11.5733 106.062 12.2039 106.273 12.8396 106.335C13.4753 106.399 13.9695 106.306 14.3221 106.059C15.0299 105.568 15.5472 105.032 15.8767 104.453C15.9307 104.355 16.1006 103.91 16.3837 103.112C16.672 102.381 16.9191 101.874 17.125 101.586C20.1569 102.734 22.3935 102.994 23.8374 102.366C25.5592 101.622 26.8461 100.502 27.6981 99.0044C28.4856 97.6223 28.8279 96.0291 28.725 94.2249L28.7636 94.2146L28.7404 94.1992ZM21.6085 95.8953C21.2559 96.1424 20.7514 96.356 20.0951 96.5362C19.7322 96.6494 19.4414 96.7292 19.2226 96.7755C19.5778 96.0394 19.8455 95.4784 20.023 95.0897C20.144 94.8401 20.3473 94.4643 20.6305 93.9676C20.8312 93.6124 21.1658 93.1208 21.6317 92.4902C22.7513 93.2546 23.055 94.0885 22.5402 94.9893C22.3394 95.342 22.0332 95.656 21.6214 95.9339L21.6085 95.8953ZM41.7329 112.035C42.7907 109.271 43.5422 105.884 43.9875 101.874C44.1188 100.755 44.0184 99.6968 43.6864 98.6956C43.1279 96.9969 41.8127 95.7512 39.7382 94.9585C37.8001 94.2172 36.068 94.3176 34.5366 95.2596C32.5625 96.4847 30.8973 98.0882 29.546 100.067C28.5937 101.468 27.5282 103.498 26.352 106.157C26.0457 106.854 25.8552 107.297 25.7832 107.485C24.679 110.373 24.7228 112.46 25.9144 113.747L25.9453 113.819C26.5707 114.257 27.1164 114.563 27.5848 114.743C28.5525 115.114 29.4225 115.039 30.1972 114.522C30.8844 113.914 31.3657 113.255 31.6359 112.548C31.7209 112.223 31.7749 111.976 31.8007 111.806C32.7221 112.041 33.5225 112.306 34.1994 112.604C33.9292 113.315 33.8185 113.935 33.8726 114.47C33.8828 114.653 33.9807 115.067 34.1711 115.713C34.5546 116.316 35.1697 116.779 36.0165 117.103C36.4824 117.281 36.9534 117.402 37.4244 117.464C38.3689 117.587 39.0767 117.263 39.5503 116.493L39.5606 116.468C40.3868 115.137 41.11 113.662 41.7329 112.035ZM35.0591 107.063C34.7502 107.014 34.5598 106.978 34.4903 106.952C34.2844 106.872 34.1737 106.721 34.1608 106.497C34.1943 106.252 34.6061 105.359 35.3937 103.82C35.8492 102.942 36.4695 101.812 37.2571 100.43C37.5762 100.314 37.7744 100.34 37.8516 100.508C37.0048 103.593 36.2559 105.812 35.5996 107.166C35.5481 107.145 35.3653 107.112 35.0591 107.063ZM45.9899 108.092C45.5086 110.28 45.2615 112.331 45.2435 114.249C45.2281 116.164 45.4494 117.644 45.9101 118.686C46.5819 120.794 47.9383 121.988 49.9818 122.266C51.2507 122.439 52.2133 122.045 52.8696 121.087C53.2866 120.457 53.7164 119.44 54.1642 118.04C54.7459 116.177 55.0934 115.116 55.204 114.856C55.3353 114.864 55.4743 114.97 55.621 115.17C55.6184 115.626 55.5103 116.457 55.2941 117.664C55.1011 118.668 55.0162 119.523 55.0367 120.228C55.0548 121.123 55.3199 121.893 55.8269 122.531C56.4961 123.126 57.2837 123.52 58.1896 123.71C58.9695 123.875 59.6335 123.816 60.1843 123.535C61.7981 122.341 63.2291 120.274 64.4722 117.337C65.8569 114.01 66.8838 111.51 67.5608 109.835C68.1604 108.427 68.5028 107.524 68.5851 107.125C68.8065 106.075 68.6803 105.194 68.2042 104.489C67.5865 103.563 66.8247 103.053 65.9187 102.955C65.3988 102.904 64.9973 102.932 64.709 103.043C64.2715 103.138 63.8313 103.434 63.3861 103.928C61.9396 105.496 60.6785 108.237 59.6078 112.151C59.546 112.347 59.3967 112.391 59.1548 112.283C59.0904 111.778 59.1625 111.341 59.3736 110.967C59.4611 110.741 59.5331 110.123 59.5949 109.114C59.6747 107.845 59.6309 106.929 59.4662 106.363C59.2346 105.578 58.7275 105.112 57.9451 104.965C56.8152 104.934 55.9067 105.434 55.2169 106.461C54.4731 107.647 53.9249 108.545 53.5697 109.15L53.3458 109.953C53.2119 110.399 53.0549 110.697 52.8722 110.846C52.7281 110.818 52.6071 110.707 52.517 110.517L53.4307 105.773C53.5491 104.324 53.6006 103.447 53.5903 103.141C53.4976 101.514 52.7641 100.556 51.3871 100.266C50.736 100.129 50.0719 100.224 49.395 100.556C48.085 101.208 46.9499 103.72 45.9899 108.092ZM79.5057 112.488C79.413 112.483 79.0887 112.535 78.5353 112.648C77.9794 112.761 77.6371 112.813 77.5084 112.805C77.3411 112.795 77.215 112.741 77.1301 112.64C77.4029 111.863 77.5522 111.261 77.5805 110.834C77.686 110.656 78.1493 110.481 78.978 110.314C79.8789 110.149 80.3988 110.005 80.5352 109.884C81.4386 109.405 81.9276 108.574 82.0048 107.392C82.064 106.507 81.6728 105.647 80.8363 104.813C80.041 104.505 78.9677 104.304 77.6191 104.216C75.1251 104.057 73.3878 104.25 72.4046 104.798C71.4909 105.166 70.8938 105.925 70.6158 107.076C70.4537 108.437 70.3224 109.459 70.222 110.139L70.0831 119.587C70.0419 121.957 70.5721 123.78 71.6788 125.056C72.9245 125.581 73.8433 125.864 74.4327 125.903C75.8921 125.996 76.6874 125.056 76.8161 123.08C76.8289 122.876 76.8161 122.189 76.7826 121.018C76.7594 119.942 76.7672 119.237 76.8083 118.907C78.036 118.856 78.8159 118.841 79.1479 118.864C80.1414 118.704 80.8595 118.205 81.3047 117.361C81.7938 116.668 82.0537 116.092 82.0846 115.631C82.1103 115.224 82.01 114.774 81.7835 114.277L81.7809 114.306C81.2584 113.176 80.5017 112.571 79.5057 112.488ZM95.4039 111.598C94.5906 111.626 93.9214 111.863 93.3989 112.306C93.0643 112.244 92.8636 112.084 92.7992 111.83C92.8147 111.719 92.8275 111.279 92.8404 110.507C92.8378 109.902 92.897 109.459 93.0154 109.181C93.1647 109.176 93.368 109.168 93.628 109.158C94.6807 109.125 95.4966 108.847 96.0731 108.327C96.647 107.807 96.9224 107.15 96.8941 106.355C96.8813 105.985 96.8169 105.655 96.6934 105.362C96.4102 104.649 95.548 104.317 94.1041 104.366C93.3835 104.391 92.6268 104.499 91.8366 104.692L87.2167 105.323C86.4755 105.866 86.0148 107.011 85.8346 108.756C85.5257 111.768 85.4228 114.437 85.5206 116.766C85.675 120.817 86.1512 123.458 86.9542 124.688C87.6851 125.535 88.2308 126.034 88.5885 126.189C89.4353 126.549 90.3747 126.711 91.412 126.675C92.5959 126.637 93.6125 126.351 94.467 125.823C95.4296 125.234 96.1735 124.518 96.7011 123.677C97.2287 122.835 97.432 122.019 97.3136 121.226C97.2158 120.526 96.7809 120.043 96.0139 119.772C95.5249 119.584 94.9046 119.605 94.153 119.834C93.7567 119.626 93.5534 119.299 93.5379 118.856C93.6717 117.888 93.7155 117.294 93.6717 117.072C94.0784 117.023 94.3538 117.023 94.5057 117.072C95.3421 117.137 96.1091 116.843 96.8092 116.19C97.5839 115.497 97.9519 114.661 97.9211 113.68C97.9288 113.384 97.8902 113.098 97.8078 112.823C97.1489 111.974 96.3485 111.567 95.4039 111.598ZM114.337 114.823C114.007 114.738 113.696 114.72 113.402 114.761C113.019 114.815 112.373 115.376 111.469 116.442C110.566 117.505 109.905 118.079 109.485 118.156C109.06 118.05 108.79 117.744 108.679 117.235C108.569 116.727 108.476 116.208 108.401 115.677C108.386 115.585 108.193 113.585 107.817 109.675L108.021 109.143C108.257 109.089 108.414 109.207 108.494 109.495C108.602 109.871 108.672 110.085 108.697 110.139C109.871 111.279 111.091 111.691 112.355 111.379C113.148 111.171 113.74 110.61 114.133 109.693C114.429 109.014 114.512 108.301 114.386 107.552C114.254 106.767 113.969 106.08 113.528 105.49C112.79 104.512 111.848 103.781 110.702 103.303C109.557 102.821 108.381 102.67 107.171 102.842C106.126 102.994 105.182 103.339 104.332 103.882C103.486 104.425 102.87 105.061 102.49 105.786C101.71 107.264 101.288 108.813 101.221 110.429C101.131 112.535 101.2 114.396 101.434 116.007C101.944 119.69 103.501 122.382 106.103 124.083C107.341 124.897 108.831 125.177 110.571 124.928C111.874 124.74 113.052 124.3 114.113 123.605C116.01 122.359 116.766 120.4 116.383 117.726C116.372 117.651 116.344 117.525 116.3 117.345C116.275 117.18 116.257 117.052 116.244 116.959L116.241 116.933C116.061 115.688 115.428 114.982 114.337 114.823ZM129.386 99.8332C128.068 99.7097 127.085 99.6196 126.439 99.5629C125.146 99.6813 123.939 99.8924 122.812 100.194C120.666 100.773 118.936 101.65 117.623 102.827C116.602 103.732 116.236 104.723 116.524 105.794C116.699 106.438 117.098 107.068 117.724 107.686C118.166 108.121 118.836 108.363 119.731 108.409C120.39 108.442 121.026 108.378 121.633 108.213C121.847 108.157 122.004 108.095 122.102 108.031C122.153 108.859 122.287 109.819 122.503 110.911L123.293 114.378C123.764 116.419 123.981 117.366 123.945 117.222C124.398 118.843 124.977 119.963 125.679 120.578C126.611 121.399 127.924 121.613 129.62 121.214C130.665 120.969 131.28 120.115 131.46 118.648C131.604 117.479 131.457 116.081 131.022 114.455C130.829 113.739 130.593 113.037 130.309 112.347C128.912 108.929 128.202 107.117 128.186 106.911C128.202 106.829 128.817 106.497 130.029 105.912C131.244 105.326 131.908 104.924 132.018 104.7C132.307 104.126 132.338 103.39 132.114 102.489C132 102.062 131.88 101.72 131.753 101.468L131.725 101.473C131.308 100.628 130.528 100.083 129.386 99.8332Z" fill="#F1491F"/>
<path d="M37.9958 134.245C37.9108 134.211 37.5866 134.165 37.0229 134.108C36.4592 134.052 36.1169 134 35.996 133.954C35.8415 133.895 35.736 133.804 35.6845 133.683C36.1761 133.022 36.4953 132.492 36.6497 132.093C36.8015 131.954 37.2983 131.926 38.1373 132.008C39.0459 132.119 39.5864 132.137 39.7537 132.062C40.7574 131.872 41.4704 131.226 41.8951 130.119C42.2116 129.287 42.0932 128.351 41.5425 127.308C40.8733 126.775 39.9081 126.266 38.6469 125.785C36.3125 124.891 34.5932 124.559 33.4942 124.794C32.5111 124.873 31.7183 125.422 31.1109 126.436C30.5524 127.689 30.1252 128.626 29.8292 129.246L26.8976 138.229C26.1564 140.481 26.1229 142.38 26.7998 143.927C27.8345 144.797 28.6298 145.34 29.1832 145.551C30.5473 146.074 31.5845 145.41 32.2923 143.562C32.3644 143.371 32.5574 142.712 32.8688 141.582C33.1674 140.548 33.3836 139.879 33.52 139.575C34.7065 139.889 35.4555 140.108 35.7669 140.226C36.7629 140.37 37.5968 140.105 38.2712 139.431C38.9455 138.916 39.365 138.442 39.5298 138.01C39.6739 137.629 39.7125 137.168 39.643 136.625L39.6327 136.651C39.468 135.421 38.9249 134.618 37.9958 134.245ZM56.0122 150.475C56.3957 149.008 55.863 146.918 54.4113 144.203C55.5129 143.649 56.1461 143.309 56.3134 143.181C57.3635 142.385 58.0919 141.245 58.4985 139.765C58.8974 138.319 58.9386 136.628 58.6221 134.69C58.0558 132.685 56.4137 131.28 53.6984 130.471C51.3254 130.098 49.7168 129.926 48.8674 129.952C47.0709 130.013 45.8818 130.685 45.2976 131.964C44.5074 133.74 43.5938 136.391 42.5565 139.917C41.6454 143.037 41.2079 144.63 41.249 144.697L40.9685 145.77C40.603 147.162 40.567 148.184 40.8553 148.83C41.0714 149.327 41.6711 149.847 42.6569 150.392C42.9246 150.537 43.2386 150.658 43.5963 150.753C44.4199 150.969 45.3182 150.899 46.2911 150.549C46.9937 150.053 47.4905 149.257 47.7761 148.161C47.8637 147.824 47.9434 147.42 48.0104 146.944C48.7516 150.619 49.9021 152.578 51.4669 152.814C52.2777 152.93 53.1605 152.742 54.1128 152.246C54.8489 151.847 55.4125 151.409 55.8063 150.938L55.8321 150.946C55.9247 150.74 55.9839 150.583 56.0122 150.475ZM52.1387 138.844C52.0126 139.328 51.6523 139.727 51.0654 140.041C50.4735 140.355 49.8094 140.54 49.0682 140.594C49.2972 139.716 49.5315 138.782 49.7734 137.794C49.9742 136.947 50.1209 136.499 50.2109 136.445C50.7617 136.322 51.0706 136.268 51.1426 136.288C51.2147 136.306 51.2996 136.347 51.3975 136.412L51.4232 136.419C52.0744 137.374 52.3111 138.182 52.1387 138.844ZM70.2813 136.008C70.2066 135.362 69.9312 134.883 69.4525 134.569C69.1514 134.45 68.8014 134.36 68.3973 134.301C66.6394 134.041 65.1826 134.528 64.0296 135.761L63.0181 137.493C62.3695 139.361 61.8521 141.539 61.4687 144.025C61.1032 146.385 60.9153 149.062 60.9076 152.053C60.8947 153.79 61.8135 154.794 63.6641 155.066C63.8108 155.09 64.0862 155.113 64.4954 155.133C65.9058 154.966 66.9096 153.985 67.5119 152.184C68.4436 149.402 69.1668 146.197 69.6816 142.571C69.7279 142.259 69.8103 141.562 69.9338 140.476C70.0548 139.39 70.1706 138.471 70.2813 137.719V136.008ZM83.1553 142.218C82.342 142.182 81.6574 142.362 81.1014 142.764C80.772 142.674 80.5841 142.501 80.5404 142.241C80.5635 142.133 80.6124 141.693 80.6845 140.926C80.7308 140.321 80.8235 139.886 80.965 139.616C81.1143 139.624 81.3176 139.634 81.575 139.644C82.6303 139.693 83.4642 139.482 84.0793 139.009C84.6944 138.538 85.0187 137.904 85.0548 137.109C85.0728 136.739 85.0316 136.404 84.9338 136.103C84.7073 135.369 83.8734 134.97 82.4321 134.903C81.7089 134.87 80.947 134.919 80.144 135.05L75.4906 135.308C74.7082 135.791 74.16 136.896 73.8408 138.623C73.2977 141.598 72.9812 144.251 72.8937 146.583C72.7289 150.632 72.9966 153.303 73.6967 154.595C74.3607 155.496 74.8652 156.037 75.2075 156.219C76.0234 156.647 76.9474 156.884 77.982 156.932C79.166 156.986 80.2032 156.783 81.0963 156.325C82.1001 155.813 82.9005 155.162 83.4925 154.364C84.0845 153.566 84.3521 152.768 84.2955 151.97C84.2543 151.262 83.8605 150.745 83.1167 150.416C82.6431 150.189 82.0254 150.161 81.2584 150.328C80.8801 150.089 80.6999 149.746 80.7205 149.304C80.9316 148.349 81.0217 147.762 80.9959 147.538C81.4026 147.52 81.6805 147.541 81.8273 147.602C82.6534 147.734 83.4436 147.502 84.1926 146.908C85.0187 146.277 85.4537 145.474 85.4975 144.493C85.5283 144.197 85.5155 143.912 85.4537 143.631C84.8643 142.733 84.0973 142.262 83.1553 142.218ZM103.776 137.004C103.151 135.053 101.944 134.16 100.158 134.322C99.1436 134.414 98.3921 134.829 97.9005 135.56C97.4758 136.193 97.3034 136.962 97.3883 137.866C97.4578 138.62 97.6766 139.799 98.0472 141.4C98.2608 142.311 98.5156 143.366 98.8116 144.565C98.2994 143.031 97.777 141.714 97.2493 140.61C95.9547 137.866 94.7476 136.257 93.628 135.784C93.2085 135.691 92.7967 135.663 92.3926 135.701C91.6359 135.771 90.9745 136.054 90.4082 136.553C89.4276 137.423 88.846 138.473 88.6606 139.698C88.4213 141.338 88.5165 144.493 88.9463 149.162C89.1651 151.561 89.5126 153.316 89.9861 154.428C90.6991 156.093 91.8238 156.93 93.3681 156.938C93.852 156.95 94.3435 156.778 94.8403 156.425C95.3396 156.073 95.669 155.674 95.8338 155.231C96.1915 154.284 96.2996 153.043 96.1606 151.509C96.0319 150.125 95.736 148.735 95.2753 147.343C97.6689 152.567 99.3521 155.396 100.32 155.828C101.074 155.947 101.681 155.983 102.142 155.942C102.531 155.905 102.865 155.821 103.151 155.682C105.02 154.786 105.686 151.417 105.151 145.574C104.976 143.677 104.698 141.667 104.317 139.547L104.32 139.572C104.088 138.275 103.908 137.418 103.776 137.004ZM117.971 134.291C116.777 133.29 115.551 132.654 114.295 132.386C113.14 132.304 111.866 132.42 110.476 132.734C108.018 133.285 106.675 134.1 106.443 135.176C106.53 135.897 106.759 137.078 107.13 138.723C108.131 143.163 109.338 147.759 110.751 152.506C110.96 153.18 111.678 153.602 112.9 153.772C114.126 153.942 115.433 153.826 116.82 153.417C119.253 152.091 120.851 150.045 121.61 147.273C122.241 145.026 122.277 142.656 121.713 140.164C121.209 137.925 119.96 135.969 117.971 134.291ZM115.75 141.477C115.912 142.2 115.896 142.954 115.703 143.737C115.51 144.519 115.194 145.152 114.751 145.631C114.023 142.663 113.418 140.561 112.929 139.325C112.947 139.32 113.029 139.263 113.176 139.155C113.323 139.047 113.449 138.98 113.557 138.955C113.791 138.901 114.072 139.001 114.393 139.251C115.086 139.796 115.536 140.54 115.75 141.477Z" fill="#F1491F"/>
</svg>
