<svg width="40" height="40" viewBox="0 0 40 40" fill="none" xmlns="http://www.w3.org/2000/svg">
<path d="M33.208 36.083C29.5973 36.083 26.042 35.229 22.542 33.521C19.042 31.8123 15.903 29.576 13.125 26.812C10.347 24.0487 8.10401 20.91 6.39601 17.396C4.68734 13.882 3.83301 10.3333 3.83301 6.74999C3.83301 5.91666 4.11801 5.21533 4.68801 4.64599C5.25734 4.07666 5.95867 3.79199 6.79201 3.79199H12.917C13.8337 3.79199 14.5767 4.02099 15.146 4.47899C15.7153 4.93766 16.111 5.61133 16.333 6.49999L17.417 11.208C17.5557 11.986 17.5417 12.6597 17.375 13.229C17.2083 13.7983 16.889 14.2913 16.417 14.708L12.042 18.625C13.292 20.5697 14.6807 22.2987 16.208 23.812C17.736 25.326 19.4167 26.611 21.25 27.667L25.458 23.5C25.958 23 26.5137 22.6527 27.125 22.458C27.7363 22.264 28.403 22.264 29.125 22.458L33.417 23.458C34.3057 23.6807 34.986 24.0767 35.458 24.646C35.9307 25.2153 36.167 25.9443 36.167 26.833V33.083C36.167 33.9443 35.882 34.6597 35.312 35.229C34.7427 35.7983 34.0413 36.083 33.208 36.083Z" fill="url(#paint0_linear_312_1059)"/>
<defs>
<linearGradient id="paint0_linear_312_1059" x1="20.0004" y1="36.083" x2="20.0004" y2="2.76688" gradientUnits="userSpaceOnUse">
<stop stop-color="#FCD3C9"/>
<stop offset="1" stop-color="#AFC7D8"/>
</linearGradient>
</defs>
</svg>
