<svg width="40" height="40" viewBox="0 0 40 40" fill="none" xmlns="http://www.w3.org/2000/svg">
<path d="M6.54199 34.5C5.31933 34.5 4.28466 34.0763 3.43799 33.229C2.59066 32.3817 2.16699 31.347 2.16699 30.125V9.87501C2.16699 8.65301 2.59066 7.61134 3.43799 6.75001C4.28466 5.88867 5.31933 5.45801 6.54199 5.45801H33.458C34.6807 5.45801 35.7223 5.88867 36.583 6.75001C37.4443 7.61134 37.875 8.65301 37.875 9.87501V30.125C37.875 31.347 37.4443 32.3817 36.583 33.229C35.7223 34.0763 34.6807 34.5 33.458 34.5H6.54199ZM20 22.542L33.458 13.583V9.87501L20 18.708L6.54199 9.87501V13.583L20 22.542Z" fill="url(#paint0_linear_312_1061)"/>
<defs>
<linearGradient id="paint0_linear_312_1061" x1="20.0215" y1="34.5" x2="20.0215" y2="4.53604" gradientUnits="userSpaceOnUse">
<stop stop-color="#FCD3C9"/>
<stop offset="1" stop-color="#AFC7D8"/>
</linearGradient>
</defs>
</svg>
