<svg width="24" height="24" viewBox="0 0 24 24" fill="none" xmlns="http://www.w3.org/2000/svg">
<path d="M14 21C13.8 21 13.625 20.925 13.475 20.775C13.325 20.625 13.25 20.45 13.25 20.25C13.25 20.0333 13.325 19.8542 13.475 19.7125C13.625 19.5708 13.8 19.5 14 19.5C14.9833 19.5 15.8125 19.3 16.4875 18.9C17.1625 18.5 17.5 18.0333 17.5 17.5C17.5 17.1167 17.2542 16.7417 16.7625 16.375C16.2708 16.0083 15.6083 15.725 14.775 15.525L15.95 14.35C17 14.6667 17.7708 15.1042 18.2625 15.6625C18.7542 16.2208 19 16.8333 19 17.5C19 18.6167 18.4917 19.4792 17.475 20.0875C16.4583 20.6958 15.3 21 14 21ZM6 13.65C4.93333 13.4167 4.16667 13.05 3.7 12.55C3.23333 12.05 3 11.5333 3 11C3 10.4167 3.21667 9.89167 3.65 9.425C4.08333 8.95833 5.08333 8.44167 6.65 7.875C7.75 7.475 8.45833 7.15 8.775 6.9C9.09167 6.65 9.25 6.35833 9.25 6.025C9.25 5.60833 9.06667 5.25 8.7 4.95C8.33333 4.65 7.76667 4.5 7 4.5C6.55 4.5 6.16667 4.55833 5.85 4.675C5.53333 4.79167 5.25 4.975 5 5.225C4.86667 5.35833 4.69583 5.4375 4.4875 5.4625C4.27917 5.4875 4.09167 5.43333 3.925 5.3C3.74167 5.16667 3.64583 5 3.6375 4.8C3.62917 4.6 3.69167 4.425 3.825 4.275C4.10833 3.90833 4.53333 3.60417 5.1 3.3625C5.66667 3.12083 6.3 3 7 3C8.13333 3 9.04167 3.27083 9.725 3.8125C10.4083 4.35417 10.75 5.09167 10.75 6.025C10.75 6.70833 10.5125 7.2875 10.0375 7.7625C9.5625 8.2375 8.63333 8.73333 7.25 9.25C6.13333 9.66667 5.39583 9.99583 5.0375 10.2375C4.67917 10.4792 4.5 10.7333 4.5 11C4.5 11.2667 4.725 11.5208 5.175 11.7625C5.625 12.0042 6.3 12.2333 7.2 12.45L6 13.65ZM18.4 9.8L15.2 6.6L16.325 5.475C16.625 5.175 16.9583 5.025 17.325 5.025C17.6917 5.025 18.025 5.175 18.325 5.475L19.525 6.675C19.825 6.975 19.975 7.30833 19.975 7.675C19.975 8.04167 19.825 8.375 19.525 8.675L18.4 9.8ZM5.5 19.5H6.55L15.175 10.875L14.125 9.825L5.5 18.45V19.5ZM4 21V17.8L14.125 7.675L17.325 10.875L7.2 21H4Z" fill="url(#paint0_linear_317_1087)"/>
<defs>
<linearGradient id="paint0_linear_317_1087" x1="11.4877" y1="21" x2="11.4877" y2="2.42857" gradientUnits="userSpaceOnUse">
<stop stop-color="#FCD3C9"/>
<stop offset="1" stop-color="#AFC7D8"/>
</linearGradient>
</defs>
</svg>
